%TF.GenerationSoftware,KiCad,Pcbnew,9.0.6-9.0.6~ubuntu22.04.1*%
%TF.CreationDate,2025-12-30T23:35:11+05:30*%
%TF.ProjectId,OverEngineered-PSU,4f766572-456e-4676-996e-65657265642d,rev?*%
%TF.SameCoordinates,Original*%
%TF.FileFunction,Soldermask,Top*%
%TF.FilePolarity,Negative*%
%FSLAX46Y46*%
G04 Gerber Fmt 4.6, Leading zero omitted, Abs format (unit mm)*
G04 Created by KiCad (PCBNEW 9.0.6-9.0.6~ubuntu22.04.1) date 2025-12-30 23:35:11*
%MOMM*%
%LPD*%
G01*
G04 APERTURE LIST*
G04 Aperture macros list*
%AMRoundRect*
0 Rectangle with rounded corners*
0 $1 Rounding radius*
0 $2 $3 $4 $5 $6 $7 $8 $9 X,Y pos of 4 corners*
0 Add a 4 corners polygon primitive as box body*
4,1,4,$2,$3,$4,$5,$6,$7,$8,$9,$2,$3,0*
0 Add four circle primitives for the rounded corners*
1,1,$1+$1,$2,$3*
1,1,$1+$1,$4,$5*
1,1,$1+$1,$6,$7*
1,1,$1+$1,$8,$9*
0 Add four rect primitives between the rounded corners*
20,1,$1+$1,$2,$3,$4,$5,0*
20,1,$1+$1,$4,$5,$6,$7,0*
20,1,$1+$1,$6,$7,$8,$9,0*
20,1,$1+$1,$8,$9,$2,$3,0*%
%AMFreePoly0*
4,1,9,1.050000,0.350000,0.550000,0.000000,0.550000,-0.400000,0.800000,-0.650000,0.800000,-0.800000,-1.050000,-0.800000,-1.050000,0.800000,1.050000,0.800000,1.050000,0.350000,1.050000,0.350000,$1*%
%AMFreePoly1*
4,1,9,1.050000,-0.800000,-0.800000,-0.800000,-0.800000,-0.650000,-0.550000,-0.400000,-0.550000,0.000000,-1.050000,0.350000,-1.050000,0.800000,1.050000,0.800000,1.050000,-0.800000,1.050000,-0.800000,$1*%
G04 Aperture macros list end*
%ADD10RoundRect,0.250000X-0.350000X0.275000X-0.350000X-0.275000X0.350000X-0.275000X0.350000X0.275000X0*%
%ADD11RoundRect,0.250000X0.850000X0.350000X-0.850000X0.350000X-0.850000X-0.350000X0.850000X-0.350000X0*%
%ADD12RoundRect,0.249997X2.950003X2.650003X-2.950003X2.650003X-2.950003X-2.650003X2.950003X-2.650003X0*%
%ADD13R,1.700000X1.700000*%
%ADD14C,1.700000*%
%ADD15RoundRect,0.250000X0.475000X-0.337500X0.475000X0.337500X-0.475000X0.337500X-0.475000X-0.337500X0*%
%ADD16RoundRect,0.250000X0.295000X-0.407500X0.295000X0.407500X-0.295000X0.407500X-0.295000X-0.407500X0*%
%ADD17RoundRect,0.102000X-0.300000X-1.100000X0.300000X-1.100000X0.300000X1.100000X-0.300000X1.100000X0*%
%ADD18R,1.500000X1.600000*%
%ADD19C,1.600000*%
%ADD20C,3.000000*%
%ADD21RoundRect,0.250000X0.450000X-0.350000X0.450000X0.350000X-0.450000X0.350000X-0.450000X-0.350000X0*%
%ADD22RoundRect,0.250000X0.407500X0.295000X-0.407500X0.295000X-0.407500X-0.295000X0.407500X-0.295000X0*%
%ADD23RoundRect,0.250000X-0.450000X0.325000X-0.450000X-0.325000X0.450000X-0.325000X0.450000X0.325000X0*%
%ADD24RoundRect,0.150000X0.150000X-0.825000X0.150000X0.825000X-0.150000X0.825000X-0.150000X-0.825000X0*%
%ADD25RoundRect,0.102000X0.350000X-0.300000X0.350000X0.300000X-0.350000X0.300000X-0.350000X-0.300000X0*%
%ADD26RoundRect,0.250000X-0.475000X0.337500X-0.475000X-0.337500X0.475000X-0.337500X0.475000X0.337500X0*%
%ADD27RoundRect,0.250000X0.350000X0.450000X-0.350000X0.450000X-0.350000X-0.450000X0.350000X-0.450000X0*%
%ADD28RoundRect,0.250001X-0.949999X-0.949999X0.949999X-0.949999X0.949999X0.949999X-0.949999X0.949999X0*%
%ADD29C,2.400000*%
%ADD30C,0.600000*%
%ADD31R,0.400000X1.350000*%
%ADD32FreePoly0,0.000000*%
%ADD33O,1.000000X1.700000*%
%ADD34R,1.900000X1.900000*%
%ADD35O,0.850000X1.700000*%
%ADD36FreePoly1,0.000000*%
%ADD37RoundRect,0.250001X0.949999X0.949999X-0.949999X0.949999X-0.949999X-0.949999X0.949999X-0.949999X0*%
%ADD38RoundRect,0.250000X-0.350000X-0.450000X0.350000X-0.450000X0.350000X0.450000X-0.350000X0.450000X0*%
%ADD39RoundRect,0.250000X-0.450000X0.350000X-0.450000X-0.350000X0.450000X-0.350000X0.450000X0.350000X0*%
%ADD40C,2.340000*%
%ADD41RoundRect,0.250000X-0.295000X0.407500X-0.295000X-0.407500X0.295000X-0.407500X0.295000X0.407500X0*%
%ADD42RoundRect,0.249999X-0.450001X-1.425001X0.450001X-1.425001X0.450001X1.425001X-0.450001X1.425001X0*%
%ADD43R,4.600000X2.000000*%
%ADD44O,4.200000X2.000000*%
%ADD45O,2.000000X4.200000*%
%ADD46RoundRect,0.250000X-0.407500X-0.295000X0.407500X-0.295000X0.407500X0.295000X-0.407500X0.295000X0*%
%ADD47RoundRect,0.162500X-0.162500X0.650000X-0.162500X-0.650000X0.162500X-0.650000X0.162500X0.650000X0*%
G04 APERTURE END LIST*
D10*
%TO.C,L1*%
X117850000Y-97200000D03*
X117850000Y-99500000D03*
%TD*%
D11*
%TO.C,U2*%
X134750000Y-112577500D03*
X134750000Y-110297500D03*
D12*
X128450000Y-110297500D03*
D11*
X134750000Y-108017500D03*
%TD*%
D13*
%TO.C,J5*%
X135756667Y-81735000D03*
D14*
X138296667Y-81735000D03*
X140836667Y-81735000D03*
%TD*%
D15*
%TO.C,C5*%
X117189200Y-87100000D03*
X117189200Y-85025000D03*
%TD*%
D16*
%TO.C,C9*%
X120100000Y-99287500D03*
X120100000Y-97332500D03*
%TD*%
D17*
%TO.C,IC1*%
X114040000Y-94550000D03*
X115310000Y-94550000D03*
X116580000Y-94550000D03*
X117850000Y-94550000D03*
X117850000Y-89350000D03*
X116580000Y-89350000D03*
X115310000Y-89350000D03*
X114040000Y-89350000D03*
%TD*%
D18*
%TO.C,J4*%
X141760000Y-103750000D03*
D19*
X141760000Y-101250000D03*
X141760000Y-99250000D03*
X141760000Y-96750000D03*
D20*
X144470000Y-106820000D03*
X144470000Y-93680000D03*
%TD*%
D21*
%TO.C,R9*%
X136678000Y-120100000D03*
X136678000Y-118100000D03*
%TD*%
D22*
%TO.C,C11*%
X135147500Y-105522500D03*
X133192500Y-105522500D03*
%TD*%
D23*
%TO.C,D4*%
X122525000Y-109725000D03*
X122525000Y-111775000D03*
%TD*%
D21*
%TO.C,R14*%
X122850000Y-99270000D03*
X122850000Y-97270000D03*
%TD*%
%TO.C,R11*%
X122570000Y-107175000D03*
X122570000Y-105175000D03*
%TD*%
D24*
%TO.C,U3*%
X122850000Y-94550000D03*
X124120000Y-94550000D03*
X125390000Y-94550000D03*
X126660000Y-94550000D03*
X126660000Y-89600000D03*
X125390000Y-89600000D03*
X124120000Y-89600000D03*
X122850000Y-89600000D03*
%TD*%
D21*
%TO.C,R1*%
X113725000Y-82855000D03*
X113725000Y-80855000D03*
%TD*%
D25*
%TO.C,D2*%
X139239000Y-118225000D03*
X139239000Y-119625000D03*
%TD*%
D17*
%TO.C,IC2*%
X133020000Y-94900000D03*
X134290000Y-94900000D03*
X135560000Y-94900000D03*
X136830000Y-94900000D03*
X136830000Y-89700000D03*
X135560000Y-89700000D03*
X134290000Y-89700000D03*
X133020000Y-89700000D03*
%TD*%
D13*
%TO.C,J8*%
X145850000Y-126050000D03*
D14*
X148390000Y-126050000D03*
X150930000Y-126050000D03*
X153470000Y-126050000D03*
%TD*%
D26*
%TO.C,C7*%
X112850000Y-97262500D03*
X112850000Y-99337500D03*
%TD*%
D27*
%TO.C,R7*%
X141840000Y-91775000D03*
X139840000Y-91775000D03*
%TD*%
D28*
%TO.C,J3*%
X120841083Y-122585000D03*
D29*
X124341083Y-122585000D03*
%TD*%
D30*
%TO.C,J1*%
X133532167Y-122850000D03*
X137532167Y-122850000D03*
D31*
X134232167Y-122525000D03*
X134882167Y-122525000D03*
X135532167Y-122525000D03*
X136182167Y-122525000D03*
X136832167Y-122525000D03*
D32*
X132432167Y-122650000D03*
D33*
X132707167Y-125200000D03*
D34*
X134332167Y-125200000D03*
X136732167Y-125200000D03*
D35*
X138357167Y-125200000D03*
D36*
X138632167Y-122650000D03*
%TD*%
D37*
%TO.C,J6*%
X153000000Y-85250000D03*
D29*
X149500000Y-85250000D03*
%TD*%
D15*
%TO.C,C3*%
X114448400Y-87100000D03*
X114448400Y-85025000D03*
%TD*%
D23*
%TO.C,D1*%
X128950000Y-117900000D03*
X128950000Y-119950000D03*
%TD*%
D26*
%TO.C,C13*%
X129900000Y-89200000D03*
X129900000Y-91275000D03*
%TD*%
D21*
%TO.C,R12*%
X118272500Y-107175000D03*
X118272500Y-105175000D03*
%TD*%
D38*
%TO.C,R6*%
X139840000Y-89325000D03*
X141840000Y-89325000D03*
%TD*%
D21*
%TO.C,R2*%
X110025000Y-99270000D03*
X110025000Y-97270000D03*
%TD*%
%TO.C,R5*%
X119900000Y-87092500D03*
X119900000Y-85092500D03*
%TD*%
D39*
%TO.C,R3*%
X139050000Y-85092500D03*
X139050000Y-87092500D03*
%TD*%
D40*
%TO.C,RV1*%
X114000000Y-103850000D03*
X104000000Y-106350000D03*
X114000000Y-108850000D03*
%TD*%
D39*
%TO.C,R8*%
X142100000Y-117925000D03*
X142100000Y-119925000D03*
%TD*%
D13*
%TO.C,J9*%
X117443333Y-81755000D03*
D14*
X119983333Y-81755000D03*
X122523333Y-81755000D03*
X125063333Y-81755000D03*
X127603333Y-81755000D03*
%TD*%
D21*
%TO.C,R10*%
X134417000Y-120100000D03*
X134417000Y-118100000D03*
%TD*%
D10*
%TO.C,L2*%
X128775000Y-97200000D03*
X128775000Y-99500000D03*
%TD*%
D41*
%TO.C,C2*%
X134350000Y-97372500D03*
X134350000Y-99327500D03*
%TD*%
D42*
%TO.C,R13*%
X122350000Y-86012500D03*
X128450000Y-86012500D03*
%TD*%
D15*
%TO.C,C6*%
X136040000Y-87100000D03*
X136040000Y-85025000D03*
%TD*%
D21*
%TO.C,R15*%
X125800000Y-99270000D03*
X125800000Y-97270000D03*
%TD*%
%TO.C,R4*%
X129900000Y-95200000D03*
X129900000Y-93200000D03*
%TD*%
D37*
%TO.C,J10*%
X108750000Y-85250000D03*
D29*
X105250000Y-85250000D03*
%TD*%
D15*
%TO.C,C4*%
X133000000Y-87100000D03*
X133000000Y-85025000D03*
%TD*%
D41*
%TO.C,C1*%
X115300000Y-97372500D03*
X115300000Y-99327500D03*
%TD*%
D26*
%TO.C,C8*%
X131825000Y-97262500D03*
X131825000Y-99337500D03*
%TD*%
D25*
%TO.C,D3*%
X131856000Y-118225000D03*
X131856000Y-119625000D03*
%TD*%
D43*
%TO.C,J12*%
X108000000Y-113650000D03*
D44*
X108000000Y-119950000D03*
D45*
X112800000Y-116550000D03*
%TD*%
D46*
%TO.C,C10*%
X128795000Y-101750000D03*
X130750000Y-101750000D03*
%TD*%
D23*
%TO.C,D5*%
X118317500Y-109725000D03*
X118317500Y-111775000D03*
%TD*%
D47*
%TO.C,U1*%
X154150000Y-111062500D03*
X152880000Y-111062500D03*
X151610000Y-111062500D03*
X150340000Y-111062500D03*
X150340000Y-118237500D03*
X151610000Y-118237500D03*
X152880000Y-118237500D03*
X154150000Y-118237500D03*
%TD*%
D41*
%TO.C,C12*%
X137675000Y-110372500D03*
X137675000Y-112327500D03*
%TD*%
D13*
%TO.C,J7*%
X150800000Y-78000000D03*
D14*
X153340000Y-78000000D03*
%TD*%
D13*
%TO.C,J11*%
X104750000Y-78000000D03*
D14*
X107290000Y-78000000D03*
%TD*%
M02*
