M48
; DRILL file {KiCad 9.0.6-9.0.6~ubuntu22.04.1} date 2025-12-30T23:35:00+0530
; FORMAT={-:-/ absolute / metric / decimal}
; #@! TF.CreationDate,2025-12-30T23:35:00+05:30
; #@! TF.GenerationSoftware,Kicad,Pcbnew,9.0.6-9.0.6~ubuntu22.04.1
; #@! TF.FileFunction,Plated,1,2,PTH
FMAT,2
METRIC
; #@! TA.AperFunction,Plated,PTH,ViaDrill
T1C0.100
; #@! TA.AperFunction,Plated,PTH,ViaDrill
T2C0.150
; #@! TA.AperFunction,Plated,PTH,ViaDrill
T3C0.200
; #@! TA.AperFunction,Plated,PTH,ComponentDrill
T4C0.500
; #@! TA.AperFunction,Plated,PTH,ViaDrill
T5C0.700
; #@! TA.AperFunction,Plated,PTH,ComponentDrill
T6C0.950
; #@! TA.AperFunction,Plated,PTH,ComponentDrill
T7C1.000
; #@! TA.AperFunction,Plated,PTH,ComponentDrill
T8C1.200
; #@! TA.AperFunction,Plated,PTH,ComponentDrill
T9C1.300
; #@! TA.AperFunction,Plated,PTH,ComponentDrill
T10C2.300
%
G90
G05
T1
X130.847Y-87.2
X131.4Y-91.8
T2
X109.5Y-96.0
X109.75Y-101.5
X114.0Y-98.25
X133.0Y-97.5
X133.0Y-99.25
X135.25Y-98.5
X148.75Y-118.25
X152.25Y-117.0
T3
X110.75Y-96.0
X114.25Y-99.25
X114.5Y-101.25
X114.75Y-98.5
X115.3Y-99.328
X129.4Y-116.0
X129.75Y-105.25
X133.0Y-107.0
X133.2Y-108.8
X136.2Y-98.2
X141.8Y-116.4
X151.25Y-119.75
T5
X115.8Y-111.8
X117.4Y-102.0
X131.6Y-88.6
X142.0Y-86.2
X144.8Y-87.8
T6
X141.76Y-96.75
X141.76Y-99.25
X141.76Y-101.25
X141.76Y-103.75
T7
X104.75Y-78.0
X107.29Y-78.0
X117.443Y-81.755
X119.983Y-81.755
X122.523Y-81.755
X125.063Y-81.755
X127.603Y-81.755
X135.757Y-81.735
X138.297Y-81.735
X140.837Y-81.735
X145.85Y-126.05
X148.39Y-126.05
X150.8Y-78.0
X150.93Y-126.05
X153.34Y-78.0
X153.47Y-126.05
T8
X105.25Y-85.25
X108.75Y-85.25
X120.841Y-122.585
X124.341Y-122.585
X149.5Y-85.25
X153.0Y-85.25
T9
X104.0Y-106.35
X114.0Y-103.85
X114.0Y-108.85
T10
X144.47Y-93.68
X144.47Y-106.82
T4
G00X132.707Y-124.85
M15
G01X132.707Y-125.55
M16
G05
G00X138.357Y-124.85
M15
G01X138.357Y-125.55
M16
G05
T7
G00X106.7Y-113.65
M15
G01X109.3Y-113.65
M16
G05
G00X106.9Y-119.95
M15
G01X109.1Y-119.95
M16
G05
G00X112.8Y-115.45
M15
G01X112.8Y-117.65
M16
G05
M30
