%TF.GenerationSoftware,KiCad,Pcbnew,9.0.6-9.0.6~ubuntu22.04.1*%
%TF.CreationDate,2025-12-30T23:35:11+05:30*%
%TF.ProjectId,OverEngineered-PSU,4f766572-456e-4676-996e-65657265642d,rev?*%
%TF.SameCoordinates,Original*%
%TF.FileFunction,Legend,Top*%
%TF.FilePolarity,Positive*%
%FSLAX46Y46*%
G04 Gerber Fmt 4.6, Leading zero omitted, Abs format (unit mm)*
G04 Created by KiCad (PCBNEW 9.0.6-9.0.6~ubuntu22.04.1) date 2025-12-30 23:35:11*
%MOMM*%
%LPD*%
G01*
G04 APERTURE LIST*
%ADD10C,0.100000*%
%ADD11C,0.150000*%
%ADD12C,0.120000*%
%ADD13C,0.127000*%
%ADD14C,0.200000*%
G04 APERTURE END LIST*
D10*
X117044836Y-83813609D02*
X117044836Y-83313609D01*
X117044836Y-83313609D02*
X117235312Y-83313609D01*
X117235312Y-83313609D02*
X117282931Y-83337419D01*
X117282931Y-83337419D02*
X117306741Y-83361228D01*
X117306741Y-83361228D02*
X117330550Y-83408847D01*
X117330550Y-83408847D02*
X117330550Y-83480276D01*
X117330550Y-83480276D02*
X117306741Y-83527895D01*
X117306741Y-83527895D02*
X117282931Y-83551704D01*
X117282931Y-83551704D02*
X117235312Y-83575514D01*
X117235312Y-83575514D02*
X117044836Y-83575514D01*
X117711503Y-83551704D02*
X117782931Y-83575514D01*
X117782931Y-83575514D02*
X117806741Y-83599323D01*
X117806741Y-83599323D02*
X117830550Y-83646942D01*
X117830550Y-83646942D02*
X117830550Y-83718371D01*
X117830550Y-83718371D02*
X117806741Y-83765990D01*
X117806741Y-83765990D02*
X117782931Y-83789800D01*
X117782931Y-83789800D02*
X117735312Y-83813609D01*
X117735312Y-83813609D02*
X117544836Y-83813609D01*
X117544836Y-83813609D02*
X117544836Y-83313609D01*
X117544836Y-83313609D02*
X117711503Y-83313609D01*
X117711503Y-83313609D02*
X117759122Y-83337419D01*
X117759122Y-83337419D02*
X117782931Y-83361228D01*
X117782931Y-83361228D02*
X117806741Y-83408847D01*
X117806741Y-83408847D02*
X117806741Y-83456466D01*
X117806741Y-83456466D02*
X117782931Y-83504085D01*
X117782931Y-83504085D02*
X117759122Y-83527895D01*
X117759122Y-83527895D02*
X117711503Y-83551704D01*
X117711503Y-83551704D02*
X117544836Y-83551704D01*
X118306741Y-83813609D02*
X118021027Y-83813609D01*
X118163884Y-83813609D02*
X118163884Y-83313609D01*
X118163884Y-83313609D02*
X118116265Y-83385038D01*
X118116265Y-83385038D02*
X118068646Y-83432657D01*
X118068646Y-83432657D02*
X118021027Y-83456466D01*
D11*
X115360961Y-126117982D02*
X115894295Y-126117982D01*
X115056200Y-126308458D02*
X115627628Y-126498935D01*
X115627628Y-126498935D02*
X115627628Y-126003696D01*
X115818104Y-125698934D02*
X115856200Y-125660839D01*
X115856200Y-125660839D02*
X115894295Y-125698934D01*
X115894295Y-125698934D02*
X115856200Y-125737030D01*
X115856200Y-125737030D02*
X115818104Y-125698934D01*
X115818104Y-125698934D02*
X115894295Y-125698934D01*
X115094295Y-125394173D02*
X115094295Y-124860839D01*
X115094295Y-124860839D02*
X115894295Y-125203697D01*
X115094295Y-124175125D02*
X115094295Y-124556077D01*
X115094295Y-124556077D02*
X115475247Y-124594173D01*
X115475247Y-124594173D02*
X115437152Y-124556077D01*
X115437152Y-124556077D02*
X115399057Y-124479887D01*
X115399057Y-124479887D02*
X115399057Y-124289411D01*
X115399057Y-124289411D02*
X115437152Y-124213220D01*
X115437152Y-124213220D02*
X115475247Y-124175125D01*
X115475247Y-124175125D02*
X115551438Y-124137030D01*
X115551438Y-124137030D02*
X115741914Y-124137030D01*
X115741914Y-124137030D02*
X115818104Y-124175125D01*
X115818104Y-124175125D02*
X115856200Y-124213220D01*
X115856200Y-124213220D02*
X115894295Y-124289411D01*
X115894295Y-124289411D02*
X115894295Y-124479887D01*
X115894295Y-124479887D02*
X115856200Y-124556077D01*
X115856200Y-124556077D02*
X115818104Y-124594173D01*
X115094295Y-123908458D02*
X115894295Y-123641791D01*
X115894295Y-123641791D02*
X115094295Y-123375125D01*
X115589533Y-123108458D02*
X115589533Y-122498935D01*
X115170485Y-122156078D02*
X115132390Y-122117982D01*
X115132390Y-122117982D02*
X115094295Y-122041792D01*
X115094295Y-122041792D02*
X115094295Y-121851316D01*
X115094295Y-121851316D02*
X115132390Y-121775125D01*
X115132390Y-121775125D02*
X115170485Y-121737030D01*
X115170485Y-121737030D02*
X115246676Y-121698935D01*
X115246676Y-121698935D02*
X115322866Y-121698935D01*
X115322866Y-121698935D02*
X115437152Y-121737030D01*
X115437152Y-121737030D02*
X115894295Y-122194173D01*
X115894295Y-122194173D02*
X115894295Y-121698935D01*
X115094295Y-121432268D02*
X115094295Y-120937030D01*
X115094295Y-120937030D02*
X115399057Y-121203696D01*
X115399057Y-121203696D02*
X115399057Y-121089411D01*
X115399057Y-121089411D02*
X115437152Y-121013220D01*
X115437152Y-121013220D02*
X115475247Y-120975125D01*
X115475247Y-120975125D02*
X115551438Y-120937030D01*
X115551438Y-120937030D02*
X115741914Y-120937030D01*
X115741914Y-120937030D02*
X115818104Y-120975125D01*
X115818104Y-120975125D02*
X115856200Y-121013220D01*
X115856200Y-121013220D02*
X115894295Y-121089411D01*
X115894295Y-121089411D02*
X115894295Y-121317982D01*
X115894295Y-121317982D02*
X115856200Y-121394173D01*
X115856200Y-121394173D02*
X115818104Y-121432268D01*
X115094295Y-120708458D02*
X115894295Y-120441791D01*
X115894295Y-120441791D02*
X115094295Y-120175125D01*
X115513342Y-118803696D02*
X115475247Y-118841791D01*
X115475247Y-118841791D02*
X115437152Y-118917982D01*
X115437152Y-118917982D02*
X115437152Y-118994172D01*
X115437152Y-118994172D02*
X115475247Y-119070363D01*
X115475247Y-119070363D02*
X115513342Y-119108458D01*
X115513342Y-119108458D02*
X115589533Y-119146553D01*
X115589533Y-119146553D02*
X115665723Y-119146553D01*
X115665723Y-119146553D02*
X115741914Y-119108458D01*
X115741914Y-119108458D02*
X115780009Y-119070363D01*
X115780009Y-119070363D02*
X115818104Y-118994172D01*
X115818104Y-118994172D02*
X115818104Y-118917982D01*
X115818104Y-118917982D02*
X115780009Y-118841791D01*
X115780009Y-118841791D02*
X115741914Y-118803696D01*
X115437152Y-118803696D02*
X115741914Y-118803696D01*
X115741914Y-118803696D02*
X115780009Y-118765601D01*
X115780009Y-118765601D02*
X115780009Y-118727506D01*
X115780009Y-118727506D02*
X115741914Y-118651315D01*
X115741914Y-118651315D02*
X115665723Y-118613220D01*
X115665723Y-118613220D02*
X115475247Y-118613220D01*
X115475247Y-118613220D02*
X115360961Y-118689411D01*
X115360961Y-118689411D02*
X115284771Y-118803696D01*
X115284771Y-118803696D02*
X115246676Y-118956077D01*
X115246676Y-118956077D02*
X115284771Y-119108458D01*
X115284771Y-119108458D02*
X115360961Y-119222744D01*
X115360961Y-119222744D02*
X115475247Y-119298934D01*
X115475247Y-119298934D02*
X115627628Y-119337030D01*
X115627628Y-119337030D02*
X115780009Y-119298934D01*
X115780009Y-119298934D02*
X115894295Y-119222744D01*
X115894295Y-119222744D02*
X115970485Y-119108458D01*
X115970485Y-119108458D02*
X116008580Y-118956077D01*
X116008580Y-118956077D02*
X115970485Y-118803696D01*
X115970485Y-118803696D02*
X115894295Y-118689411D01*
X115170485Y-117698935D02*
X115132390Y-117660839D01*
X115132390Y-117660839D02*
X115094295Y-117584649D01*
X115094295Y-117584649D02*
X115094295Y-117394173D01*
X115094295Y-117394173D02*
X115132390Y-117317982D01*
X115132390Y-117317982D02*
X115170485Y-117279887D01*
X115170485Y-117279887D02*
X115246676Y-117241792D01*
X115246676Y-117241792D02*
X115322866Y-117241792D01*
X115322866Y-117241792D02*
X115437152Y-117279887D01*
X115437152Y-117279887D02*
X115894295Y-117737030D01*
X115894295Y-117737030D02*
X115894295Y-117241792D01*
X115818104Y-116898934D02*
X115856200Y-116860839D01*
X115856200Y-116860839D02*
X115894295Y-116898934D01*
X115894295Y-116898934D02*
X115856200Y-116937030D01*
X115856200Y-116937030D02*
X115818104Y-116898934D01*
X115818104Y-116898934D02*
X115894295Y-116898934D01*
X115094295Y-116137030D02*
X115094295Y-116517982D01*
X115094295Y-116517982D02*
X115475247Y-116556078D01*
X115475247Y-116556078D02*
X115437152Y-116517982D01*
X115437152Y-116517982D02*
X115399057Y-116441792D01*
X115399057Y-116441792D02*
X115399057Y-116251316D01*
X115399057Y-116251316D02*
X115437152Y-116175125D01*
X115437152Y-116175125D02*
X115475247Y-116137030D01*
X115475247Y-116137030D02*
X115551438Y-116098935D01*
X115551438Y-116098935D02*
X115741914Y-116098935D01*
X115741914Y-116098935D02*
X115818104Y-116137030D01*
X115818104Y-116137030D02*
X115856200Y-116175125D01*
X115856200Y-116175125D02*
X115894295Y-116251316D01*
X115894295Y-116251316D02*
X115894295Y-116441792D01*
X115894295Y-116441792D02*
X115856200Y-116517982D01*
X115856200Y-116517982D02*
X115818104Y-116556078D01*
X115665723Y-115794173D02*
X115665723Y-115413220D01*
X115894295Y-115870363D02*
X115094295Y-115603696D01*
X115094295Y-115603696D02*
X115894295Y-115337030D01*
D10*
X146348972Y-123550200D02*
X146277544Y-123526390D01*
X146277544Y-123526390D02*
X146158496Y-123526390D01*
X146158496Y-123526390D02*
X146110877Y-123550200D01*
X146110877Y-123550200D02*
X146087068Y-123574009D01*
X146087068Y-123574009D02*
X146063258Y-123621628D01*
X146063258Y-123621628D02*
X146063258Y-123669247D01*
X146063258Y-123669247D02*
X146087068Y-123716866D01*
X146087068Y-123716866D02*
X146110877Y-123740676D01*
X146110877Y-123740676D02*
X146158496Y-123764485D01*
X146158496Y-123764485D02*
X146253734Y-123788295D01*
X146253734Y-123788295D02*
X146301353Y-123812104D01*
X146301353Y-123812104D02*
X146325163Y-123835914D01*
X146325163Y-123835914D02*
X146348972Y-123883533D01*
X146348972Y-123883533D02*
X146348972Y-123931152D01*
X146348972Y-123931152D02*
X146325163Y-123978771D01*
X146325163Y-123978771D02*
X146301353Y-124002580D01*
X146301353Y-124002580D02*
X146253734Y-124026390D01*
X146253734Y-124026390D02*
X146134687Y-124026390D01*
X146134687Y-124026390D02*
X146063258Y-124002580D01*
X145848973Y-123526390D02*
X145848973Y-124026390D01*
X145848973Y-124026390D02*
X145729925Y-124026390D01*
X145729925Y-124026390D02*
X145658497Y-124002580D01*
X145658497Y-124002580D02*
X145610878Y-123954961D01*
X145610878Y-123954961D02*
X145587068Y-123907342D01*
X145587068Y-123907342D02*
X145563259Y-123812104D01*
X145563259Y-123812104D02*
X145563259Y-123740676D01*
X145563259Y-123740676D02*
X145587068Y-123645438D01*
X145587068Y-123645438D02*
X145610878Y-123597819D01*
X145610878Y-123597819D02*
X145658497Y-123550200D01*
X145658497Y-123550200D02*
X145729925Y-123526390D01*
X145729925Y-123526390D02*
X145848973Y-123526390D01*
X145372782Y-123669247D02*
X145134687Y-123669247D01*
X145420401Y-123526390D02*
X145253735Y-124026390D01*
X145253735Y-124026390D02*
X145087068Y-123526390D01*
X122192297Y-83839800D02*
X122263725Y-83863609D01*
X122263725Y-83863609D02*
X122382773Y-83863609D01*
X122382773Y-83863609D02*
X122430392Y-83839800D01*
X122430392Y-83839800D02*
X122454201Y-83815990D01*
X122454201Y-83815990D02*
X122478011Y-83768371D01*
X122478011Y-83768371D02*
X122478011Y-83720752D01*
X122478011Y-83720752D02*
X122454201Y-83673133D01*
X122454201Y-83673133D02*
X122430392Y-83649323D01*
X122430392Y-83649323D02*
X122382773Y-83625514D01*
X122382773Y-83625514D02*
X122287535Y-83601704D01*
X122287535Y-83601704D02*
X122239916Y-83577895D01*
X122239916Y-83577895D02*
X122216106Y-83554085D01*
X122216106Y-83554085D02*
X122192297Y-83506466D01*
X122192297Y-83506466D02*
X122192297Y-83458847D01*
X122192297Y-83458847D02*
X122216106Y-83411228D01*
X122216106Y-83411228D02*
X122239916Y-83387419D01*
X122239916Y-83387419D02*
X122287535Y-83363609D01*
X122287535Y-83363609D02*
X122406582Y-83363609D01*
X122406582Y-83363609D02*
X122478011Y-83387419D01*
X122978010Y-83815990D02*
X122954201Y-83839800D01*
X122954201Y-83839800D02*
X122882772Y-83863609D01*
X122882772Y-83863609D02*
X122835153Y-83863609D01*
X122835153Y-83863609D02*
X122763725Y-83839800D01*
X122763725Y-83839800D02*
X122716106Y-83792180D01*
X122716106Y-83792180D02*
X122692296Y-83744561D01*
X122692296Y-83744561D02*
X122668487Y-83649323D01*
X122668487Y-83649323D02*
X122668487Y-83577895D01*
X122668487Y-83577895D02*
X122692296Y-83482657D01*
X122692296Y-83482657D02*
X122716106Y-83435038D01*
X122716106Y-83435038D02*
X122763725Y-83387419D01*
X122763725Y-83387419D02*
X122835153Y-83363609D01*
X122835153Y-83363609D02*
X122882772Y-83363609D01*
X122882772Y-83363609D02*
X122954201Y-83387419D01*
X122954201Y-83387419D02*
X122978010Y-83411228D01*
X123430391Y-83863609D02*
X123192296Y-83863609D01*
X123192296Y-83863609D02*
X123192296Y-83363609D01*
X140417217Y-83443609D02*
X140726741Y-83443609D01*
X140726741Y-83443609D02*
X140560074Y-83634085D01*
X140560074Y-83634085D02*
X140631503Y-83634085D01*
X140631503Y-83634085D02*
X140679122Y-83657895D01*
X140679122Y-83657895D02*
X140702931Y-83681704D01*
X140702931Y-83681704D02*
X140726741Y-83729323D01*
X140726741Y-83729323D02*
X140726741Y-83848371D01*
X140726741Y-83848371D02*
X140702931Y-83895990D01*
X140702931Y-83895990D02*
X140679122Y-83919800D01*
X140679122Y-83919800D02*
X140631503Y-83943609D01*
X140631503Y-83943609D02*
X140488646Y-83943609D01*
X140488646Y-83943609D02*
X140441027Y-83919800D01*
X140441027Y-83919800D02*
X140417217Y-83895990D01*
X140941026Y-83895990D02*
X140964836Y-83919800D01*
X140964836Y-83919800D02*
X140941026Y-83943609D01*
X140941026Y-83943609D02*
X140917217Y-83919800D01*
X140917217Y-83919800D02*
X140941026Y-83895990D01*
X140941026Y-83895990D02*
X140941026Y-83943609D01*
X141131502Y-83443609D02*
X141441026Y-83443609D01*
X141441026Y-83443609D02*
X141274359Y-83634085D01*
X141274359Y-83634085D02*
X141345788Y-83634085D01*
X141345788Y-83634085D02*
X141393407Y-83657895D01*
X141393407Y-83657895D02*
X141417216Y-83681704D01*
X141417216Y-83681704D02*
X141441026Y-83729323D01*
X141441026Y-83729323D02*
X141441026Y-83848371D01*
X141441026Y-83848371D02*
X141417216Y-83895990D01*
X141417216Y-83895990D02*
X141393407Y-83919800D01*
X141393407Y-83919800D02*
X141345788Y-83943609D01*
X141345788Y-83943609D02*
X141202931Y-83943609D01*
X141202931Y-83943609D02*
X141155312Y-83919800D01*
X141155312Y-83919800D02*
X141131502Y-83895990D01*
X141583883Y-83443609D02*
X141750549Y-83943609D01*
X141750549Y-83943609D02*
X141917216Y-83443609D01*
X135552931Y-83443609D02*
X135314836Y-83443609D01*
X135314836Y-83443609D02*
X135291027Y-83681704D01*
X135291027Y-83681704D02*
X135314836Y-83657895D01*
X135314836Y-83657895D02*
X135362455Y-83634085D01*
X135362455Y-83634085D02*
X135481503Y-83634085D01*
X135481503Y-83634085D02*
X135529122Y-83657895D01*
X135529122Y-83657895D02*
X135552931Y-83681704D01*
X135552931Y-83681704D02*
X135576741Y-83729323D01*
X135576741Y-83729323D02*
X135576741Y-83848371D01*
X135576741Y-83848371D02*
X135552931Y-83895990D01*
X135552931Y-83895990D02*
X135529122Y-83919800D01*
X135529122Y-83919800D02*
X135481503Y-83943609D01*
X135481503Y-83943609D02*
X135362455Y-83943609D01*
X135362455Y-83943609D02*
X135314836Y-83919800D01*
X135314836Y-83919800D02*
X135291027Y-83895990D01*
X135719598Y-83443609D02*
X135886264Y-83943609D01*
X135886264Y-83943609D02*
X136052931Y-83443609D01*
D11*
X121598684Y-112906533D02*
X122032017Y-112906533D01*
X122032017Y-112906533D02*
X121798684Y-113173200D01*
X121798684Y-113173200D02*
X121898684Y-113173200D01*
X121898684Y-113173200D02*
X121965350Y-113206533D01*
X121965350Y-113206533D02*
X121998684Y-113239866D01*
X121998684Y-113239866D02*
X122032017Y-113306533D01*
X122032017Y-113306533D02*
X122032017Y-113473200D01*
X122032017Y-113473200D02*
X121998684Y-113539866D01*
X121998684Y-113539866D02*
X121965350Y-113573200D01*
X121965350Y-113573200D02*
X121898684Y-113606533D01*
X121898684Y-113606533D02*
X121698684Y-113606533D01*
X121698684Y-113606533D02*
X121632017Y-113573200D01*
X121632017Y-113573200D02*
X121598684Y-113539866D01*
X122332017Y-113539866D02*
X122365351Y-113573200D01*
X122365351Y-113573200D02*
X122332017Y-113606533D01*
X122332017Y-113606533D02*
X122298684Y-113573200D01*
X122298684Y-113573200D02*
X122332017Y-113539866D01*
X122332017Y-113539866D02*
X122332017Y-113606533D01*
X122598684Y-112906533D02*
X123032017Y-112906533D01*
X123032017Y-112906533D02*
X122798684Y-113173200D01*
X122798684Y-113173200D02*
X122898684Y-113173200D01*
X122898684Y-113173200D02*
X122965350Y-113206533D01*
X122965350Y-113206533D02*
X122998684Y-113239866D01*
X122998684Y-113239866D02*
X123032017Y-113306533D01*
X123032017Y-113306533D02*
X123032017Y-113473200D01*
X123032017Y-113473200D02*
X122998684Y-113539866D01*
X122998684Y-113539866D02*
X122965350Y-113573200D01*
X122965350Y-113573200D02*
X122898684Y-113606533D01*
X122898684Y-113606533D02*
X122698684Y-113606533D01*
X122698684Y-113606533D02*
X122632017Y-113573200D01*
X122632017Y-113573200D02*
X122598684Y-113539866D01*
X123232017Y-112906533D02*
X123465351Y-113606533D01*
X123465351Y-113606533D02*
X123698684Y-112906533D01*
X117575350Y-113606533D02*
X117575350Y-112906533D01*
X117575350Y-112906533D02*
X117842017Y-112906533D01*
X117842017Y-112906533D02*
X117908684Y-112939866D01*
X117908684Y-112939866D02*
X117942017Y-112973200D01*
X117942017Y-112973200D02*
X117975350Y-113039866D01*
X117975350Y-113039866D02*
X117975350Y-113139866D01*
X117975350Y-113139866D02*
X117942017Y-113206533D01*
X117942017Y-113206533D02*
X117908684Y-113239866D01*
X117908684Y-113239866D02*
X117842017Y-113273200D01*
X117842017Y-113273200D02*
X117575350Y-113273200D01*
X118208684Y-112906533D02*
X118375350Y-113606533D01*
X118375350Y-113606533D02*
X118508684Y-113106533D01*
X118508684Y-113106533D02*
X118642017Y-113606533D01*
X118642017Y-113606533D02*
X118808684Y-112906533D01*
X119475350Y-113606533D02*
X119242017Y-113273200D01*
X119075350Y-113606533D02*
X119075350Y-112906533D01*
X119075350Y-112906533D02*
X119342017Y-112906533D01*
X119342017Y-112906533D02*
X119408684Y-112939866D01*
X119408684Y-112939866D02*
X119442017Y-112973200D01*
X119442017Y-112973200D02*
X119475350Y-113039866D01*
X119475350Y-113039866D02*
X119475350Y-113139866D01*
X119475350Y-113139866D02*
X119442017Y-113206533D01*
X119442017Y-113206533D02*
X119408684Y-113239866D01*
X119408684Y-113239866D02*
X119342017Y-113273200D01*
X119342017Y-113273200D02*
X119075350Y-113273200D01*
D10*
X119421027Y-83839800D02*
X119492455Y-83863609D01*
X119492455Y-83863609D02*
X119611503Y-83863609D01*
X119611503Y-83863609D02*
X119659122Y-83839800D01*
X119659122Y-83839800D02*
X119682931Y-83815990D01*
X119682931Y-83815990D02*
X119706741Y-83768371D01*
X119706741Y-83768371D02*
X119706741Y-83720752D01*
X119706741Y-83720752D02*
X119682931Y-83673133D01*
X119682931Y-83673133D02*
X119659122Y-83649323D01*
X119659122Y-83649323D02*
X119611503Y-83625514D01*
X119611503Y-83625514D02*
X119516265Y-83601704D01*
X119516265Y-83601704D02*
X119468646Y-83577895D01*
X119468646Y-83577895D02*
X119444836Y-83554085D01*
X119444836Y-83554085D02*
X119421027Y-83506466D01*
X119421027Y-83506466D02*
X119421027Y-83458847D01*
X119421027Y-83458847D02*
X119444836Y-83411228D01*
X119444836Y-83411228D02*
X119468646Y-83387419D01*
X119468646Y-83387419D02*
X119516265Y-83363609D01*
X119516265Y-83363609D02*
X119635312Y-83363609D01*
X119635312Y-83363609D02*
X119706741Y-83387419D01*
X119921026Y-83863609D02*
X119921026Y-83363609D01*
X119921026Y-83363609D02*
X120040074Y-83363609D01*
X120040074Y-83363609D02*
X120111502Y-83387419D01*
X120111502Y-83387419D02*
X120159121Y-83435038D01*
X120159121Y-83435038D02*
X120182931Y-83482657D01*
X120182931Y-83482657D02*
X120206740Y-83577895D01*
X120206740Y-83577895D02*
X120206740Y-83649323D01*
X120206740Y-83649323D02*
X120182931Y-83744561D01*
X120182931Y-83744561D02*
X120159121Y-83792180D01*
X120159121Y-83792180D02*
X120111502Y-83839800D01*
X120111502Y-83839800D02*
X120040074Y-83863609D01*
X120040074Y-83863609D02*
X119921026Y-83863609D01*
X120397217Y-83720752D02*
X120635312Y-83720752D01*
X120349598Y-83863609D02*
X120516264Y-83363609D01*
X120516264Y-83363609D02*
X120682931Y-83863609D01*
X148922305Y-123550200D02*
X148850877Y-123526390D01*
X148850877Y-123526390D02*
X148731829Y-123526390D01*
X148731829Y-123526390D02*
X148684210Y-123550200D01*
X148684210Y-123550200D02*
X148660401Y-123574009D01*
X148660401Y-123574009D02*
X148636591Y-123621628D01*
X148636591Y-123621628D02*
X148636591Y-123669247D01*
X148636591Y-123669247D02*
X148660401Y-123716866D01*
X148660401Y-123716866D02*
X148684210Y-123740676D01*
X148684210Y-123740676D02*
X148731829Y-123764485D01*
X148731829Y-123764485D02*
X148827067Y-123788295D01*
X148827067Y-123788295D02*
X148874686Y-123812104D01*
X148874686Y-123812104D02*
X148898496Y-123835914D01*
X148898496Y-123835914D02*
X148922305Y-123883533D01*
X148922305Y-123883533D02*
X148922305Y-123931152D01*
X148922305Y-123931152D02*
X148898496Y-123978771D01*
X148898496Y-123978771D02*
X148874686Y-124002580D01*
X148874686Y-124002580D02*
X148827067Y-124026390D01*
X148827067Y-124026390D02*
X148708020Y-124026390D01*
X148708020Y-124026390D02*
X148636591Y-124002580D01*
X148136592Y-123574009D02*
X148160401Y-123550200D01*
X148160401Y-123550200D02*
X148231830Y-123526390D01*
X148231830Y-123526390D02*
X148279449Y-123526390D01*
X148279449Y-123526390D02*
X148350877Y-123550200D01*
X148350877Y-123550200D02*
X148398496Y-123597819D01*
X148398496Y-123597819D02*
X148422306Y-123645438D01*
X148422306Y-123645438D02*
X148446115Y-123740676D01*
X148446115Y-123740676D02*
X148446115Y-123812104D01*
X148446115Y-123812104D02*
X148422306Y-123907342D01*
X148422306Y-123907342D02*
X148398496Y-123954961D01*
X148398496Y-123954961D02*
X148350877Y-124002580D01*
X148350877Y-124002580D02*
X148279449Y-124026390D01*
X148279449Y-124026390D02*
X148231830Y-124026390D01*
X148231830Y-124026390D02*
X148160401Y-124002580D01*
X148160401Y-124002580D02*
X148136592Y-123978771D01*
X147684211Y-123526390D02*
X147922306Y-123526390D01*
X147922306Y-123526390D02*
X147922306Y-124026390D01*
X127466741Y-83387419D02*
X127419122Y-83363609D01*
X127419122Y-83363609D02*
X127347693Y-83363609D01*
X127347693Y-83363609D02*
X127276265Y-83387419D01*
X127276265Y-83387419D02*
X127228646Y-83435038D01*
X127228646Y-83435038D02*
X127204836Y-83482657D01*
X127204836Y-83482657D02*
X127181027Y-83577895D01*
X127181027Y-83577895D02*
X127181027Y-83649323D01*
X127181027Y-83649323D02*
X127204836Y-83744561D01*
X127204836Y-83744561D02*
X127228646Y-83792180D01*
X127228646Y-83792180D02*
X127276265Y-83839800D01*
X127276265Y-83839800D02*
X127347693Y-83863609D01*
X127347693Y-83863609D02*
X127395312Y-83863609D01*
X127395312Y-83863609D02*
X127466741Y-83839800D01*
X127466741Y-83839800D02*
X127490550Y-83815990D01*
X127490550Y-83815990D02*
X127490550Y-83649323D01*
X127490550Y-83649323D02*
X127395312Y-83649323D01*
X127704836Y-83863609D02*
X127704836Y-83363609D01*
X127704836Y-83363609D02*
X127990550Y-83863609D01*
X127990550Y-83863609D02*
X127990550Y-83363609D01*
X128228646Y-83863609D02*
X128228646Y-83363609D01*
X128228646Y-83363609D02*
X128347694Y-83363609D01*
X128347694Y-83363609D02*
X128419122Y-83387419D01*
X128419122Y-83387419D02*
X128466741Y-83435038D01*
X128466741Y-83435038D02*
X128490551Y-83482657D01*
X128490551Y-83482657D02*
X128514360Y-83577895D01*
X128514360Y-83577895D02*
X128514360Y-83649323D01*
X128514360Y-83649323D02*
X128490551Y-83744561D01*
X128490551Y-83744561D02*
X128466741Y-83792180D01*
X128466741Y-83792180D02*
X128419122Y-83839800D01*
X128419122Y-83839800D02*
X128347694Y-83863609D01*
X128347694Y-83863609D02*
X128228646Y-83863609D01*
X125201661Y-83363609D02*
X124963566Y-83363609D01*
X124963566Y-83363609D02*
X124939757Y-83601704D01*
X124939757Y-83601704D02*
X124963566Y-83577895D01*
X124963566Y-83577895D02*
X125011185Y-83554085D01*
X125011185Y-83554085D02*
X125130233Y-83554085D01*
X125130233Y-83554085D02*
X125177852Y-83577895D01*
X125177852Y-83577895D02*
X125201661Y-83601704D01*
X125201661Y-83601704D02*
X125225471Y-83649323D01*
X125225471Y-83649323D02*
X125225471Y-83768371D01*
X125225471Y-83768371D02*
X125201661Y-83815990D01*
X125201661Y-83815990D02*
X125177852Y-83839800D01*
X125177852Y-83839800D02*
X125130233Y-83863609D01*
X125130233Y-83863609D02*
X125011185Y-83863609D01*
X125011185Y-83863609D02*
X124963566Y-83839800D01*
X124963566Y-83839800D02*
X124939757Y-83815990D01*
X125368328Y-83363609D02*
X125534994Y-83863609D01*
X125534994Y-83863609D02*
X125701661Y-83363609D01*
X153783258Y-124002580D02*
X153830877Y-124026390D01*
X153830877Y-124026390D02*
X153902306Y-124026390D01*
X153902306Y-124026390D02*
X153973734Y-124002580D01*
X153973734Y-124002580D02*
X154021353Y-123954961D01*
X154021353Y-123954961D02*
X154045163Y-123907342D01*
X154045163Y-123907342D02*
X154068972Y-123812104D01*
X154068972Y-123812104D02*
X154068972Y-123740676D01*
X154068972Y-123740676D02*
X154045163Y-123645438D01*
X154045163Y-123645438D02*
X154021353Y-123597819D01*
X154021353Y-123597819D02*
X153973734Y-123550200D01*
X153973734Y-123550200D02*
X153902306Y-123526390D01*
X153902306Y-123526390D02*
X153854687Y-123526390D01*
X153854687Y-123526390D02*
X153783258Y-123550200D01*
X153783258Y-123550200D02*
X153759449Y-123574009D01*
X153759449Y-123574009D02*
X153759449Y-123740676D01*
X153759449Y-123740676D02*
X153854687Y-123740676D01*
X153545163Y-123526390D02*
X153545163Y-124026390D01*
X153545163Y-124026390D02*
X153259449Y-123526390D01*
X153259449Y-123526390D02*
X153259449Y-124026390D01*
X153021353Y-123526390D02*
X153021353Y-124026390D01*
X153021353Y-124026390D02*
X152902305Y-124026390D01*
X152902305Y-124026390D02*
X152830877Y-124002580D01*
X152830877Y-124002580D02*
X152783258Y-123954961D01*
X152783258Y-123954961D02*
X152759448Y-123907342D01*
X152759448Y-123907342D02*
X152735639Y-123812104D01*
X152735639Y-123812104D02*
X152735639Y-123740676D01*
X152735639Y-123740676D02*
X152759448Y-123645438D01*
X152759448Y-123645438D02*
X152783258Y-123597819D01*
X152783258Y-123597819D02*
X152830877Y-123550200D01*
X152830877Y-123550200D02*
X152902305Y-123526390D01*
X152902305Y-123526390D02*
X153021353Y-123526390D01*
X151233735Y-124026390D02*
X151471830Y-124026390D01*
X151471830Y-124026390D02*
X151495639Y-123788295D01*
X151495639Y-123788295D02*
X151471830Y-123812104D01*
X151471830Y-123812104D02*
X151424211Y-123835914D01*
X151424211Y-123835914D02*
X151305163Y-123835914D01*
X151305163Y-123835914D02*
X151257544Y-123812104D01*
X151257544Y-123812104D02*
X151233735Y-123788295D01*
X151233735Y-123788295D02*
X151209925Y-123740676D01*
X151209925Y-123740676D02*
X151209925Y-123621628D01*
X151209925Y-123621628D02*
X151233735Y-123574009D01*
X151233735Y-123574009D02*
X151257544Y-123550200D01*
X151257544Y-123550200D02*
X151305163Y-123526390D01*
X151305163Y-123526390D02*
X151424211Y-123526390D01*
X151424211Y-123526390D02*
X151471830Y-123550200D01*
X151471830Y-123550200D02*
X151495639Y-123574009D01*
X151067068Y-124026390D02*
X150900402Y-123526390D01*
X150900402Y-123526390D02*
X150733735Y-124026390D01*
X137851027Y-83919800D02*
X137922455Y-83943609D01*
X137922455Y-83943609D02*
X138041503Y-83943609D01*
X138041503Y-83943609D02*
X138089122Y-83919800D01*
X138089122Y-83919800D02*
X138112931Y-83895990D01*
X138112931Y-83895990D02*
X138136741Y-83848371D01*
X138136741Y-83848371D02*
X138136741Y-83800752D01*
X138136741Y-83800752D02*
X138112931Y-83753133D01*
X138112931Y-83753133D02*
X138089122Y-83729323D01*
X138089122Y-83729323D02*
X138041503Y-83705514D01*
X138041503Y-83705514D02*
X137946265Y-83681704D01*
X137946265Y-83681704D02*
X137898646Y-83657895D01*
X137898646Y-83657895D02*
X137874836Y-83634085D01*
X137874836Y-83634085D02*
X137851027Y-83586466D01*
X137851027Y-83586466D02*
X137851027Y-83538847D01*
X137851027Y-83538847D02*
X137874836Y-83491228D01*
X137874836Y-83491228D02*
X137898646Y-83467419D01*
X137898646Y-83467419D02*
X137946265Y-83443609D01*
X137946265Y-83443609D02*
X138065312Y-83443609D01*
X138065312Y-83443609D02*
X138136741Y-83467419D01*
X138351026Y-83681704D02*
X138517693Y-83681704D01*
X138589121Y-83943609D02*
X138351026Y-83943609D01*
X138351026Y-83943609D02*
X138351026Y-83443609D01*
X138351026Y-83443609D02*
X138589121Y-83443609D01*
X139041502Y-83943609D02*
X138803407Y-83943609D01*
X138803407Y-83943609D02*
X138803407Y-83443609D01*
X119086109Y-98413333D02*
X119086109Y-98651428D01*
X119086109Y-98651428D02*
X118586109Y-98651428D01*
X119086109Y-97984761D02*
X119086109Y-98270475D01*
X119086109Y-98127618D02*
X118586109Y-98127618D01*
X118586109Y-98127618D02*
X118657538Y-98175237D01*
X118657538Y-98175237D02*
X118705157Y-98222856D01*
X118705157Y-98222856D02*
X118728966Y-98270475D01*
D12*
X132167593Y-110913333D02*
X132734260Y-110913333D01*
X132734260Y-110913333D02*
X132800926Y-110880000D01*
X132800926Y-110880000D02*
X132834260Y-110846666D01*
X132834260Y-110846666D02*
X132867593Y-110780000D01*
X132867593Y-110780000D02*
X132867593Y-110646666D01*
X132867593Y-110646666D02*
X132834260Y-110580000D01*
X132834260Y-110580000D02*
X132800926Y-110546666D01*
X132800926Y-110546666D02*
X132734260Y-110513333D01*
X132734260Y-110513333D02*
X132167593Y-110513333D01*
X132234260Y-110213333D02*
X132200926Y-110180000D01*
X132200926Y-110180000D02*
X132167593Y-110113333D01*
X132167593Y-110113333D02*
X132167593Y-109946667D01*
X132167593Y-109946667D02*
X132200926Y-109880000D01*
X132200926Y-109880000D02*
X132234260Y-109846667D01*
X132234260Y-109846667D02*
X132300926Y-109813333D01*
X132300926Y-109813333D02*
X132367593Y-109813333D01*
X132367593Y-109813333D02*
X132467593Y-109846667D01*
X132467593Y-109846667D02*
X132867593Y-110246667D01*
X132867593Y-110246667D02*
X132867593Y-109813333D01*
X118840926Y-86186666D02*
X118874260Y-86219999D01*
X118874260Y-86219999D02*
X118907593Y-86319999D01*
X118907593Y-86319999D02*
X118907593Y-86386666D01*
X118907593Y-86386666D02*
X118874260Y-86486666D01*
X118874260Y-86486666D02*
X118807593Y-86553333D01*
X118807593Y-86553333D02*
X118740926Y-86586666D01*
X118740926Y-86586666D02*
X118607593Y-86619999D01*
X118607593Y-86619999D02*
X118507593Y-86619999D01*
X118507593Y-86619999D02*
X118374260Y-86586666D01*
X118374260Y-86586666D02*
X118307593Y-86553333D01*
X118307593Y-86553333D02*
X118240926Y-86486666D01*
X118240926Y-86486666D02*
X118207593Y-86386666D01*
X118207593Y-86386666D02*
X118207593Y-86319999D01*
X118207593Y-86319999D02*
X118240926Y-86219999D01*
X118240926Y-86219999D02*
X118274260Y-86186666D01*
X118207593Y-85553333D02*
X118207593Y-85886666D01*
X118207593Y-85886666D02*
X118540926Y-85919999D01*
X118540926Y-85919999D02*
X118507593Y-85886666D01*
X118507593Y-85886666D02*
X118474260Y-85819999D01*
X118474260Y-85819999D02*
X118474260Y-85653333D01*
X118474260Y-85653333D02*
X118507593Y-85586666D01*
X118507593Y-85586666D02*
X118540926Y-85553333D01*
X118540926Y-85553333D02*
X118607593Y-85519999D01*
X118607593Y-85519999D02*
X118774260Y-85519999D01*
X118774260Y-85519999D02*
X118840926Y-85553333D01*
X118840926Y-85553333D02*
X118874260Y-85586666D01*
X118874260Y-85586666D02*
X118907593Y-85653333D01*
X118907593Y-85653333D02*
X118907593Y-85819999D01*
X118907593Y-85819999D02*
X118874260Y-85886666D01*
X118874260Y-85886666D02*
X118840926Y-85919999D01*
X121720926Y-98426666D02*
X121754260Y-98459999D01*
X121754260Y-98459999D02*
X121787593Y-98559999D01*
X121787593Y-98559999D02*
X121787593Y-98626666D01*
X121787593Y-98626666D02*
X121754260Y-98726666D01*
X121754260Y-98726666D02*
X121687593Y-98793333D01*
X121687593Y-98793333D02*
X121620926Y-98826666D01*
X121620926Y-98826666D02*
X121487593Y-98859999D01*
X121487593Y-98859999D02*
X121387593Y-98859999D01*
X121387593Y-98859999D02*
X121254260Y-98826666D01*
X121254260Y-98826666D02*
X121187593Y-98793333D01*
X121187593Y-98793333D02*
X121120926Y-98726666D01*
X121120926Y-98726666D02*
X121087593Y-98626666D01*
X121087593Y-98626666D02*
X121087593Y-98559999D01*
X121087593Y-98559999D02*
X121120926Y-98459999D01*
X121120926Y-98459999D02*
X121154260Y-98426666D01*
X121787593Y-98093333D02*
X121787593Y-97959999D01*
X121787593Y-97959999D02*
X121754260Y-97893333D01*
X121754260Y-97893333D02*
X121720926Y-97859999D01*
X121720926Y-97859999D02*
X121620926Y-97793333D01*
X121620926Y-97793333D02*
X121487593Y-97759999D01*
X121487593Y-97759999D02*
X121220926Y-97759999D01*
X121220926Y-97759999D02*
X121154260Y-97793333D01*
X121154260Y-97793333D02*
X121120926Y-97826666D01*
X121120926Y-97826666D02*
X121087593Y-97893333D01*
X121087593Y-97893333D02*
X121087593Y-98026666D01*
X121087593Y-98026666D02*
X121120926Y-98093333D01*
X121120926Y-98093333D02*
X121154260Y-98126666D01*
X121154260Y-98126666D02*
X121220926Y-98159999D01*
X121220926Y-98159999D02*
X121387593Y-98159999D01*
X121387593Y-98159999D02*
X121454260Y-98126666D01*
X121454260Y-98126666D02*
X121487593Y-98093333D01*
X121487593Y-98093333D02*
X121520926Y-98026666D01*
X121520926Y-98026666D02*
X121520926Y-97893333D01*
X121520926Y-97893333D02*
X121487593Y-97826666D01*
X121487593Y-97826666D02*
X121454260Y-97793333D01*
X121454260Y-97793333D02*
X121387593Y-97759999D01*
X119447593Y-92653333D02*
X118747593Y-92653333D01*
X119380926Y-91920000D02*
X119414260Y-91953333D01*
X119414260Y-91953333D02*
X119447593Y-92053333D01*
X119447593Y-92053333D02*
X119447593Y-92120000D01*
X119447593Y-92120000D02*
X119414260Y-92220000D01*
X119414260Y-92220000D02*
X119347593Y-92286667D01*
X119347593Y-92286667D02*
X119280926Y-92320000D01*
X119280926Y-92320000D02*
X119147593Y-92353333D01*
X119147593Y-92353333D02*
X119047593Y-92353333D01*
X119047593Y-92353333D02*
X118914260Y-92320000D01*
X118914260Y-92320000D02*
X118847593Y-92286667D01*
X118847593Y-92286667D02*
X118780926Y-92220000D01*
X118780926Y-92220000D02*
X118747593Y-92120000D01*
X118747593Y-92120000D02*
X118747593Y-92053333D01*
X118747593Y-92053333D02*
X118780926Y-91953333D01*
X118780926Y-91953333D02*
X118814260Y-91920000D01*
X119447593Y-91253333D02*
X119447593Y-91653333D01*
X119447593Y-91453333D02*
X118747593Y-91453333D01*
X118747593Y-91453333D02*
X118847593Y-91520000D01*
X118847593Y-91520000D02*
X118914260Y-91586667D01*
X118914260Y-91586667D02*
X118947593Y-91653333D01*
X138187593Y-100483333D02*
X138687593Y-100483333D01*
X138687593Y-100483333D02*
X138787593Y-100516666D01*
X138787593Y-100516666D02*
X138854260Y-100583333D01*
X138854260Y-100583333D02*
X138887593Y-100683333D01*
X138887593Y-100683333D02*
X138887593Y-100750000D01*
X138420926Y-99850000D02*
X138887593Y-99850000D01*
X138154260Y-100016667D02*
X138654260Y-100183333D01*
X138654260Y-100183333D02*
X138654260Y-99750000D01*
X137047593Y-116596666D02*
X136714260Y-116829999D01*
X137047593Y-116996666D02*
X136347593Y-116996666D01*
X136347593Y-116996666D02*
X136347593Y-116729999D01*
X136347593Y-116729999D02*
X136380926Y-116663333D01*
X136380926Y-116663333D02*
X136414260Y-116629999D01*
X136414260Y-116629999D02*
X136480926Y-116596666D01*
X136480926Y-116596666D02*
X136580926Y-116596666D01*
X136580926Y-116596666D02*
X136647593Y-116629999D01*
X136647593Y-116629999D02*
X136680926Y-116663333D01*
X136680926Y-116663333D02*
X136714260Y-116729999D01*
X136714260Y-116729999D02*
X136714260Y-116996666D01*
X137047593Y-116263333D02*
X137047593Y-116129999D01*
X137047593Y-116129999D02*
X137014260Y-116063333D01*
X137014260Y-116063333D02*
X136980926Y-116029999D01*
X136980926Y-116029999D02*
X136880926Y-115963333D01*
X136880926Y-115963333D02*
X136747593Y-115929999D01*
X136747593Y-115929999D02*
X136480926Y-115929999D01*
X136480926Y-115929999D02*
X136414260Y-115963333D01*
X136414260Y-115963333D02*
X136380926Y-115996666D01*
X136380926Y-115996666D02*
X136347593Y-116063333D01*
X136347593Y-116063333D02*
X136347593Y-116196666D01*
X136347593Y-116196666D02*
X136380926Y-116263333D01*
X136380926Y-116263333D02*
X136414260Y-116296666D01*
X136414260Y-116296666D02*
X136480926Y-116329999D01*
X136480926Y-116329999D02*
X136647593Y-116329999D01*
X136647593Y-116329999D02*
X136714260Y-116296666D01*
X136714260Y-116296666D02*
X136747593Y-116263333D01*
X136747593Y-116263333D02*
X136780926Y-116196666D01*
X136780926Y-116196666D02*
X136780926Y-116063333D01*
X136780926Y-116063333D02*
X136747593Y-115996666D01*
X136747593Y-115996666D02*
X136714260Y-115963333D01*
X136714260Y-115963333D02*
X136647593Y-115929999D01*
X137120926Y-105920000D02*
X137154260Y-105953333D01*
X137154260Y-105953333D02*
X137187593Y-106053333D01*
X137187593Y-106053333D02*
X137187593Y-106120000D01*
X137187593Y-106120000D02*
X137154260Y-106220000D01*
X137154260Y-106220000D02*
X137087593Y-106286667D01*
X137087593Y-106286667D02*
X137020926Y-106320000D01*
X137020926Y-106320000D02*
X136887593Y-106353333D01*
X136887593Y-106353333D02*
X136787593Y-106353333D01*
X136787593Y-106353333D02*
X136654260Y-106320000D01*
X136654260Y-106320000D02*
X136587593Y-106286667D01*
X136587593Y-106286667D02*
X136520926Y-106220000D01*
X136520926Y-106220000D02*
X136487593Y-106120000D01*
X136487593Y-106120000D02*
X136487593Y-106053333D01*
X136487593Y-106053333D02*
X136520926Y-105953333D01*
X136520926Y-105953333D02*
X136554260Y-105920000D01*
X137187593Y-105253333D02*
X137187593Y-105653333D01*
X137187593Y-105453333D02*
X136487593Y-105453333D01*
X136487593Y-105453333D02*
X136587593Y-105520000D01*
X136587593Y-105520000D02*
X136654260Y-105586667D01*
X136654260Y-105586667D02*
X136687593Y-105653333D01*
X137187593Y-104586666D02*
X137187593Y-104986666D01*
X137187593Y-104786666D02*
X136487593Y-104786666D01*
X136487593Y-104786666D02*
X136587593Y-104853333D01*
X136587593Y-104853333D02*
X136654260Y-104920000D01*
X136654260Y-104920000D02*
X136687593Y-104986666D01*
X124492593Y-111266666D02*
X123792593Y-111266666D01*
X123792593Y-111266666D02*
X123792593Y-111099999D01*
X123792593Y-111099999D02*
X123825926Y-110999999D01*
X123825926Y-110999999D02*
X123892593Y-110933333D01*
X123892593Y-110933333D02*
X123959260Y-110899999D01*
X123959260Y-110899999D02*
X124092593Y-110866666D01*
X124092593Y-110866666D02*
X124192593Y-110866666D01*
X124192593Y-110866666D02*
X124325926Y-110899999D01*
X124325926Y-110899999D02*
X124392593Y-110933333D01*
X124392593Y-110933333D02*
X124459260Y-110999999D01*
X124459260Y-110999999D02*
X124492593Y-111099999D01*
X124492593Y-111099999D02*
X124492593Y-111266666D01*
X124025926Y-110266666D02*
X124492593Y-110266666D01*
X123759260Y-110433333D02*
X124259260Y-110599999D01*
X124259260Y-110599999D02*
X124259260Y-110166666D01*
X124697593Y-98720000D02*
X124364260Y-98953333D01*
X124697593Y-99120000D02*
X123997593Y-99120000D01*
X123997593Y-99120000D02*
X123997593Y-98853333D01*
X123997593Y-98853333D02*
X124030926Y-98786667D01*
X124030926Y-98786667D02*
X124064260Y-98753333D01*
X124064260Y-98753333D02*
X124130926Y-98720000D01*
X124130926Y-98720000D02*
X124230926Y-98720000D01*
X124230926Y-98720000D02*
X124297593Y-98753333D01*
X124297593Y-98753333D02*
X124330926Y-98786667D01*
X124330926Y-98786667D02*
X124364260Y-98853333D01*
X124364260Y-98853333D02*
X124364260Y-99120000D01*
X124697593Y-98053333D02*
X124697593Y-98453333D01*
X124697593Y-98253333D02*
X123997593Y-98253333D01*
X123997593Y-98253333D02*
X124097593Y-98320000D01*
X124097593Y-98320000D02*
X124164260Y-98386667D01*
X124164260Y-98386667D02*
X124197593Y-98453333D01*
X124230926Y-97453333D02*
X124697593Y-97453333D01*
X123964260Y-97620000D02*
X124464260Y-97786666D01*
X124464260Y-97786666D02*
X124464260Y-97353333D01*
X124477593Y-106640000D02*
X124144260Y-106873333D01*
X124477593Y-107040000D02*
X123777593Y-107040000D01*
X123777593Y-107040000D02*
X123777593Y-106773333D01*
X123777593Y-106773333D02*
X123810926Y-106706667D01*
X123810926Y-106706667D02*
X123844260Y-106673333D01*
X123844260Y-106673333D02*
X123910926Y-106640000D01*
X123910926Y-106640000D02*
X124010926Y-106640000D01*
X124010926Y-106640000D02*
X124077593Y-106673333D01*
X124077593Y-106673333D02*
X124110926Y-106706667D01*
X124110926Y-106706667D02*
X124144260Y-106773333D01*
X124144260Y-106773333D02*
X124144260Y-107040000D01*
X124477593Y-105973333D02*
X124477593Y-106373333D01*
X124477593Y-106173333D02*
X123777593Y-106173333D01*
X123777593Y-106173333D02*
X123877593Y-106240000D01*
X123877593Y-106240000D02*
X123944260Y-106306667D01*
X123944260Y-106306667D02*
X123977593Y-106373333D01*
X124477593Y-105306666D02*
X124477593Y-105706666D01*
X124477593Y-105506666D02*
X123777593Y-105506666D01*
X123777593Y-105506666D02*
X123877593Y-105573333D01*
X123877593Y-105573333D02*
X123944260Y-105640000D01*
X123944260Y-105640000D02*
X123977593Y-105706666D01*
X127707593Y-92603333D02*
X128274260Y-92603333D01*
X128274260Y-92603333D02*
X128340926Y-92570000D01*
X128340926Y-92570000D02*
X128374260Y-92536666D01*
X128374260Y-92536666D02*
X128407593Y-92470000D01*
X128407593Y-92470000D02*
X128407593Y-92336666D01*
X128407593Y-92336666D02*
X128374260Y-92270000D01*
X128374260Y-92270000D02*
X128340926Y-92236666D01*
X128340926Y-92236666D02*
X128274260Y-92203333D01*
X128274260Y-92203333D02*
X127707593Y-92203333D01*
X127707593Y-91936667D02*
X127707593Y-91503333D01*
X127707593Y-91503333D02*
X127974260Y-91736667D01*
X127974260Y-91736667D02*
X127974260Y-91636667D01*
X127974260Y-91636667D02*
X128007593Y-91570000D01*
X128007593Y-91570000D02*
X128040926Y-91536667D01*
X128040926Y-91536667D02*
X128107593Y-91503333D01*
X128107593Y-91503333D02*
X128274260Y-91503333D01*
X128274260Y-91503333D02*
X128340926Y-91536667D01*
X128340926Y-91536667D02*
X128374260Y-91570000D01*
X128374260Y-91570000D02*
X128407593Y-91636667D01*
X128407593Y-91636667D02*
X128407593Y-91836667D01*
X128407593Y-91836667D02*
X128374260Y-91903333D01*
X128374260Y-91903333D02*
X128340926Y-91936667D01*
X115497593Y-81926666D02*
X115164260Y-82159999D01*
X115497593Y-82326666D02*
X114797593Y-82326666D01*
X114797593Y-82326666D02*
X114797593Y-82059999D01*
X114797593Y-82059999D02*
X114830926Y-81993333D01*
X114830926Y-81993333D02*
X114864260Y-81959999D01*
X114864260Y-81959999D02*
X114930926Y-81926666D01*
X114930926Y-81926666D02*
X115030926Y-81926666D01*
X115030926Y-81926666D02*
X115097593Y-81959999D01*
X115097593Y-81959999D02*
X115130926Y-81993333D01*
X115130926Y-81993333D02*
X115164260Y-82059999D01*
X115164260Y-82059999D02*
X115164260Y-82326666D01*
X115497593Y-81259999D02*
X115497593Y-81659999D01*
X115497593Y-81459999D02*
X114797593Y-81459999D01*
X114797593Y-81459999D02*
X114897593Y-81526666D01*
X114897593Y-81526666D02*
X114964260Y-81593333D01*
X114964260Y-81593333D02*
X114997593Y-81659999D01*
X139617593Y-117226666D02*
X138917593Y-117226666D01*
X138917593Y-117226666D02*
X138917593Y-117059999D01*
X138917593Y-117059999D02*
X138950926Y-116959999D01*
X138950926Y-116959999D02*
X139017593Y-116893333D01*
X139017593Y-116893333D02*
X139084260Y-116859999D01*
X139084260Y-116859999D02*
X139217593Y-116826666D01*
X139217593Y-116826666D02*
X139317593Y-116826666D01*
X139317593Y-116826666D02*
X139450926Y-116859999D01*
X139450926Y-116859999D02*
X139517593Y-116893333D01*
X139517593Y-116893333D02*
X139584260Y-116959999D01*
X139584260Y-116959999D02*
X139617593Y-117059999D01*
X139617593Y-117059999D02*
X139617593Y-117226666D01*
X138984260Y-116559999D02*
X138950926Y-116526666D01*
X138950926Y-116526666D02*
X138917593Y-116459999D01*
X138917593Y-116459999D02*
X138917593Y-116293333D01*
X138917593Y-116293333D02*
X138950926Y-116226666D01*
X138950926Y-116226666D02*
X138984260Y-116193333D01*
X138984260Y-116193333D02*
X139050926Y-116159999D01*
X139050926Y-116159999D02*
X139117593Y-116159999D01*
X139117593Y-116159999D02*
X139217593Y-116193333D01*
X139217593Y-116193333D02*
X139617593Y-116593333D01*
X139617593Y-116593333D02*
X139617593Y-116159999D01*
X138377593Y-93023333D02*
X137677593Y-93023333D01*
X138310926Y-92290000D02*
X138344260Y-92323333D01*
X138344260Y-92323333D02*
X138377593Y-92423333D01*
X138377593Y-92423333D02*
X138377593Y-92490000D01*
X138377593Y-92490000D02*
X138344260Y-92590000D01*
X138344260Y-92590000D02*
X138277593Y-92656667D01*
X138277593Y-92656667D02*
X138210926Y-92690000D01*
X138210926Y-92690000D02*
X138077593Y-92723333D01*
X138077593Y-92723333D02*
X137977593Y-92723333D01*
X137977593Y-92723333D02*
X137844260Y-92690000D01*
X137844260Y-92690000D02*
X137777593Y-92656667D01*
X137777593Y-92656667D02*
X137710926Y-92590000D01*
X137710926Y-92590000D02*
X137677593Y-92490000D01*
X137677593Y-92490000D02*
X137677593Y-92423333D01*
X137677593Y-92423333D02*
X137710926Y-92323333D01*
X137710926Y-92323333D02*
X137744260Y-92290000D01*
X137744260Y-92023333D02*
X137710926Y-91990000D01*
X137710926Y-91990000D02*
X137677593Y-91923333D01*
X137677593Y-91923333D02*
X137677593Y-91756667D01*
X137677593Y-91756667D02*
X137710926Y-91690000D01*
X137710926Y-91690000D02*
X137744260Y-91656667D01*
X137744260Y-91656667D02*
X137810926Y-91623333D01*
X137810926Y-91623333D02*
X137877593Y-91623333D01*
X137877593Y-91623333D02*
X137977593Y-91656667D01*
X137977593Y-91656667D02*
X138377593Y-92056667D01*
X138377593Y-92056667D02*
X138377593Y-91623333D01*
D10*
X114268490Y-98393333D02*
X114292300Y-98417142D01*
X114292300Y-98417142D02*
X114316109Y-98488571D01*
X114316109Y-98488571D02*
X114316109Y-98536190D01*
X114316109Y-98536190D02*
X114292300Y-98607618D01*
X114292300Y-98607618D02*
X114244680Y-98655237D01*
X114244680Y-98655237D02*
X114197061Y-98679047D01*
X114197061Y-98679047D02*
X114101823Y-98702856D01*
X114101823Y-98702856D02*
X114030395Y-98702856D01*
X114030395Y-98702856D02*
X113935157Y-98679047D01*
X113935157Y-98679047D02*
X113887538Y-98655237D01*
X113887538Y-98655237D02*
X113839919Y-98607618D01*
X113839919Y-98607618D02*
X113816109Y-98536190D01*
X113816109Y-98536190D02*
X113816109Y-98488571D01*
X113816109Y-98488571D02*
X113839919Y-98417142D01*
X113839919Y-98417142D02*
X113863728Y-98393333D01*
X113816109Y-98226666D02*
X113816109Y-97893333D01*
X113816109Y-97893333D02*
X114316109Y-98107618D01*
D12*
X143373333Y-92007593D02*
X143140000Y-91674260D01*
X142973333Y-92007593D02*
X142973333Y-91307593D01*
X142973333Y-91307593D02*
X143240000Y-91307593D01*
X143240000Y-91307593D02*
X143306667Y-91340926D01*
X143306667Y-91340926D02*
X143340000Y-91374260D01*
X143340000Y-91374260D02*
X143373333Y-91440926D01*
X143373333Y-91440926D02*
X143373333Y-91540926D01*
X143373333Y-91540926D02*
X143340000Y-91607593D01*
X143340000Y-91607593D02*
X143306667Y-91640926D01*
X143306667Y-91640926D02*
X143240000Y-91674260D01*
X143240000Y-91674260D02*
X142973333Y-91674260D01*
X143606667Y-91307593D02*
X144073333Y-91307593D01*
X144073333Y-91307593D02*
X143773333Y-92007593D01*
X122036666Y-127817593D02*
X122036666Y-128317593D01*
X122036666Y-128317593D02*
X122003333Y-128417593D01*
X122003333Y-128417593D02*
X121936666Y-128484260D01*
X121936666Y-128484260D02*
X121836666Y-128517593D01*
X121836666Y-128517593D02*
X121770000Y-128517593D01*
X122303333Y-127817593D02*
X122736666Y-127817593D01*
X122736666Y-127817593D02*
X122503333Y-128084260D01*
X122503333Y-128084260D02*
X122603333Y-128084260D01*
X122603333Y-128084260D02*
X122669999Y-128117593D01*
X122669999Y-128117593D02*
X122703333Y-128150926D01*
X122703333Y-128150926D02*
X122736666Y-128217593D01*
X122736666Y-128217593D02*
X122736666Y-128384260D01*
X122736666Y-128384260D02*
X122703333Y-128450926D01*
X122703333Y-128450926D02*
X122669999Y-128484260D01*
X122669999Y-128484260D02*
X122603333Y-128517593D01*
X122603333Y-128517593D02*
X122403333Y-128517593D01*
X122403333Y-128517593D02*
X122336666Y-128484260D01*
X122336666Y-128484260D02*
X122303333Y-128450926D01*
X135276666Y-127967593D02*
X135276666Y-128467593D01*
X135276666Y-128467593D02*
X135243333Y-128567593D01*
X135243333Y-128567593D02*
X135176666Y-128634260D01*
X135176666Y-128634260D02*
X135076666Y-128667593D01*
X135076666Y-128667593D02*
X135010000Y-128667593D01*
X135976666Y-128667593D02*
X135576666Y-128667593D01*
X135776666Y-128667593D02*
X135776666Y-127967593D01*
X135776666Y-127967593D02*
X135709999Y-128067593D01*
X135709999Y-128067593D02*
X135643333Y-128134260D01*
X135643333Y-128134260D02*
X135576666Y-128167593D01*
X151016666Y-89087593D02*
X151016666Y-89587593D01*
X151016666Y-89587593D02*
X150983333Y-89687593D01*
X150983333Y-89687593D02*
X150916666Y-89754260D01*
X150916666Y-89754260D02*
X150816666Y-89787593D01*
X150816666Y-89787593D02*
X150750000Y-89787593D01*
X151649999Y-89087593D02*
X151516666Y-89087593D01*
X151516666Y-89087593D02*
X151449999Y-89120926D01*
X151449999Y-89120926D02*
X151416666Y-89154260D01*
X151416666Y-89154260D02*
X151349999Y-89254260D01*
X151349999Y-89254260D02*
X151316666Y-89387593D01*
X151316666Y-89387593D02*
X151316666Y-89654260D01*
X151316666Y-89654260D02*
X151349999Y-89720926D01*
X151349999Y-89720926D02*
X151383333Y-89754260D01*
X151383333Y-89754260D02*
X151449999Y-89787593D01*
X151449999Y-89787593D02*
X151583333Y-89787593D01*
X151583333Y-89787593D02*
X151649999Y-89754260D01*
X151649999Y-89754260D02*
X151683333Y-89720926D01*
X151683333Y-89720926D02*
X151716666Y-89654260D01*
X151716666Y-89654260D02*
X151716666Y-89487593D01*
X151716666Y-89487593D02*
X151683333Y-89420926D01*
X151683333Y-89420926D02*
X151649999Y-89387593D01*
X151649999Y-89387593D02*
X151583333Y-89354260D01*
X151583333Y-89354260D02*
X151449999Y-89354260D01*
X151449999Y-89354260D02*
X151383333Y-89387593D01*
X151383333Y-89387593D02*
X151349999Y-89420926D01*
X151349999Y-89420926D02*
X151316666Y-89487593D01*
X116090926Y-86126666D02*
X116124260Y-86159999D01*
X116124260Y-86159999D02*
X116157593Y-86259999D01*
X116157593Y-86259999D02*
X116157593Y-86326666D01*
X116157593Y-86326666D02*
X116124260Y-86426666D01*
X116124260Y-86426666D02*
X116057593Y-86493333D01*
X116057593Y-86493333D02*
X115990926Y-86526666D01*
X115990926Y-86526666D02*
X115857593Y-86559999D01*
X115857593Y-86559999D02*
X115757593Y-86559999D01*
X115757593Y-86559999D02*
X115624260Y-86526666D01*
X115624260Y-86526666D02*
X115557593Y-86493333D01*
X115557593Y-86493333D02*
X115490926Y-86426666D01*
X115490926Y-86426666D02*
X115457593Y-86326666D01*
X115457593Y-86326666D02*
X115457593Y-86259999D01*
X115457593Y-86259999D02*
X115490926Y-86159999D01*
X115490926Y-86159999D02*
X115524260Y-86126666D01*
X115457593Y-85893333D02*
X115457593Y-85459999D01*
X115457593Y-85459999D02*
X115724260Y-85693333D01*
X115724260Y-85693333D02*
X115724260Y-85593333D01*
X115724260Y-85593333D02*
X115757593Y-85526666D01*
X115757593Y-85526666D02*
X115790926Y-85493333D01*
X115790926Y-85493333D02*
X115857593Y-85459999D01*
X115857593Y-85459999D02*
X116024260Y-85459999D01*
X116024260Y-85459999D02*
X116090926Y-85493333D01*
X116090926Y-85493333D02*
X116124260Y-85526666D01*
X116124260Y-85526666D02*
X116157593Y-85593333D01*
X116157593Y-85593333D02*
X116157593Y-85793333D01*
X116157593Y-85793333D02*
X116124260Y-85859999D01*
X116124260Y-85859999D02*
X116090926Y-85893333D01*
X129297593Y-116776666D02*
X128597593Y-116776666D01*
X128597593Y-116776666D02*
X128597593Y-116609999D01*
X128597593Y-116609999D02*
X128630926Y-116509999D01*
X128630926Y-116509999D02*
X128697593Y-116443333D01*
X128697593Y-116443333D02*
X128764260Y-116409999D01*
X128764260Y-116409999D02*
X128897593Y-116376666D01*
X128897593Y-116376666D02*
X128997593Y-116376666D01*
X128997593Y-116376666D02*
X129130926Y-116409999D01*
X129130926Y-116409999D02*
X129197593Y-116443333D01*
X129197593Y-116443333D02*
X129264260Y-116509999D01*
X129264260Y-116509999D02*
X129297593Y-116609999D01*
X129297593Y-116609999D02*
X129297593Y-116776666D01*
X129297593Y-115709999D02*
X129297593Y-116109999D01*
X129297593Y-115909999D02*
X128597593Y-115909999D01*
X128597593Y-115909999D02*
X128697593Y-115976666D01*
X128697593Y-115976666D02*
X128764260Y-116043333D01*
X128764260Y-116043333D02*
X128797593Y-116109999D01*
X131600926Y-90690000D02*
X131634260Y-90723333D01*
X131634260Y-90723333D02*
X131667593Y-90823333D01*
X131667593Y-90823333D02*
X131667593Y-90890000D01*
X131667593Y-90890000D02*
X131634260Y-90990000D01*
X131634260Y-90990000D02*
X131567593Y-91056667D01*
X131567593Y-91056667D02*
X131500926Y-91090000D01*
X131500926Y-91090000D02*
X131367593Y-91123333D01*
X131367593Y-91123333D02*
X131267593Y-91123333D01*
X131267593Y-91123333D02*
X131134260Y-91090000D01*
X131134260Y-91090000D02*
X131067593Y-91056667D01*
X131067593Y-91056667D02*
X131000926Y-90990000D01*
X131000926Y-90990000D02*
X130967593Y-90890000D01*
X130967593Y-90890000D02*
X130967593Y-90823333D01*
X130967593Y-90823333D02*
X131000926Y-90723333D01*
X131000926Y-90723333D02*
X131034260Y-90690000D01*
X131667593Y-90023333D02*
X131667593Y-90423333D01*
X131667593Y-90223333D02*
X130967593Y-90223333D01*
X130967593Y-90223333D02*
X131067593Y-90290000D01*
X131067593Y-90290000D02*
X131134260Y-90356667D01*
X131134260Y-90356667D02*
X131167593Y-90423333D01*
X130967593Y-89790000D02*
X130967593Y-89356666D01*
X130967593Y-89356666D02*
X131234260Y-89590000D01*
X131234260Y-89590000D02*
X131234260Y-89490000D01*
X131234260Y-89490000D02*
X131267593Y-89423333D01*
X131267593Y-89423333D02*
X131300926Y-89390000D01*
X131300926Y-89390000D02*
X131367593Y-89356666D01*
X131367593Y-89356666D02*
X131534260Y-89356666D01*
X131534260Y-89356666D02*
X131600926Y-89390000D01*
X131600926Y-89390000D02*
X131634260Y-89423333D01*
X131634260Y-89423333D02*
X131667593Y-89490000D01*
X131667593Y-89490000D02*
X131667593Y-89690000D01*
X131667593Y-89690000D02*
X131634260Y-89756666D01*
X131634260Y-89756666D02*
X131600926Y-89790000D01*
X120117593Y-106610000D02*
X119784260Y-106843333D01*
X120117593Y-107010000D02*
X119417593Y-107010000D01*
X119417593Y-107010000D02*
X119417593Y-106743333D01*
X119417593Y-106743333D02*
X119450926Y-106676667D01*
X119450926Y-106676667D02*
X119484260Y-106643333D01*
X119484260Y-106643333D02*
X119550926Y-106610000D01*
X119550926Y-106610000D02*
X119650926Y-106610000D01*
X119650926Y-106610000D02*
X119717593Y-106643333D01*
X119717593Y-106643333D02*
X119750926Y-106676667D01*
X119750926Y-106676667D02*
X119784260Y-106743333D01*
X119784260Y-106743333D02*
X119784260Y-107010000D01*
X120117593Y-105943333D02*
X120117593Y-106343333D01*
X120117593Y-106143333D02*
X119417593Y-106143333D01*
X119417593Y-106143333D02*
X119517593Y-106210000D01*
X119517593Y-106210000D02*
X119584260Y-106276667D01*
X119584260Y-106276667D02*
X119617593Y-106343333D01*
X119484260Y-105676666D02*
X119450926Y-105643333D01*
X119450926Y-105643333D02*
X119417593Y-105576666D01*
X119417593Y-105576666D02*
X119417593Y-105410000D01*
X119417593Y-105410000D02*
X119450926Y-105343333D01*
X119450926Y-105343333D02*
X119484260Y-105310000D01*
X119484260Y-105310000D02*
X119550926Y-105276666D01*
X119550926Y-105276666D02*
X119617593Y-105276666D01*
X119617593Y-105276666D02*
X119717593Y-105310000D01*
X119717593Y-105310000D02*
X120117593Y-105710000D01*
X120117593Y-105710000D02*
X120117593Y-105276666D01*
X143373333Y-89627593D02*
X143140000Y-89294260D01*
X142973333Y-89627593D02*
X142973333Y-88927593D01*
X142973333Y-88927593D02*
X143240000Y-88927593D01*
X143240000Y-88927593D02*
X143306667Y-88960926D01*
X143306667Y-88960926D02*
X143340000Y-88994260D01*
X143340000Y-88994260D02*
X143373333Y-89060926D01*
X143373333Y-89060926D02*
X143373333Y-89160926D01*
X143373333Y-89160926D02*
X143340000Y-89227593D01*
X143340000Y-89227593D02*
X143306667Y-89260926D01*
X143306667Y-89260926D02*
X143240000Y-89294260D01*
X143240000Y-89294260D02*
X142973333Y-89294260D01*
X143973333Y-88927593D02*
X143840000Y-88927593D01*
X143840000Y-88927593D02*
X143773333Y-88960926D01*
X143773333Y-88960926D02*
X143740000Y-88994260D01*
X143740000Y-88994260D02*
X143673333Y-89094260D01*
X143673333Y-89094260D02*
X143640000Y-89227593D01*
X143640000Y-89227593D02*
X143640000Y-89494260D01*
X143640000Y-89494260D02*
X143673333Y-89560926D01*
X143673333Y-89560926D02*
X143706667Y-89594260D01*
X143706667Y-89594260D02*
X143773333Y-89627593D01*
X143773333Y-89627593D02*
X143906667Y-89627593D01*
X143906667Y-89627593D02*
X143973333Y-89594260D01*
X143973333Y-89594260D02*
X144006667Y-89560926D01*
X144006667Y-89560926D02*
X144040000Y-89494260D01*
X144040000Y-89494260D02*
X144040000Y-89327593D01*
X144040000Y-89327593D02*
X144006667Y-89260926D01*
X144006667Y-89260926D02*
X143973333Y-89227593D01*
X143973333Y-89227593D02*
X143906667Y-89194260D01*
X143906667Y-89194260D02*
X143773333Y-89194260D01*
X143773333Y-89194260D02*
X143706667Y-89227593D01*
X143706667Y-89227593D02*
X143673333Y-89260926D01*
X143673333Y-89260926D02*
X143640000Y-89327593D01*
X111767593Y-98386666D02*
X111434260Y-98619999D01*
X111767593Y-98786666D02*
X111067593Y-98786666D01*
X111067593Y-98786666D02*
X111067593Y-98519999D01*
X111067593Y-98519999D02*
X111100926Y-98453333D01*
X111100926Y-98453333D02*
X111134260Y-98419999D01*
X111134260Y-98419999D02*
X111200926Y-98386666D01*
X111200926Y-98386666D02*
X111300926Y-98386666D01*
X111300926Y-98386666D02*
X111367593Y-98419999D01*
X111367593Y-98419999D02*
X111400926Y-98453333D01*
X111400926Y-98453333D02*
X111434260Y-98519999D01*
X111434260Y-98519999D02*
X111434260Y-98786666D01*
X111134260Y-98119999D02*
X111100926Y-98086666D01*
X111100926Y-98086666D02*
X111067593Y-98019999D01*
X111067593Y-98019999D02*
X111067593Y-97853333D01*
X111067593Y-97853333D02*
X111100926Y-97786666D01*
X111100926Y-97786666D02*
X111134260Y-97753333D01*
X111134260Y-97753333D02*
X111200926Y-97719999D01*
X111200926Y-97719999D02*
X111267593Y-97719999D01*
X111267593Y-97719999D02*
X111367593Y-97753333D01*
X111367593Y-97753333D02*
X111767593Y-98153333D01*
X111767593Y-98153333D02*
X111767593Y-97719999D01*
D10*
X121366109Y-86183333D02*
X121128014Y-86349999D01*
X121366109Y-86469047D02*
X120866109Y-86469047D01*
X120866109Y-86469047D02*
X120866109Y-86278571D01*
X120866109Y-86278571D02*
X120889919Y-86230952D01*
X120889919Y-86230952D02*
X120913728Y-86207142D01*
X120913728Y-86207142D02*
X120961347Y-86183333D01*
X120961347Y-86183333D02*
X121032776Y-86183333D01*
X121032776Y-86183333D02*
X121080395Y-86207142D01*
X121080395Y-86207142D02*
X121104204Y-86230952D01*
X121104204Y-86230952D02*
X121128014Y-86278571D01*
X121128014Y-86278571D02*
X121128014Y-86469047D01*
X120866109Y-85730952D02*
X120866109Y-85969047D01*
X120866109Y-85969047D02*
X121104204Y-85992856D01*
X121104204Y-85992856D02*
X121080395Y-85969047D01*
X121080395Y-85969047D02*
X121056585Y-85921428D01*
X121056585Y-85921428D02*
X121056585Y-85802380D01*
X121056585Y-85802380D02*
X121080395Y-85754761D01*
X121080395Y-85754761D02*
X121104204Y-85730952D01*
X121104204Y-85730952D02*
X121151823Y-85707142D01*
X121151823Y-85707142D02*
X121270871Y-85707142D01*
X121270871Y-85707142D02*
X121318490Y-85730952D01*
X121318490Y-85730952D02*
X121342300Y-85754761D01*
X121342300Y-85754761D02*
X121366109Y-85802380D01*
X121366109Y-85802380D02*
X121366109Y-85921428D01*
X121366109Y-85921428D02*
X121342300Y-85969047D01*
X121342300Y-85969047D02*
X121318490Y-85992856D01*
D12*
X140897593Y-86226666D02*
X140564260Y-86459999D01*
X140897593Y-86626666D02*
X140197593Y-86626666D01*
X140197593Y-86626666D02*
X140197593Y-86359999D01*
X140197593Y-86359999D02*
X140230926Y-86293333D01*
X140230926Y-86293333D02*
X140264260Y-86259999D01*
X140264260Y-86259999D02*
X140330926Y-86226666D01*
X140330926Y-86226666D02*
X140430926Y-86226666D01*
X140430926Y-86226666D02*
X140497593Y-86259999D01*
X140497593Y-86259999D02*
X140530926Y-86293333D01*
X140530926Y-86293333D02*
X140564260Y-86359999D01*
X140564260Y-86359999D02*
X140564260Y-86626666D01*
X140197593Y-85993333D02*
X140197593Y-85559999D01*
X140197593Y-85559999D02*
X140464260Y-85793333D01*
X140464260Y-85793333D02*
X140464260Y-85693333D01*
X140464260Y-85693333D02*
X140497593Y-85626666D01*
X140497593Y-85626666D02*
X140530926Y-85593333D01*
X140530926Y-85593333D02*
X140597593Y-85559999D01*
X140597593Y-85559999D02*
X140764260Y-85559999D01*
X140764260Y-85559999D02*
X140830926Y-85593333D01*
X140830926Y-85593333D02*
X140864260Y-85626666D01*
X140864260Y-85626666D02*
X140897593Y-85693333D01*
X140897593Y-85693333D02*
X140897593Y-85893333D01*
X140897593Y-85893333D02*
X140864260Y-85959999D01*
X140864260Y-85959999D02*
X140830926Y-85993333D01*
X116427593Y-106626666D02*
X116094260Y-106859999D01*
X116427593Y-107026666D02*
X115727593Y-107026666D01*
X115727593Y-107026666D02*
X115727593Y-106759999D01*
X115727593Y-106759999D02*
X115760926Y-106693333D01*
X115760926Y-106693333D02*
X115794260Y-106659999D01*
X115794260Y-106659999D02*
X115860926Y-106626666D01*
X115860926Y-106626666D02*
X115960926Y-106626666D01*
X115960926Y-106626666D02*
X116027593Y-106659999D01*
X116027593Y-106659999D02*
X116060926Y-106693333D01*
X116060926Y-106693333D02*
X116094260Y-106759999D01*
X116094260Y-106759999D02*
X116094260Y-107026666D01*
X115727593Y-106426666D02*
X116427593Y-106193333D01*
X116427593Y-106193333D02*
X115727593Y-105959999D01*
X116427593Y-105359999D02*
X116427593Y-105759999D01*
X116427593Y-105559999D02*
X115727593Y-105559999D01*
X115727593Y-105559999D02*
X115827593Y-105626666D01*
X115827593Y-105626666D02*
X115894260Y-105693333D01*
X115894260Y-105693333D02*
X115927593Y-105759999D01*
X142397593Y-116296666D02*
X142064260Y-116529999D01*
X142397593Y-116696666D02*
X141697593Y-116696666D01*
X141697593Y-116696666D02*
X141697593Y-116429999D01*
X141697593Y-116429999D02*
X141730926Y-116363333D01*
X141730926Y-116363333D02*
X141764260Y-116329999D01*
X141764260Y-116329999D02*
X141830926Y-116296666D01*
X141830926Y-116296666D02*
X141930926Y-116296666D01*
X141930926Y-116296666D02*
X141997593Y-116329999D01*
X141997593Y-116329999D02*
X142030926Y-116363333D01*
X142030926Y-116363333D02*
X142064260Y-116429999D01*
X142064260Y-116429999D02*
X142064260Y-116696666D01*
X141997593Y-115896666D02*
X141964260Y-115963333D01*
X141964260Y-115963333D02*
X141930926Y-115996666D01*
X141930926Y-115996666D02*
X141864260Y-116029999D01*
X141864260Y-116029999D02*
X141830926Y-116029999D01*
X141830926Y-116029999D02*
X141764260Y-115996666D01*
X141764260Y-115996666D02*
X141730926Y-115963333D01*
X141730926Y-115963333D02*
X141697593Y-115896666D01*
X141697593Y-115896666D02*
X141697593Y-115763333D01*
X141697593Y-115763333D02*
X141730926Y-115696666D01*
X141730926Y-115696666D02*
X141764260Y-115663333D01*
X141764260Y-115663333D02*
X141830926Y-115629999D01*
X141830926Y-115629999D02*
X141864260Y-115629999D01*
X141864260Y-115629999D02*
X141930926Y-115663333D01*
X141930926Y-115663333D02*
X141964260Y-115696666D01*
X141964260Y-115696666D02*
X141997593Y-115763333D01*
X141997593Y-115763333D02*
X141997593Y-115896666D01*
X141997593Y-115896666D02*
X142030926Y-115963333D01*
X142030926Y-115963333D02*
X142064260Y-115996666D01*
X142064260Y-115996666D02*
X142130926Y-116029999D01*
X142130926Y-116029999D02*
X142264260Y-116029999D01*
X142264260Y-116029999D02*
X142330926Y-115996666D01*
X142330926Y-115996666D02*
X142364260Y-115963333D01*
X142364260Y-115963333D02*
X142397593Y-115896666D01*
X142397593Y-115896666D02*
X142397593Y-115763333D01*
X142397593Y-115763333D02*
X142364260Y-115696666D01*
X142364260Y-115696666D02*
X142330926Y-115663333D01*
X142330926Y-115663333D02*
X142264260Y-115629999D01*
X142264260Y-115629999D02*
X142130926Y-115629999D01*
X142130926Y-115629999D02*
X142064260Y-115663333D01*
X142064260Y-115663333D02*
X142030926Y-115696666D01*
X142030926Y-115696666D02*
X141997593Y-115763333D01*
X134787593Y-116570000D02*
X134454260Y-116803333D01*
X134787593Y-116970000D02*
X134087593Y-116970000D01*
X134087593Y-116970000D02*
X134087593Y-116703333D01*
X134087593Y-116703333D02*
X134120926Y-116636667D01*
X134120926Y-116636667D02*
X134154260Y-116603333D01*
X134154260Y-116603333D02*
X134220926Y-116570000D01*
X134220926Y-116570000D02*
X134320926Y-116570000D01*
X134320926Y-116570000D02*
X134387593Y-116603333D01*
X134387593Y-116603333D02*
X134420926Y-116636667D01*
X134420926Y-116636667D02*
X134454260Y-116703333D01*
X134454260Y-116703333D02*
X134454260Y-116970000D01*
X134787593Y-115903333D02*
X134787593Y-116303333D01*
X134787593Y-116103333D02*
X134087593Y-116103333D01*
X134087593Y-116103333D02*
X134187593Y-116170000D01*
X134187593Y-116170000D02*
X134254260Y-116236667D01*
X134254260Y-116236667D02*
X134287593Y-116303333D01*
X134087593Y-115470000D02*
X134087593Y-115403333D01*
X134087593Y-115403333D02*
X134120926Y-115336666D01*
X134120926Y-115336666D02*
X134154260Y-115303333D01*
X134154260Y-115303333D02*
X134220926Y-115270000D01*
X134220926Y-115270000D02*
X134354260Y-115236666D01*
X134354260Y-115236666D02*
X134520926Y-115236666D01*
X134520926Y-115236666D02*
X134654260Y-115270000D01*
X134654260Y-115270000D02*
X134720926Y-115303333D01*
X134720926Y-115303333D02*
X134754260Y-115336666D01*
X134754260Y-115336666D02*
X134787593Y-115403333D01*
X134787593Y-115403333D02*
X134787593Y-115470000D01*
X134787593Y-115470000D02*
X134754260Y-115536666D01*
X134754260Y-115536666D02*
X134720926Y-115570000D01*
X134720926Y-115570000D02*
X134654260Y-115603333D01*
X134654260Y-115603333D02*
X134520926Y-115636666D01*
X134520926Y-115636666D02*
X134354260Y-115636666D01*
X134354260Y-115636666D02*
X134220926Y-115603333D01*
X134220926Y-115603333D02*
X134154260Y-115570000D01*
X134154260Y-115570000D02*
X134120926Y-115536666D01*
X134120926Y-115536666D02*
X134087593Y-115470000D01*
X130457593Y-98456667D02*
X130457593Y-98790000D01*
X130457593Y-98790000D02*
X129757593Y-98790000D01*
X129824260Y-98256666D02*
X129790926Y-98223333D01*
X129790926Y-98223333D02*
X129757593Y-98156666D01*
X129757593Y-98156666D02*
X129757593Y-97990000D01*
X129757593Y-97990000D02*
X129790926Y-97923333D01*
X129790926Y-97923333D02*
X129824260Y-97890000D01*
X129824260Y-97890000D02*
X129890926Y-97856666D01*
X129890926Y-97856666D02*
X129957593Y-97856666D01*
X129957593Y-97856666D02*
X130057593Y-97890000D01*
X130057593Y-97890000D02*
X130457593Y-98290000D01*
X130457593Y-98290000D02*
X130457593Y-97856666D01*
X136180926Y-98466666D02*
X136214260Y-98499999D01*
X136214260Y-98499999D02*
X136247593Y-98599999D01*
X136247593Y-98599999D02*
X136247593Y-98666666D01*
X136247593Y-98666666D02*
X136214260Y-98766666D01*
X136214260Y-98766666D02*
X136147593Y-98833333D01*
X136147593Y-98833333D02*
X136080926Y-98866666D01*
X136080926Y-98866666D02*
X135947593Y-98899999D01*
X135947593Y-98899999D02*
X135847593Y-98899999D01*
X135847593Y-98899999D02*
X135714260Y-98866666D01*
X135714260Y-98866666D02*
X135647593Y-98833333D01*
X135647593Y-98833333D02*
X135580926Y-98766666D01*
X135580926Y-98766666D02*
X135547593Y-98666666D01*
X135547593Y-98666666D02*
X135547593Y-98599999D01*
X135547593Y-98599999D02*
X135580926Y-98499999D01*
X135580926Y-98499999D02*
X135614260Y-98466666D01*
X135614260Y-98199999D02*
X135580926Y-98166666D01*
X135580926Y-98166666D02*
X135547593Y-98099999D01*
X135547593Y-98099999D02*
X135547593Y-97933333D01*
X135547593Y-97933333D02*
X135580926Y-97866666D01*
X135580926Y-97866666D02*
X135614260Y-97833333D01*
X135614260Y-97833333D02*
X135680926Y-97799999D01*
X135680926Y-97799999D02*
X135747593Y-97799999D01*
X135747593Y-97799999D02*
X135847593Y-97833333D01*
X135847593Y-97833333D02*
X136247593Y-98233333D01*
X136247593Y-98233333D02*
X136247593Y-97799999D01*
X130567593Y-86450000D02*
X130234260Y-86683333D01*
X130567593Y-86850000D02*
X129867593Y-86850000D01*
X129867593Y-86850000D02*
X129867593Y-86583333D01*
X129867593Y-86583333D02*
X129900926Y-86516667D01*
X129900926Y-86516667D02*
X129934260Y-86483333D01*
X129934260Y-86483333D02*
X130000926Y-86450000D01*
X130000926Y-86450000D02*
X130100926Y-86450000D01*
X130100926Y-86450000D02*
X130167593Y-86483333D01*
X130167593Y-86483333D02*
X130200926Y-86516667D01*
X130200926Y-86516667D02*
X130234260Y-86583333D01*
X130234260Y-86583333D02*
X130234260Y-86850000D01*
X130567593Y-85783333D02*
X130567593Y-86183333D01*
X130567593Y-85983333D02*
X129867593Y-85983333D01*
X129867593Y-85983333D02*
X129967593Y-86050000D01*
X129967593Y-86050000D02*
X130034260Y-86116667D01*
X130034260Y-86116667D02*
X130067593Y-86183333D01*
X129867593Y-85550000D02*
X129867593Y-85116666D01*
X129867593Y-85116666D02*
X130134260Y-85350000D01*
X130134260Y-85350000D02*
X130134260Y-85250000D01*
X130134260Y-85250000D02*
X130167593Y-85183333D01*
X130167593Y-85183333D02*
X130200926Y-85150000D01*
X130200926Y-85150000D02*
X130267593Y-85116666D01*
X130267593Y-85116666D02*
X130434260Y-85116666D01*
X130434260Y-85116666D02*
X130500926Y-85150000D01*
X130500926Y-85150000D02*
X130534260Y-85183333D01*
X130534260Y-85183333D02*
X130567593Y-85250000D01*
X130567593Y-85250000D02*
X130567593Y-85450000D01*
X130567593Y-85450000D02*
X130534260Y-85516666D01*
X130534260Y-85516666D02*
X130500926Y-85550000D01*
X137780926Y-86179166D02*
X137814260Y-86212499D01*
X137814260Y-86212499D02*
X137847593Y-86312499D01*
X137847593Y-86312499D02*
X137847593Y-86379166D01*
X137847593Y-86379166D02*
X137814260Y-86479166D01*
X137814260Y-86479166D02*
X137747593Y-86545833D01*
X137747593Y-86545833D02*
X137680926Y-86579166D01*
X137680926Y-86579166D02*
X137547593Y-86612499D01*
X137547593Y-86612499D02*
X137447593Y-86612499D01*
X137447593Y-86612499D02*
X137314260Y-86579166D01*
X137314260Y-86579166D02*
X137247593Y-86545833D01*
X137247593Y-86545833D02*
X137180926Y-86479166D01*
X137180926Y-86479166D02*
X137147593Y-86379166D01*
X137147593Y-86379166D02*
X137147593Y-86312499D01*
X137147593Y-86312499D02*
X137180926Y-86212499D01*
X137180926Y-86212499D02*
X137214260Y-86179166D01*
X137147593Y-85579166D02*
X137147593Y-85712499D01*
X137147593Y-85712499D02*
X137180926Y-85779166D01*
X137180926Y-85779166D02*
X137214260Y-85812499D01*
X137214260Y-85812499D02*
X137314260Y-85879166D01*
X137314260Y-85879166D02*
X137447593Y-85912499D01*
X137447593Y-85912499D02*
X137714260Y-85912499D01*
X137714260Y-85912499D02*
X137780926Y-85879166D01*
X137780926Y-85879166D02*
X137814260Y-85845833D01*
X137814260Y-85845833D02*
X137847593Y-85779166D01*
X137847593Y-85779166D02*
X137847593Y-85645833D01*
X137847593Y-85645833D02*
X137814260Y-85579166D01*
X137814260Y-85579166D02*
X137780926Y-85545833D01*
X137780926Y-85545833D02*
X137714260Y-85512499D01*
X137714260Y-85512499D02*
X137547593Y-85512499D01*
X137547593Y-85512499D02*
X137480926Y-85545833D01*
X137480926Y-85545833D02*
X137447593Y-85579166D01*
X137447593Y-85579166D02*
X137414260Y-85645833D01*
X137414260Y-85645833D02*
X137414260Y-85779166D01*
X137414260Y-85779166D02*
X137447593Y-85845833D01*
X137447593Y-85845833D02*
X137480926Y-85879166D01*
X137480926Y-85879166D02*
X137547593Y-85912499D01*
X127707593Y-98710000D02*
X127374260Y-98943333D01*
X127707593Y-99110000D02*
X127007593Y-99110000D01*
X127007593Y-99110000D02*
X127007593Y-98843333D01*
X127007593Y-98843333D02*
X127040926Y-98776667D01*
X127040926Y-98776667D02*
X127074260Y-98743333D01*
X127074260Y-98743333D02*
X127140926Y-98710000D01*
X127140926Y-98710000D02*
X127240926Y-98710000D01*
X127240926Y-98710000D02*
X127307593Y-98743333D01*
X127307593Y-98743333D02*
X127340926Y-98776667D01*
X127340926Y-98776667D02*
X127374260Y-98843333D01*
X127374260Y-98843333D02*
X127374260Y-99110000D01*
X127707593Y-98043333D02*
X127707593Y-98443333D01*
X127707593Y-98243333D02*
X127007593Y-98243333D01*
X127007593Y-98243333D02*
X127107593Y-98310000D01*
X127107593Y-98310000D02*
X127174260Y-98376667D01*
X127174260Y-98376667D02*
X127207593Y-98443333D01*
X127007593Y-97410000D02*
X127007593Y-97743333D01*
X127007593Y-97743333D02*
X127340926Y-97776666D01*
X127340926Y-97776666D02*
X127307593Y-97743333D01*
X127307593Y-97743333D02*
X127274260Y-97676666D01*
X127274260Y-97676666D02*
X127274260Y-97510000D01*
X127274260Y-97510000D02*
X127307593Y-97443333D01*
X127307593Y-97443333D02*
X127340926Y-97410000D01*
X127340926Y-97410000D02*
X127407593Y-97376666D01*
X127407593Y-97376666D02*
X127574260Y-97376666D01*
X127574260Y-97376666D02*
X127640926Y-97410000D01*
X127640926Y-97410000D02*
X127674260Y-97443333D01*
X127674260Y-97443333D02*
X127707593Y-97510000D01*
X127707593Y-97510000D02*
X127707593Y-97676666D01*
X127707593Y-97676666D02*
X127674260Y-97743333D01*
X127674260Y-97743333D02*
X127640926Y-97776666D01*
X131757593Y-94316666D02*
X131424260Y-94549999D01*
X131757593Y-94716666D02*
X131057593Y-94716666D01*
X131057593Y-94716666D02*
X131057593Y-94449999D01*
X131057593Y-94449999D02*
X131090926Y-94383333D01*
X131090926Y-94383333D02*
X131124260Y-94349999D01*
X131124260Y-94349999D02*
X131190926Y-94316666D01*
X131190926Y-94316666D02*
X131290926Y-94316666D01*
X131290926Y-94316666D02*
X131357593Y-94349999D01*
X131357593Y-94349999D02*
X131390926Y-94383333D01*
X131390926Y-94383333D02*
X131424260Y-94449999D01*
X131424260Y-94449999D02*
X131424260Y-94716666D01*
X131290926Y-93716666D02*
X131757593Y-93716666D01*
X131024260Y-93883333D02*
X131524260Y-94049999D01*
X131524260Y-94049999D02*
X131524260Y-93616666D01*
X106433333Y-89087593D02*
X106433333Y-89587593D01*
X106433333Y-89587593D02*
X106400000Y-89687593D01*
X106400000Y-89687593D02*
X106333333Y-89754260D01*
X106333333Y-89754260D02*
X106233333Y-89787593D01*
X106233333Y-89787593D02*
X106166667Y-89787593D01*
X107133333Y-89787593D02*
X106733333Y-89787593D01*
X106933333Y-89787593D02*
X106933333Y-89087593D01*
X106933333Y-89087593D02*
X106866666Y-89187593D01*
X106866666Y-89187593D02*
X106800000Y-89254260D01*
X106800000Y-89254260D02*
X106733333Y-89287593D01*
X107566667Y-89087593D02*
X107633333Y-89087593D01*
X107633333Y-89087593D02*
X107700000Y-89120926D01*
X107700000Y-89120926D02*
X107733333Y-89154260D01*
X107733333Y-89154260D02*
X107766667Y-89220926D01*
X107766667Y-89220926D02*
X107800000Y-89354260D01*
X107800000Y-89354260D02*
X107800000Y-89520926D01*
X107800000Y-89520926D02*
X107766667Y-89654260D01*
X107766667Y-89654260D02*
X107733333Y-89720926D01*
X107733333Y-89720926D02*
X107700000Y-89754260D01*
X107700000Y-89754260D02*
X107633333Y-89787593D01*
X107633333Y-89787593D02*
X107566667Y-89787593D01*
X107566667Y-89787593D02*
X107500000Y-89754260D01*
X107500000Y-89754260D02*
X107466667Y-89720926D01*
X107466667Y-89720926D02*
X107433333Y-89654260D01*
X107433333Y-89654260D02*
X107400000Y-89520926D01*
X107400000Y-89520926D02*
X107400000Y-89354260D01*
X107400000Y-89354260D02*
X107433333Y-89220926D01*
X107433333Y-89220926D02*
X107466667Y-89154260D01*
X107466667Y-89154260D02*
X107500000Y-89120926D01*
X107500000Y-89120926D02*
X107566667Y-89087593D01*
X134760926Y-86176666D02*
X134794260Y-86209999D01*
X134794260Y-86209999D02*
X134827593Y-86309999D01*
X134827593Y-86309999D02*
X134827593Y-86376666D01*
X134827593Y-86376666D02*
X134794260Y-86476666D01*
X134794260Y-86476666D02*
X134727593Y-86543333D01*
X134727593Y-86543333D02*
X134660926Y-86576666D01*
X134660926Y-86576666D02*
X134527593Y-86609999D01*
X134527593Y-86609999D02*
X134427593Y-86609999D01*
X134427593Y-86609999D02*
X134294260Y-86576666D01*
X134294260Y-86576666D02*
X134227593Y-86543333D01*
X134227593Y-86543333D02*
X134160926Y-86476666D01*
X134160926Y-86476666D02*
X134127593Y-86376666D01*
X134127593Y-86376666D02*
X134127593Y-86309999D01*
X134127593Y-86309999D02*
X134160926Y-86209999D01*
X134160926Y-86209999D02*
X134194260Y-86176666D01*
X134360926Y-85576666D02*
X134827593Y-85576666D01*
X134094260Y-85743333D02*
X134594260Y-85909999D01*
X134594260Y-85909999D02*
X134594260Y-85476666D01*
X116910926Y-98466666D02*
X116944260Y-98499999D01*
X116944260Y-98499999D02*
X116977593Y-98599999D01*
X116977593Y-98599999D02*
X116977593Y-98666666D01*
X116977593Y-98666666D02*
X116944260Y-98766666D01*
X116944260Y-98766666D02*
X116877593Y-98833333D01*
X116877593Y-98833333D02*
X116810926Y-98866666D01*
X116810926Y-98866666D02*
X116677593Y-98899999D01*
X116677593Y-98899999D02*
X116577593Y-98899999D01*
X116577593Y-98899999D02*
X116444260Y-98866666D01*
X116444260Y-98866666D02*
X116377593Y-98833333D01*
X116377593Y-98833333D02*
X116310926Y-98766666D01*
X116310926Y-98766666D02*
X116277593Y-98666666D01*
X116277593Y-98666666D02*
X116277593Y-98599999D01*
X116277593Y-98599999D02*
X116310926Y-98499999D01*
X116310926Y-98499999D02*
X116344260Y-98466666D01*
X116977593Y-97799999D02*
X116977593Y-98199999D01*
X116977593Y-97999999D02*
X116277593Y-97999999D01*
X116277593Y-97999999D02*
X116377593Y-98066666D01*
X116377593Y-98066666D02*
X116444260Y-98133333D01*
X116444260Y-98133333D02*
X116477593Y-98199999D01*
D10*
X133348490Y-98373333D02*
X133372300Y-98397142D01*
X133372300Y-98397142D02*
X133396109Y-98468571D01*
X133396109Y-98468571D02*
X133396109Y-98516190D01*
X133396109Y-98516190D02*
X133372300Y-98587618D01*
X133372300Y-98587618D02*
X133324680Y-98635237D01*
X133324680Y-98635237D02*
X133277061Y-98659047D01*
X133277061Y-98659047D02*
X133181823Y-98682856D01*
X133181823Y-98682856D02*
X133110395Y-98682856D01*
X133110395Y-98682856D02*
X133015157Y-98659047D01*
X133015157Y-98659047D02*
X132967538Y-98635237D01*
X132967538Y-98635237D02*
X132919919Y-98587618D01*
X132919919Y-98587618D02*
X132896109Y-98516190D01*
X132896109Y-98516190D02*
X132896109Y-98468571D01*
X132896109Y-98468571D02*
X132919919Y-98397142D01*
X132919919Y-98397142D02*
X132943728Y-98373333D01*
X133110395Y-98087618D02*
X133086585Y-98135237D01*
X133086585Y-98135237D02*
X133062776Y-98159047D01*
X133062776Y-98159047D02*
X133015157Y-98182856D01*
X133015157Y-98182856D02*
X132991347Y-98182856D01*
X132991347Y-98182856D02*
X132943728Y-98159047D01*
X132943728Y-98159047D02*
X132919919Y-98135237D01*
X132919919Y-98135237D02*
X132896109Y-98087618D01*
X132896109Y-98087618D02*
X132896109Y-97992380D01*
X132896109Y-97992380D02*
X132919919Y-97944761D01*
X132919919Y-97944761D02*
X132943728Y-97920952D01*
X132943728Y-97920952D02*
X132991347Y-97897142D01*
X132991347Y-97897142D02*
X133015157Y-97897142D01*
X133015157Y-97897142D02*
X133062776Y-97920952D01*
X133062776Y-97920952D02*
X133086585Y-97944761D01*
X133086585Y-97944761D02*
X133110395Y-97992380D01*
X133110395Y-97992380D02*
X133110395Y-98087618D01*
X133110395Y-98087618D02*
X133134204Y-98135237D01*
X133134204Y-98135237D02*
X133158014Y-98159047D01*
X133158014Y-98159047D02*
X133205633Y-98182856D01*
X133205633Y-98182856D02*
X133300871Y-98182856D01*
X133300871Y-98182856D02*
X133348490Y-98159047D01*
X133348490Y-98159047D02*
X133372300Y-98135237D01*
X133372300Y-98135237D02*
X133396109Y-98087618D01*
X133396109Y-98087618D02*
X133396109Y-97992380D01*
X133396109Y-97992380D02*
X133372300Y-97944761D01*
X133372300Y-97944761D02*
X133348490Y-97920952D01*
X133348490Y-97920952D02*
X133300871Y-97897142D01*
X133300871Y-97897142D02*
X133205633Y-97897142D01*
X133205633Y-97897142D02*
X133158014Y-97920952D01*
X133158014Y-97920952D02*
X133134204Y-97944761D01*
X133134204Y-97944761D02*
X133110395Y-97992380D01*
D12*
X132267593Y-117356666D02*
X131567593Y-117356666D01*
X131567593Y-117356666D02*
X131567593Y-117189999D01*
X131567593Y-117189999D02*
X131600926Y-117089999D01*
X131600926Y-117089999D02*
X131667593Y-117023333D01*
X131667593Y-117023333D02*
X131734260Y-116989999D01*
X131734260Y-116989999D02*
X131867593Y-116956666D01*
X131867593Y-116956666D02*
X131967593Y-116956666D01*
X131967593Y-116956666D02*
X132100926Y-116989999D01*
X132100926Y-116989999D02*
X132167593Y-117023333D01*
X132167593Y-117023333D02*
X132234260Y-117089999D01*
X132234260Y-117089999D02*
X132267593Y-117189999D01*
X132267593Y-117189999D02*
X132267593Y-117356666D01*
X131567593Y-116723333D02*
X131567593Y-116289999D01*
X131567593Y-116289999D02*
X131834260Y-116523333D01*
X131834260Y-116523333D02*
X131834260Y-116423333D01*
X131834260Y-116423333D02*
X131867593Y-116356666D01*
X131867593Y-116356666D02*
X131900926Y-116323333D01*
X131900926Y-116323333D02*
X131967593Y-116289999D01*
X131967593Y-116289999D02*
X132134260Y-116289999D01*
X132134260Y-116289999D02*
X132200926Y-116323333D01*
X132200926Y-116323333D02*
X132234260Y-116356666D01*
X132234260Y-116356666D02*
X132267593Y-116423333D01*
X132267593Y-116423333D02*
X132267593Y-116623333D01*
X132267593Y-116623333D02*
X132234260Y-116689999D01*
X132234260Y-116689999D02*
X132200926Y-116723333D01*
X107023333Y-127957593D02*
X107023333Y-128457593D01*
X107023333Y-128457593D02*
X106990000Y-128557593D01*
X106990000Y-128557593D02*
X106923333Y-128624260D01*
X106923333Y-128624260D02*
X106823333Y-128657593D01*
X106823333Y-128657593D02*
X106756667Y-128657593D01*
X107723333Y-128657593D02*
X107323333Y-128657593D01*
X107523333Y-128657593D02*
X107523333Y-127957593D01*
X107523333Y-127957593D02*
X107456666Y-128057593D01*
X107456666Y-128057593D02*
X107390000Y-128124260D01*
X107390000Y-128124260D02*
X107323333Y-128157593D01*
X107990000Y-128024260D02*
X108023333Y-127990926D01*
X108023333Y-127990926D02*
X108090000Y-127957593D01*
X108090000Y-127957593D02*
X108256667Y-127957593D01*
X108256667Y-127957593D02*
X108323333Y-127990926D01*
X108323333Y-127990926D02*
X108356667Y-128024260D01*
X108356667Y-128024260D02*
X108390000Y-128090926D01*
X108390000Y-128090926D02*
X108390000Y-128157593D01*
X108390000Y-128157593D02*
X108356667Y-128257593D01*
X108356667Y-128257593D02*
X107956667Y-128657593D01*
X107956667Y-128657593D02*
X108390000Y-128657593D01*
X129339999Y-103700926D02*
X129306666Y-103734260D01*
X129306666Y-103734260D02*
X129206666Y-103767593D01*
X129206666Y-103767593D02*
X129139999Y-103767593D01*
X129139999Y-103767593D02*
X129039999Y-103734260D01*
X129039999Y-103734260D02*
X128973333Y-103667593D01*
X128973333Y-103667593D02*
X128939999Y-103600926D01*
X128939999Y-103600926D02*
X128906666Y-103467593D01*
X128906666Y-103467593D02*
X128906666Y-103367593D01*
X128906666Y-103367593D02*
X128939999Y-103234260D01*
X128939999Y-103234260D02*
X128973333Y-103167593D01*
X128973333Y-103167593D02*
X129039999Y-103100926D01*
X129039999Y-103100926D02*
X129139999Y-103067593D01*
X129139999Y-103067593D02*
X129206666Y-103067593D01*
X129206666Y-103067593D02*
X129306666Y-103100926D01*
X129306666Y-103100926D02*
X129339999Y-103134260D01*
X130006666Y-103767593D02*
X129606666Y-103767593D01*
X129806666Y-103767593D02*
X129806666Y-103067593D01*
X129806666Y-103067593D02*
X129739999Y-103167593D01*
X129739999Y-103167593D02*
X129673333Y-103234260D01*
X129673333Y-103234260D02*
X129606666Y-103267593D01*
X130440000Y-103067593D02*
X130506666Y-103067593D01*
X130506666Y-103067593D02*
X130573333Y-103100926D01*
X130573333Y-103100926D02*
X130606666Y-103134260D01*
X130606666Y-103134260D02*
X130640000Y-103200926D01*
X130640000Y-103200926D02*
X130673333Y-103334260D01*
X130673333Y-103334260D02*
X130673333Y-103500926D01*
X130673333Y-103500926D02*
X130640000Y-103634260D01*
X130640000Y-103634260D02*
X130606666Y-103700926D01*
X130606666Y-103700926D02*
X130573333Y-103734260D01*
X130573333Y-103734260D02*
X130506666Y-103767593D01*
X130506666Y-103767593D02*
X130440000Y-103767593D01*
X130440000Y-103767593D02*
X130373333Y-103734260D01*
X130373333Y-103734260D02*
X130340000Y-103700926D01*
X130340000Y-103700926D02*
X130306666Y-103634260D01*
X130306666Y-103634260D02*
X130273333Y-103500926D01*
X130273333Y-103500926D02*
X130273333Y-103334260D01*
X130273333Y-103334260D02*
X130306666Y-103200926D01*
X130306666Y-103200926D02*
X130340000Y-103134260D01*
X130340000Y-103134260D02*
X130373333Y-103100926D01*
X130373333Y-103100926D02*
X130440000Y-103067593D01*
X120285093Y-111266666D02*
X119585093Y-111266666D01*
X119585093Y-111266666D02*
X119585093Y-111099999D01*
X119585093Y-111099999D02*
X119618426Y-110999999D01*
X119618426Y-110999999D02*
X119685093Y-110933333D01*
X119685093Y-110933333D02*
X119751760Y-110899999D01*
X119751760Y-110899999D02*
X119885093Y-110866666D01*
X119885093Y-110866666D02*
X119985093Y-110866666D01*
X119985093Y-110866666D02*
X120118426Y-110899999D01*
X120118426Y-110899999D02*
X120185093Y-110933333D01*
X120185093Y-110933333D02*
X120251760Y-110999999D01*
X120251760Y-110999999D02*
X120285093Y-111099999D01*
X120285093Y-111099999D02*
X120285093Y-111266666D01*
X119585093Y-110233333D02*
X119585093Y-110566666D01*
X119585093Y-110566666D02*
X119918426Y-110599999D01*
X119918426Y-110599999D02*
X119885093Y-110566666D01*
X119885093Y-110566666D02*
X119851760Y-110499999D01*
X119851760Y-110499999D02*
X119851760Y-110333333D01*
X119851760Y-110333333D02*
X119885093Y-110266666D01*
X119885093Y-110266666D02*
X119918426Y-110233333D01*
X119918426Y-110233333D02*
X119985093Y-110199999D01*
X119985093Y-110199999D02*
X120151760Y-110199999D01*
X120151760Y-110199999D02*
X120218426Y-110233333D01*
X120218426Y-110233333D02*
X120251760Y-110266666D01*
X120251760Y-110266666D02*
X120285093Y-110333333D01*
X120285093Y-110333333D02*
X120285093Y-110499999D01*
X120285093Y-110499999D02*
X120251760Y-110566666D01*
X120251760Y-110566666D02*
X120218426Y-110599999D01*
X155167593Y-115193333D02*
X155734260Y-115193333D01*
X155734260Y-115193333D02*
X155800926Y-115160000D01*
X155800926Y-115160000D02*
X155834260Y-115126666D01*
X155834260Y-115126666D02*
X155867593Y-115060000D01*
X155867593Y-115060000D02*
X155867593Y-114926666D01*
X155867593Y-114926666D02*
X155834260Y-114860000D01*
X155834260Y-114860000D02*
X155800926Y-114826666D01*
X155800926Y-114826666D02*
X155734260Y-114793333D01*
X155734260Y-114793333D02*
X155167593Y-114793333D01*
X155867593Y-114093333D02*
X155867593Y-114493333D01*
X155867593Y-114293333D02*
X155167593Y-114293333D01*
X155167593Y-114293333D02*
X155267593Y-114360000D01*
X155267593Y-114360000D02*
X155334260Y-114426667D01*
X155334260Y-114426667D02*
X155367593Y-114493333D01*
X139505926Y-111800000D02*
X139539260Y-111833333D01*
X139539260Y-111833333D02*
X139572593Y-111933333D01*
X139572593Y-111933333D02*
X139572593Y-112000000D01*
X139572593Y-112000000D02*
X139539260Y-112100000D01*
X139539260Y-112100000D02*
X139472593Y-112166667D01*
X139472593Y-112166667D02*
X139405926Y-112200000D01*
X139405926Y-112200000D02*
X139272593Y-112233333D01*
X139272593Y-112233333D02*
X139172593Y-112233333D01*
X139172593Y-112233333D02*
X139039260Y-112200000D01*
X139039260Y-112200000D02*
X138972593Y-112166667D01*
X138972593Y-112166667D02*
X138905926Y-112100000D01*
X138905926Y-112100000D02*
X138872593Y-112000000D01*
X138872593Y-112000000D02*
X138872593Y-111933333D01*
X138872593Y-111933333D02*
X138905926Y-111833333D01*
X138905926Y-111833333D02*
X138939260Y-111800000D01*
X139572593Y-111133333D02*
X139572593Y-111533333D01*
X139572593Y-111333333D02*
X138872593Y-111333333D01*
X138872593Y-111333333D02*
X138972593Y-111400000D01*
X138972593Y-111400000D02*
X139039260Y-111466667D01*
X139039260Y-111466667D02*
X139072593Y-111533333D01*
X138939260Y-110866666D02*
X138905926Y-110833333D01*
X138905926Y-110833333D02*
X138872593Y-110766666D01*
X138872593Y-110766666D02*
X138872593Y-110600000D01*
X138872593Y-110600000D02*
X138905926Y-110533333D01*
X138905926Y-110533333D02*
X138939260Y-110500000D01*
X138939260Y-110500000D02*
X139005926Y-110466666D01*
X139005926Y-110466666D02*
X139072593Y-110466666D01*
X139072593Y-110466666D02*
X139172593Y-110500000D01*
X139172593Y-110500000D02*
X139572593Y-110900000D01*
X139572593Y-110900000D02*
X139572593Y-110466666D01*
%TO.C,L1*%
X117290000Y-97939758D02*
X117290000Y-98760242D01*
X118410000Y-97939758D02*
X118410000Y-98760242D01*
%TO.C,U2*%
X126600000Y-106847500D02*
X133020000Y-106847500D01*
X126600000Y-113747500D02*
X133020000Y-113747500D01*
X133020000Y-106847500D02*
X133020000Y-107117500D01*
X133020000Y-113747500D02*
X133020000Y-113477500D01*
X135090000Y-113907500D02*
X134410000Y-113907500D01*
X134750000Y-113437500D01*
X135090000Y-113907500D01*
G36*
X135090000Y-113907500D02*
G01*
X134410000Y-113907500D01*
X134750000Y-113437500D01*
X135090000Y-113907500D01*
G37*
%TO.C,J5*%
X134376667Y-83115000D02*
X134376667Y-81735000D01*
X135756667Y-83115000D02*
X134376667Y-83115000D01*
X137026667Y-80355000D02*
X142216667Y-80355000D01*
X137026667Y-83115000D02*
X137026667Y-80355000D01*
X137026667Y-83115000D02*
X142216667Y-83115000D01*
X142216667Y-83115000D02*
X142216667Y-80355000D01*
%TO.C,C5*%
X116454200Y-86323752D02*
X116454200Y-85801248D01*
X117924200Y-86323752D02*
X117924200Y-85801248D01*
%TO.C,C9*%
X119295000Y-97310000D02*
X119295000Y-100205000D01*
X119295000Y-100205000D02*
X120905000Y-100205000D01*
X120905000Y-100205000D02*
X120905000Y-97310000D01*
%TO.C,J4*%
X139160000Y-104650000D02*
X139160000Y-102850000D01*
X139380000Y-93590000D02*
X142710000Y-93590000D01*
X139380000Y-106910000D02*
X139380000Y-93590000D01*
X139380000Y-106910000D02*
X142710000Y-106910000D01*
X146230000Y-93590000D02*
X154340000Y-93590000D01*
X154340000Y-92940000D02*
X154340000Y-93590000D01*
X154340000Y-106910000D02*
X146230000Y-106910000D01*
X154340000Y-106910000D02*
X154340000Y-107560000D01*
X154340000Y-107560000D02*
X154860000Y-107560000D01*
X154860000Y-92940000D02*
X154340000Y-92940000D01*
X154860000Y-107560000D02*
X154860000Y-92940000D01*
%TO.C,R9*%
X135943000Y-119327064D02*
X135943000Y-118872936D01*
X137413000Y-119327064D02*
X137413000Y-118872936D01*
%TO.C,C11*%
X133170000Y-106327500D02*
X136065000Y-106327500D01*
X136065000Y-104717500D02*
X133170000Y-104717500D01*
X136065000Y-106327500D02*
X136065000Y-104717500D01*
%TO.C,D4*%
X121565000Y-108890000D02*
X121565000Y-111750000D01*
X123485000Y-108890000D02*
X121565000Y-108890000D01*
X123485000Y-111750000D02*
X123485000Y-108890000D01*
%TO.C,R14*%
X122115000Y-98497064D02*
X122115000Y-98042936D01*
X123585000Y-98497064D02*
X123585000Y-98042936D01*
%TO.C,R11*%
X121835000Y-106402064D02*
X121835000Y-105947936D01*
X123305000Y-106402064D02*
X123305000Y-105947936D01*
%TO.C,U3*%
X122195000Y-90015000D02*
X122290000Y-90015000D01*
X122195000Y-94135000D02*
X122195000Y-90015000D01*
X122290000Y-94135000D02*
X122195000Y-94135000D01*
X127220000Y-90015000D02*
X127315000Y-90015000D01*
X127315000Y-90015000D02*
X127315000Y-94135000D01*
X127315000Y-94135000D02*
X127220000Y-94135000D01*
X122285000Y-94675000D02*
X121955000Y-94915000D01*
X121955000Y-94435000D01*
X122285000Y-94675000D01*
G36*
X122285000Y-94675000D02*
G01*
X121955000Y-94915000D01*
X121955000Y-94435000D01*
X122285000Y-94675000D01*
G37*
%TO.C,R1*%
X112990000Y-82082064D02*
X112990000Y-81627936D01*
X114460000Y-82082064D02*
X114460000Y-81627936D01*
D13*
%TO.C,D2*%
X138839000Y-119011500D02*
X138839000Y-118838500D01*
X139639000Y-118838500D02*
X139639000Y-119011500D01*
D14*
X139339000Y-120425000D02*
G75*
G02*
X139139000Y-120425000I-100000J0D01*
G01*
X139139000Y-120425000D02*
G75*
G02*
X139339000Y-120425000I100000J0D01*
G01*
D12*
%TO.C,J8*%
X144520000Y-124720000D02*
X145850000Y-124720000D01*
X144520000Y-126050000D02*
X144520000Y-124720000D01*
X147120000Y-124720000D02*
X154800000Y-124720000D01*
X147120000Y-127380000D02*
X147120000Y-124720000D01*
X147120000Y-127380000D02*
X154800000Y-127380000D01*
X154800000Y-127380000D02*
X154800000Y-124720000D01*
%TO.C,C7*%
X112115000Y-98038748D02*
X112115000Y-98561252D01*
X113585000Y-98038748D02*
X113585000Y-98561252D01*
%TO.C,R7*%
X141067064Y-91040000D02*
X140612936Y-91040000D01*
X141067064Y-92510000D02*
X140612936Y-92510000D01*
%TO.C,J3*%
X118971083Y-119365000D02*
X126211083Y-119365000D01*
X118971083Y-125585000D02*
X126211083Y-125585000D01*
X118971083Y-126685000D02*
X126211083Y-126685000D01*
X118971083Y-127205000D02*
X118971083Y-119365000D01*
X120541083Y-127205000D02*
X118971083Y-127205000D01*
X126211083Y-119365000D02*
X126211083Y-127205000D01*
X126211083Y-127205000D02*
X121141083Y-127205000D01*
X121281083Y-127815000D02*
X120401083Y-127815000D01*
X120841083Y-127205000D01*
X121281083Y-127815000D01*
G36*
X121281083Y-127815000D02*
G01*
X120401083Y-127815000D01*
X120841083Y-127205000D01*
X121281083Y-127815000D01*
G37*
%TO.C,J1*%
X131687167Y-123650000D02*
X131687167Y-126140000D01*
X133832167Y-121210000D02*
X134632167Y-121210000D01*
X134232167Y-121660000D02*
X133832167Y-121210000D01*
X134632167Y-121210000D02*
X134232167Y-121660000D01*
X139377167Y-123650000D02*
X139377167Y-126140000D01*
%TO.C,J6*%
X147630000Y-80630000D02*
X152700000Y-80630000D01*
X147630000Y-88470000D02*
X147630000Y-80630000D01*
X153300000Y-80630000D02*
X154870000Y-80630000D01*
X154870000Y-80630000D02*
X154870000Y-88470000D01*
X154870000Y-81150000D02*
X147630000Y-81150000D01*
X154870000Y-82250000D02*
X147630000Y-82250000D01*
X154870000Y-88470000D02*
X147630000Y-88470000D01*
X153000000Y-80630000D02*
X152560000Y-80020000D01*
X153440000Y-80020000D01*
X153000000Y-80630000D01*
G36*
X153000000Y-80630000D02*
G01*
X152560000Y-80020000D01*
X153440000Y-80020000D01*
X153000000Y-80630000D01*
G37*
%TO.C,C3*%
X113713400Y-86323752D02*
X113713400Y-85801248D01*
X115183400Y-86323752D02*
X115183400Y-85801248D01*
%TO.C,D1*%
X127990000Y-117065000D02*
X127990000Y-119925000D01*
X129910000Y-117065000D02*
X127990000Y-117065000D01*
X129910000Y-119925000D02*
X129910000Y-117065000D01*
%TO.C,C13*%
X129165000Y-89976248D02*
X129165000Y-90498752D01*
X130635000Y-89976248D02*
X130635000Y-90498752D01*
%TO.C,R12*%
X117537500Y-106402064D02*
X117537500Y-105947936D01*
X119007500Y-106402064D02*
X119007500Y-105947936D01*
%TO.C,R6*%
X140612936Y-88590000D02*
X141067064Y-88590000D01*
X140612936Y-90060000D02*
X141067064Y-90060000D01*
%TO.C,R2*%
X109290000Y-98497064D02*
X109290000Y-98042936D01*
X110760000Y-98497064D02*
X110760000Y-98042936D01*
%TO.C,R5*%
X119165000Y-86319564D02*
X119165000Y-85865436D01*
X120635000Y-86319564D02*
X120635000Y-85865436D01*
%TO.C,R3*%
X138315000Y-85865436D02*
X138315000Y-86319564D01*
X139785000Y-85865436D02*
X139785000Y-86319564D01*
%TO.C,RV1*%
X103973000Y-104950000D02*
G75*
G02*
X112906001Y-102976999I5026906J-1550805D01*
G01*
X113040000Y-109869000D02*
G75*
G02*
X103890000Y-107746000I-4039665J3368761D01*
G01*
X114108000Y-105246000D02*
G75*
G02*
X114172000Y-107461000I-5106140J-1255960D01*
G01*
%TO.C,R8*%
X141365000Y-118697936D02*
X141365000Y-119152064D01*
X142835000Y-118697936D02*
X142835000Y-119152064D01*
%TO.C,J9*%
X116113333Y-80425000D02*
X117443333Y-80425000D01*
X116113333Y-81755000D02*
X116113333Y-80425000D01*
X118713333Y-80425000D02*
X128933333Y-80425000D01*
X118713333Y-83085000D02*
X118713333Y-80425000D01*
X118713333Y-83085000D02*
X128933333Y-83085000D01*
X128933333Y-83085000D02*
X128933333Y-80425000D01*
%TO.C,R10*%
X133682000Y-119327064D02*
X133682000Y-118872936D01*
X135152000Y-119327064D02*
X135152000Y-118872936D01*
%TO.C,L2*%
X128215000Y-97939758D02*
X128215000Y-98760242D01*
X129335000Y-97939758D02*
X129335000Y-98760242D01*
%TO.C,C2*%
X133545000Y-96455000D02*
X133545000Y-99350000D01*
X135155000Y-96455000D02*
X133545000Y-96455000D01*
X135155000Y-99350000D02*
X135155000Y-96455000D01*
%TO.C,R13*%
X123222936Y-84302500D02*
X127577064Y-84302500D01*
X123222936Y-87722500D02*
X127577064Y-87722500D01*
%TO.C,C6*%
X135305000Y-86323752D02*
X135305000Y-85801248D01*
X136775000Y-86323752D02*
X136775000Y-85801248D01*
%TO.C,R15*%
X125065000Y-98497064D02*
X125065000Y-98042936D01*
X126535000Y-98497064D02*
X126535000Y-98042936D01*
%TO.C,R4*%
X129165000Y-94427064D02*
X129165000Y-93972936D01*
X130635000Y-94427064D02*
X130635000Y-93972936D01*
%TO.C,J10*%
X103380000Y-80630000D02*
X108450000Y-80630000D01*
X103380000Y-88470000D02*
X103380000Y-80630000D01*
X109050000Y-80630000D02*
X110620000Y-80630000D01*
X110620000Y-80630000D02*
X110620000Y-88470000D01*
X110620000Y-81150000D02*
X103380000Y-81150000D01*
X110620000Y-82250000D02*
X103380000Y-82250000D01*
X110620000Y-88470000D02*
X103380000Y-88470000D01*
X108750000Y-80630000D02*
X108310000Y-80020000D01*
X109190000Y-80020000D01*
X108750000Y-80630000D01*
G36*
X108750000Y-80630000D02*
G01*
X108310000Y-80020000D01*
X109190000Y-80020000D01*
X108750000Y-80630000D01*
G37*
%TO.C,C4*%
X132265000Y-86323752D02*
X132265000Y-85801248D01*
X133735000Y-86323752D02*
X133735000Y-85801248D01*
%TO.C,C1*%
X114495000Y-96455000D02*
X114495000Y-99350000D01*
X116105000Y-96455000D02*
X114495000Y-96455000D01*
X116105000Y-99350000D02*
X116105000Y-96455000D01*
%TO.C,C8*%
X131090000Y-98038748D02*
X131090000Y-98561252D01*
X132560000Y-98038748D02*
X132560000Y-98561252D01*
D13*
%TO.C,D3*%
X131456000Y-119011500D02*
X131456000Y-118838500D01*
X132256000Y-118838500D02*
X132256000Y-119011500D01*
D14*
X131956000Y-120425000D02*
G75*
G02*
X131756000Y-120425000I-100000J0D01*
G01*
X131756000Y-120425000D02*
G75*
G02*
X131956000Y-120425000I100000J0D01*
G01*
D12*
%TO.C,J12*%
X103100000Y-112650000D02*
X103100000Y-113950000D01*
X103400000Y-112950000D02*
X105400000Y-112950000D01*
X103400000Y-127450000D02*
X103400000Y-112950000D01*
X104800000Y-112650000D02*
X103100000Y-112650000D01*
X110600000Y-112950000D02*
X112600000Y-112950000D01*
X112600000Y-112950000D02*
X112600000Y-114250000D01*
X112600000Y-118850000D02*
X112600000Y-127450000D01*
X112600000Y-127450000D02*
X103400000Y-127450000D01*
%TO.C,C10*%
X127877500Y-100945000D02*
X127877500Y-102555000D01*
X127877500Y-102555000D02*
X130772500Y-102555000D01*
X130772500Y-100945000D02*
X127877500Y-100945000D01*
%TO.C,D5*%
X117357500Y-108890000D02*
X117357500Y-111750000D01*
X119277500Y-108890000D02*
X117357500Y-108890000D01*
X119277500Y-111750000D02*
X119277500Y-108890000D01*
%TO.C,U1*%
X149485000Y-111890000D02*
X149755000Y-111890000D01*
X149485000Y-117410000D02*
X149485000Y-111890000D01*
X149755000Y-117410000D02*
X149485000Y-117410000D01*
X154735000Y-111890000D02*
X155005000Y-111890000D01*
X155005000Y-111890000D02*
X155005000Y-117410000D01*
X155005000Y-117410000D02*
X154735000Y-117410000D01*
X155215000Y-111400000D02*
X154745000Y-111060000D01*
X155215000Y-110720000D01*
X155215000Y-111400000D01*
G36*
X155215000Y-111400000D02*
G01*
X154745000Y-111060000D01*
X155215000Y-110720000D01*
X155215000Y-111400000D01*
G37*
%TO.C,C12*%
X136870000Y-109455000D02*
X136870000Y-112350000D01*
X138480000Y-109455000D02*
X136870000Y-109455000D01*
X138480000Y-112350000D02*
X138480000Y-109455000D01*
%TD*%
M02*
