%TF.GenerationSoftware,KiCad,Pcbnew,9.0.6-9.0.6~ubuntu22.04.1*%
%TF.CreationDate,2025-12-30T23:35:10+05:30*%
%TF.ProjectId,OverEngineered-PSU,4f766572-456e-4676-996e-65657265642d,rev?*%
%TF.SameCoordinates,Original*%
%TF.FileFunction,Copper,L2,Bot*%
%TF.FilePolarity,Positive*%
%FSLAX46Y46*%
G04 Gerber Fmt 4.6, Leading zero omitted, Abs format (unit mm)*
G04 Created by KiCad (PCBNEW 9.0.6-9.0.6~ubuntu22.04.1) date 2025-12-30 23:35:10*
%MOMM*%
%LPD*%
G01*
G04 APERTURE LIST*
G04 Aperture macros list*
%AMRoundRect*
0 Rectangle with rounded corners*
0 $1 Rounding radius*
0 $2 $3 $4 $5 $6 $7 $8 $9 X,Y pos of 4 corners*
0 Add a 4 corners polygon primitive as box body*
4,1,4,$2,$3,$4,$5,$6,$7,$8,$9,$2,$3,0*
0 Add four circle primitives for the rounded corners*
1,1,$1+$1,$2,$3*
1,1,$1+$1,$4,$5*
1,1,$1+$1,$6,$7*
1,1,$1+$1,$8,$9*
0 Add four rect primitives between the rounded corners*
20,1,$1+$1,$2,$3,$4,$5,0*
20,1,$1+$1,$4,$5,$6,$7,0*
20,1,$1+$1,$6,$7,$8,$9,0*
20,1,$1+$1,$8,$9,$2,$3,0*%
G04 Aperture macros list end*
%TA.AperFunction,ComponentPad*%
%ADD10R,1.700000X1.700000*%
%TD*%
%TA.AperFunction,ComponentPad*%
%ADD11C,1.700000*%
%TD*%
%TA.AperFunction,ComponentPad*%
%ADD12R,1.500000X1.600000*%
%TD*%
%TA.AperFunction,ComponentPad*%
%ADD13C,1.600000*%
%TD*%
%TA.AperFunction,ComponentPad*%
%ADD14C,3.000000*%
%TD*%
%TA.AperFunction,ComponentPad*%
%ADD15RoundRect,0.250001X-0.949999X-0.949999X0.949999X-0.949999X0.949999X0.949999X-0.949999X0.949999X0*%
%TD*%
%TA.AperFunction,ComponentPad*%
%ADD16C,2.400000*%
%TD*%
%TA.AperFunction,HeatsinkPad*%
%ADD17O,1.000000X1.700000*%
%TD*%
%TA.AperFunction,HeatsinkPad*%
%ADD18O,0.850000X1.700000*%
%TD*%
%TA.AperFunction,ComponentPad*%
%ADD19RoundRect,0.250001X0.949999X0.949999X-0.949999X0.949999X-0.949999X-0.949999X0.949999X-0.949999X0*%
%TD*%
%TA.AperFunction,ComponentPad*%
%ADD20C,2.340000*%
%TD*%
%TA.AperFunction,ComponentPad*%
%ADD21R,4.600000X2.000000*%
%TD*%
%TA.AperFunction,ComponentPad*%
%ADD22O,4.200000X2.000000*%
%TD*%
%TA.AperFunction,ComponentPad*%
%ADD23O,2.000000X4.200000*%
%TD*%
%TA.AperFunction,ViaPad*%
%ADD24C,0.300000*%
%TD*%
%TA.AperFunction,ViaPad*%
%ADD25C,0.500000*%
%TD*%
%TA.AperFunction,ViaPad*%
%ADD26C,1.200000*%
%TD*%
%TA.AperFunction,ViaPad*%
%ADD27C,0.250000*%
%TD*%
%TA.AperFunction,Conductor*%
%ADD28C,0.300000*%
%TD*%
%TA.AperFunction,Conductor*%
%ADD29C,1.200000*%
%TD*%
%TA.AperFunction,Conductor*%
%ADD30C,0.500000*%
%TD*%
%TA.AperFunction,Conductor*%
%ADD31C,0.250000*%
%TD*%
G04 APERTURE END LIST*
D10*
%TO.P,J5,1,Pin_1*%
%TO.N,5V*%
X135756667Y-81735000D03*
D11*
%TO.P,J5,2,Pin_2*%
%TO.N,Net-(J5-Pin_2)*%
X138296667Y-81735000D03*
%TO.P,J5,3,Pin_3*%
%TO.N,3.3V*%
X140836667Y-81735000D03*
%TD*%
D12*
%TO.P,J4,1,VBUS*%
%TO.N,5V*%
X141760000Y-103750000D03*
D13*
%TO.P,J4,2,D-*%
%TO.N,unconnected-(J4-D--Pad2)*%
X141760000Y-101250000D03*
%TO.P,J4,3,D+*%
%TO.N,unconnected-(J4-D+-Pad3)*%
X141760000Y-99250000D03*
%TO.P,J4,4,GND*%
%TO.N,GND*%
X141760000Y-96750000D03*
D14*
%TO.P,J4,5,Shield*%
X144470000Y-106820000D03*
X144470000Y-93680000D03*
%TD*%
D10*
%TO.P,J8,1,Pin_1*%
%TO.N,/SDA*%
X145850000Y-126050000D03*
D11*
%TO.P,J8,2,Pin_2*%
%TO.N,/SCL*%
X148390000Y-126050000D03*
%TO.P,J8,3,Pin_3*%
%TO.N,5V*%
X150930000Y-126050000D03*
%TO.P,J8,4,Pin_4*%
%TO.N,GND*%
X153470000Y-126050000D03*
%TD*%
D15*
%TO.P,J3,1,Pin_1*%
%TO.N,GND*%
X120841083Y-122585000D03*
D16*
%TO.P,J3,2,Pin_2*%
%TO.N,/BARREL*%
X124341083Y-122585000D03*
%TD*%
D17*
%TO.P,J1,6,Shield*%
%TO.N,GND*%
X132707167Y-125200000D03*
D18*
X138357167Y-125200000D03*
%TD*%
D19*
%TO.P,J6,1,Pin_1*%
%TO.N,Net-(J5-Pin_2)*%
X153000000Y-85250000D03*
D16*
%TO.P,J6,2,Pin_2*%
%TO.N,GND*%
X149500000Y-85250000D03*
%TD*%
D20*
%TO.P,RV1,1,1*%
%TO.N,VAR_V*%
X114000000Y-103850000D03*
%TO.P,RV1,2,2*%
X104000000Y-106350000D03*
%TO.P,RV1,3,3*%
%TO.N,Net-(IC1-FB)*%
X114000000Y-108850000D03*
%TD*%
D10*
%TO.P,J9,1,Pin_1*%
%TO.N,/PB1*%
X117443333Y-81755000D03*
D11*
%TO.P,J9,2,Pin_2*%
%TO.N,/SDA*%
X119983333Y-81755000D03*
%TO.P,J9,3,Pin_3*%
%TO.N,/SCL*%
X122523333Y-81755000D03*
%TO.P,J9,4,Pin_4*%
%TO.N,5V*%
X125063333Y-81755000D03*
%TO.P,J9,5,Pin_5*%
%TO.N,GND*%
X127603333Y-81755000D03*
%TD*%
D19*
%TO.P,J10,1,Pin_1*%
%TO.N,VAR_V*%
X108750000Y-85250000D03*
D16*
%TO.P,J10,2,Pin_2*%
%TO.N,GND*%
X105250000Y-85250000D03*
%TD*%
D21*
%TO.P,J12,1*%
%TO.N,/BARREL*%
X108000000Y-113650000D03*
D22*
%TO.P,J12,2*%
%TO.N,GND*%
X108000000Y-119950000D03*
D23*
%TO.P,J12,3*%
X112800000Y-116550000D03*
%TD*%
D10*
%TO.P,J7,1,Pin_1*%
%TO.N,Net-(J5-Pin_2)*%
X150800000Y-78000000D03*
D11*
%TO.P,J7,2,Pin_2*%
%TO.N,GND*%
X153340000Y-78000000D03*
%TD*%
D10*
%TO.P,J11,1,Pin_1*%
%TO.N,VAR_V*%
X104750000Y-78000000D03*
D11*
%TO.P,J11,2,Pin_2*%
%TO.N,GND*%
X107290000Y-78000000D03*
%TD*%
D24*
%TO.N,GND*%
X135250000Y-98500000D03*
D25*
X114750000Y-98500000D03*
X114500000Y-101250000D03*
X115300000Y-99327500D03*
D24*
X133000000Y-97500000D03*
X133000000Y-99250000D03*
D25*
X110750000Y-96000000D03*
X114250000Y-99250000D03*
D24*
X109500000Y-96000000D03*
%TO.N,/BARREL*%
X114000000Y-98250000D03*
X109750000Y-101500000D03*
D26*
X115800000Y-111800000D03*
D25*
X136200000Y-98200000D03*
D26*
%TO.N,VAR_V*%
X117400000Y-102000000D03*
D25*
%TO.N,5V*%
X141800000Y-116400000D03*
X133200000Y-108800000D03*
D26*
X144800000Y-87800000D03*
D25*
X129400000Y-116000000D03*
D26*
%TO.N,3.3V*%
X142000000Y-86200000D03*
X131600000Y-88600000D03*
D27*
%TO.N,Net-(IC2-EN)*%
X131400000Y-91800000D03*
X130847466Y-87200000D03*
D24*
%TO.N,/SCL*%
X152250000Y-117000000D03*
%TO.N,/SDA*%
X148750000Y-118250000D03*
D25*
%TO.N,/PB1*%
X129750000Y-105250000D03*
X151250000Y-119750000D03*
X133000000Y-107000000D03*
%TD*%
D28*
%TO.N,GND*%
X114500000Y-101250000D02*
X114500000Y-99500000D01*
X114500000Y-99500000D02*
X114250000Y-99250000D01*
D29*
%TO.N,/BARREL*%
X124341083Y-119141083D02*
X118100000Y-112900000D01*
D30*
X123700000Y-112900000D02*
X118100000Y-112900000D01*
X136600000Y-98600000D02*
X136600000Y-100000000D01*
X110750000Y-101500000D02*
X109750000Y-101500000D01*
X114000000Y-98250000D02*
X110750000Y-101500000D01*
X136200000Y-98200000D02*
X136600000Y-98600000D01*
X136600000Y-100000000D02*
X123700000Y-112900000D01*
D29*
X113950000Y-113650000D02*
X114700000Y-112900000D01*
X124341083Y-122585000D02*
X124341083Y-119141083D01*
X114700000Y-112900000D02*
X115800000Y-111800000D01*
X118100000Y-112900000D02*
X114700000Y-112900000D01*
X108000000Y-113650000D02*
X113950000Y-113650000D01*
%TO.N,VAR_V*%
X117400000Y-102000000D02*
X114900000Y-104500000D01*
X105850000Y-104500000D02*
X104000000Y-106350000D01*
X104750000Y-78000000D02*
X104750000Y-81250000D01*
X104750000Y-81250000D02*
X108750000Y-85250000D01*
X114900000Y-104500000D02*
X105850000Y-104500000D01*
%TO.N,5V*%
X126714333Y-83406000D02*
X125063333Y-81755000D01*
D30*
X148200000Y-120400000D02*
X144200000Y-116400000D01*
X129900000Y-115500000D02*
X140900000Y-115500000D01*
X150930000Y-126050000D02*
X148200000Y-123320000D01*
X148200000Y-123320000D02*
X148200000Y-120400000D01*
D29*
X144800000Y-86200000D02*
X144800000Y-87800000D01*
D30*
X140900000Y-115500000D02*
X141800000Y-116400000D01*
D29*
X137621667Y-83600000D02*
X142200000Y-83600000D01*
D30*
X133000000Y-109000000D02*
X133200000Y-108800000D01*
X129400000Y-116000000D02*
X129900000Y-115500000D01*
D29*
X135756667Y-81735000D02*
X137621667Y-83600000D01*
X135756667Y-81735000D02*
X134085667Y-83406000D01*
X134085667Y-83406000D02*
X126714333Y-83406000D01*
X142200000Y-83600000D02*
X144800000Y-86200000D01*
D30*
X133000000Y-112400000D02*
X133000000Y-109000000D01*
X144200000Y-116400000D02*
X141800000Y-116400000D01*
X129900000Y-115500000D02*
X133000000Y-112400000D01*
D29*
%TO.N,3.3V*%
X140000000Y-88200000D02*
X139800000Y-88200000D01*
X132000000Y-88200000D02*
X131600000Y-88600000D01*
X139800000Y-88200000D02*
X132000000Y-88200000D01*
X142000000Y-86200000D02*
X140000000Y-88200000D01*
D31*
%TO.N,Net-(IC2-EN)*%
X131400000Y-91200000D02*
X131400000Y-91800000D01*
X129600000Y-89400000D02*
X131400000Y-91200000D01*
X129600000Y-88447466D02*
X129600000Y-89400000D01*
X130847466Y-87200000D02*
X129600000Y-88447466D01*
D30*
%TO.N,Net-(J5-Pin_2)*%
X149434000Y-80434000D02*
X150800000Y-81800000D01*
D29*
X150800000Y-83050000D02*
X153000000Y-85250000D01*
D30*
X138296667Y-81735000D02*
X139597667Y-80434000D01*
D29*
X150800000Y-78000000D02*
X150800000Y-81800000D01*
D30*
X139597667Y-80434000D02*
X149434000Y-80434000D01*
D29*
X150800000Y-81800000D02*
X150800000Y-83050000D01*
D28*
%TO.N,/SCL*%
X130649000Y-89775834D02*
X138972166Y-98099000D01*
X131390691Y-87464391D02*
X130649000Y-88206082D01*
X142961145Y-98823385D02*
X142961145Y-105448855D01*
X130649000Y-88206082D02*
X130649000Y-89775834D01*
X127492333Y-86724000D02*
X131044632Y-86724000D01*
X148208520Y-117000000D02*
X152250000Y-117000000D01*
X131044632Y-86724000D02*
X131390691Y-87070059D01*
X142236760Y-98099000D02*
X142961145Y-98823385D01*
X131390691Y-87070059D02*
X131390691Y-87464391D01*
X141250000Y-107160000D02*
X141250000Y-110041480D01*
X138972166Y-98099000D02*
X142236760Y-98099000D01*
X142961145Y-105448855D02*
X141250000Y-107160000D01*
X122523333Y-81755000D02*
X127492333Y-86724000D01*
X141250000Y-110041480D02*
X148208520Y-117000000D01*
%TO.N,/SDA*%
X120604942Y-81755000D02*
X140659000Y-101809058D01*
X140659000Y-101809058D02*
X140659000Y-110159000D01*
X140659000Y-110159000D02*
X148750000Y-118250000D01*
X119983333Y-81755000D02*
X120604942Y-81755000D01*
D30*
%TO.N,/PB1*%
X149750000Y-120000000D02*
X151000000Y-120000000D01*
X117443333Y-92943333D02*
X129750000Y-105250000D01*
X133000000Y-107000000D02*
X136650058Y-107000000D01*
X136650058Y-107000000D02*
X149650058Y-120000000D01*
X149650058Y-120000000D02*
X149750000Y-120000000D01*
X117443333Y-81755000D02*
X117443333Y-92943333D01*
X151000000Y-120000000D02*
X151250000Y-119750000D01*
%TD*%
%TA.AperFunction,Conductor*%
%TO.N,GND*%
G36*
X108967077Y-75701770D02*
G01*
X108971484Y-75700808D01*
X109000297Y-75711525D01*
X109029789Y-75720185D01*
X109033926Y-75724033D01*
X109036971Y-75725166D01*
X109061949Y-75750099D01*
X109139135Y-75853014D01*
X109139136Y-75853014D01*
X109147799Y-75864565D01*
X112077109Y-79770313D01*
X112085296Y-79782713D01*
X112099498Y-79807311D01*
X112099501Y-79807316D01*
X112114705Y-79822519D01*
X112126225Y-79835800D01*
X112139135Y-79853014D01*
X112167337Y-79875151D01*
X112192686Y-79900500D01*
X112218939Y-79915657D01*
X112225874Y-79921100D01*
X112242793Y-79934381D01*
X112242800Y-79934385D01*
X112268916Y-79945540D01*
X112282209Y-79952186D01*
X112306814Y-79966392D01*
X112306816Y-79966392D01*
X112306817Y-79966393D01*
X112327588Y-79971959D01*
X112327589Y-79971959D01*
X112336104Y-79974240D01*
X112363988Y-79986151D01*
X112399474Y-79991219D01*
X112406664Y-79993146D01*
X112434108Y-80000500D01*
X112464433Y-80000500D01*
X112494449Y-80004788D01*
X112530041Y-80000500D01*
X139094701Y-80000500D01*
X139161740Y-80020185D01*
X139207495Y-80072989D01*
X139217439Y-80142147D01*
X139188414Y-80205703D01*
X139182382Y-80212181D01*
X138705508Y-80689053D01*
X138644185Y-80722538D01*
X138593636Y-80722989D01*
X138400136Y-80684500D01*
X138400132Y-80684500D01*
X138193202Y-80684500D01*
X138193197Y-80684500D01*
X137990254Y-80724868D01*
X137990246Y-80724870D01*
X137799070Y-80804058D01*
X137627009Y-80919024D01*
X137480691Y-81065342D01*
X137365725Y-81237403D01*
X137286537Y-81428579D01*
X137286535Y-81428587D01*
X137246167Y-81631530D01*
X137246167Y-81793060D01*
X137226482Y-81860099D01*
X137173678Y-81905854D01*
X137104520Y-81915798D01*
X137040964Y-81886773D01*
X137034486Y-81880741D01*
X136843486Y-81689741D01*
X136810001Y-81628418D01*
X136807167Y-81602060D01*
X136807167Y-80865249D01*
X136807166Y-80865247D01*
X136795535Y-80806770D01*
X136795534Y-80806769D01*
X136751219Y-80740447D01*
X136684897Y-80696132D01*
X136684896Y-80696131D01*
X136626419Y-80684500D01*
X136626415Y-80684500D01*
X134886919Y-80684500D01*
X134886914Y-80684500D01*
X134828437Y-80696131D01*
X134828436Y-80696132D01*
X134762114Y-80740447D01*
X134717799Y-80806769D01*
X134717798Y-80806770D01*
X134706167Y-80865247D01*
X134706167Y-81602060D01*
X134686482Y-81669099D01*
X134669848Y-81689741D01*
X133790408Y-82569181D01*
X133729085Y-82602666D01*
X133702727Y-82605500D01*
X128529860Y-82605500D01*
X128462821Y-82585815D01*
X128417066Y-82533011D01*
X128407122Y-82463853D01*
X128426758Y-82412609D01*
X128533827Y-82252368D01*
X128533832Y-82252358D01*
X128612982Y-82061274D01*
X128612984Y-82061266D01*
X128653332Y-81858420D01*
X128653333Y-81858417D01*
X128653333Y-81651583D01*
X128653332Y-81651579D01*
X128612984Y-81448733D01*
X128612982Y-81448725D01*
X128533832Y-81257640D01*
X128431146Y-81103960D01*
X128034061Y-81501045D01*
X128003432Y-81447993D01*
X127910340Y-81354901D01*
X127857285Y-81324269D01*
X128254370Y-80927185D01*
X128254370Y-80927184D01*
X128100701Y-80824505D01*
X128100691Y-80824500D01*
X127909607Y-80745350D01*
X127909599Y-80745348D01*
X127706753Y-80705000D01*
X127499912Y-80705000D01*
X127297066Y-80745348D01*
X127297058Y-80745350D01*
X127105969Y-80824502D01*
X127105968Y-80824502D01*
X126952294Y-80927183D01*
X126952294Y-80927185D01*
X127349379Y-81324270D01*
X127296326Y-81354901D01*
X127203234Y-81447993D01*
X127172603Y-81501046D01*
X126775518Y-81103961D01*
X126775516Y-81103961D01*
X126672835Y-81257635D01*
X126672835Y-81257636D01*
X126593683Y-81448725D01*
X126593681Y-81448733D01*
X126553333Y-81651579D01*
X126553333Y-81813560D01*
X126533648Y-81880599D01*
X126480844Y-81926354D01*
X126411686Y-81936298D01*
X126348130Y-81907273D01*
X126341652Y-81901241D01*
X126145865Y-81705454D01*
X126112380Y-81644131D01*
X126111929Y-81641964D01*
X126109854Y-81631534D01*
X126073463Y-81448580D01*
X125994274Y-81257402D01*
X125879310Y-81085345D01*
X125879308Y-81085342D01*
X125732990Y-80939024D01*
X125622581Y-80865252D01*
X125560931Y-80824059D01*
X125369753Y-80744870D01*
X125369745Y-80744868D01*
X125166802Y-80704500D01*
X125166798Y-80704500D01*
X124959868Y-80704500D01*
X124959863Y-80704500D01*
X124756920Y-80744868D01*
X124756912Y-80744870D01*
X124565736Y-80824058D01*
X124393675Y-80939024D01*
X124247357Y-81085342D01*
X124132391Y-81257403D01*
X124053203Y-81448579D01*
X124053201Y-81448587D01*
X124012833Y-81651530D01*
X124012833Y-81858469D01*
X124053201Y-82061412D01*
X124053203Y-82061420D01*
X124132391Y-82252596D01*
X124247357Y-82424657D01*
X124393675Y-82570975D01*
X124393678Y-82570977D01*
X124565735Y-82685941D01*
X124756913Y-82765130D01*
X124950297Y-82803596D01*
X125012208Y-82835980D01*
X125013787Y-82837532D01*
X126204040Y-84027786D01*
X126204044Y-84027789D01*
X126335147Y-84115390D01*
X126335151Y-84115392D01*
X126335154Y-84115394D01*
X126480836Y-84175738D01*
X126635486Y-84206499D01*
X126635490Y-84206500D01*
X126635491Y-84206500D01*
X134164511Y-84206500D01*
X134164512Y-84206499D01*
X134319164Y-84175737D01*
X134464846Y-84115394D01*
X134595956Y-84027789D01*
X135668986Y-82954757D01*
X135730309Y-82921273D01*
X135800000Y-82926257D01*
X135844348Y-82954758D01*
X136995537Y-84105947D01*
X136995558Y-84105970D01*
X137111374Y-84221786D01*
X137111378Y-84221789D01*
X137242481Y-84309390D01*
X137242494Y-84309397D01*
X137388165Y-84369735D01*
X137388170Y-84369737D01*
X137388174Y-84369737D01*
X137388175Y-84369738D01*
X137542821Y-84400500D01*
X137542824Y-84400500D01*
X137542825Y-84400500D01*
X141817060Y-84400500D01*
X141884099Y-84420185D01*
X141904741Y-84436819D01*
X143963181Y-86495259D01*
X143996666Y-86556582D01*
X143999500Y-86582940D01*
X143999500Y-87878846D01*
X144030261Y-88033489D01*
X144030264Y-88033501D01*
X144090602Y-88179172D01*
X144090609Y-88179185D01*
X144178210Y-88310288D01*
X144178213Y-88310292D01*
X144289707Y-88421786D01*
X144289711Y-88421789D01*
X144420814Y-88509390D01*
X144420827Y-88509397D01*
X144558968Y-88566616D01*
X144566503Y-88569737D01*
X144721153Y-88600499D01*
X144721156Y-88600500D01*
X144721158Y-88600500D01*
X144878844Y-88600500D01*
X144878845Y-88600499D01*
X145033497Y-88569737D01*
X145179179Y-88509394D01*
X145310289Y-88421789D01*
X145421789Y-88310289D01*
X145509394Y-88179179D01*
X145569737Y-88033497D01*
X145600500Y-87878842D01*
X145600500Y-86121158D01*
X145600500Y-86121155D01*
X145600499Y-86121153D01*
X145573170Y-85983763D01*
X145569737Y-85966503D01*
X145569735Y-85966498D01*
X145509397Y-85820827D01*
X145509390Y-85820814D01*
X145421790Y-85689712D01*
X145421785Y-85689707D01*
X145310289Y-85578211D01*
X144871896Y-85139818D01*
X148100000Y-85139818D01*
X148100000Y-85360181D01*
X148134473Y-85577835D01*
X148202567Y-85787410D01*
X148302615Y-85983763D01*
X148423320Y-86149900D01*
X148423321Y-86149901D01*
X148996064Y-85577157D01*
X149019881Y-85618408D01*
X149131592Y-85730119D01*
X149172840Y-85753934D01*
X148600097Y-86326677D01*
X148600098Y-86326679D01*
X148766236Y-86447384D01*
X148962589Y-86547432D01*
X149172164Y-86615526D01*
X149389819Y-86650000D01*
X149610181Y-86650000D01*
X149827835Y-86615526D01*
X150037410Y-86547432D01*
X150233760Y-86447386D01*
X150399900Y-86326677D01*
X150399901Y-86326676D01*
X149827159Y-85753934D01*
X149868408Y-85730119D01*
X149980119Y-85618408D01*
X150003934Y-85577158D01*
X150576676Y-86149901D01*
X150576677Y-86149900D01*
X150697386Y-85983760D01*
X150797432Y-85787410D01*
X150865526Y-85577835D01*
X150900000Y-85360181D01*
X150900000Y-85139818D01*
X150865526Y-84922164D01*
X150797432Y-84712589D01*
X150697384Y-84516236D01*
X150576679Y-84350098D01*
X150576677Y-84350097D01*
X150003934Y-84922840D01*
X149980119Y-84881592D01*
X149868408Y-84769881D01*
X149827158Y-84746065D01*
X150399901Y-84173321D01*
X150399900Y-84173320D01*
X150233763Y-84052615D01*
X150037410Y-83952567D01*
X149827835Y-83884473D01*
X149610181Y-83850000D01*
X149389819Y-83850000D01*
X149172164Y-83884473D01*
X148962589Y-83952567D01*
X148766236Y-84052615D01*
X148600098Y-84173320D01*
X148600098Y-84173322D01*
X149172841Y-84746065D01*
X149131592Y-84769881D01*
X149019881Y-84881592D01*
X148996065Y-84922841D01*
X148423322Y-84350098D01*
X148423320Y-84350098D01*
X148302615Y-84516236D01*
X148202567Y-84712589D01*
X148134473Y-84922164D01*
X148100000Y-85139818D01*
X144871896Y-85139818D01*
X143545259Y-83813181D01*
X142710292Y-82978213D01*
X142710288Y-82978210D01*
X142579185Y-82890609D01*
X142579172Y-82890602D01*
X142433501Y-82830264D01*
X142433489Y-82830261D01*
X142278845Y-82799500D01*
X142278842Y-82799500D01*
X141543154Y-82799500D01*
X141476115Y-82779815D01*
X141430360Y-82727011D01*
X141420416Y-82657853D01*
X141449441Y-82594297D01*
X141474264Y-82572397D01*
X141506322Y-82550977D01*
X141652644Y-82404655D01*
X141767608Y-82232598D01*
X141846797Y-82041420D01*
X141887167Y-81838465D01*
X141887167Y-81631535D01*
X141846797Y-81428580D01*
X141767608Y-81237402D01*
X141767607Y-81237400D01*
X141767607Y-81237399D01*
X141660693Y-81077390D01*
X141639815Y-81010713D01*
X141658300Y-80943333D01*
X141710279Y-80896643D01*
X141763795Y-80884500D01*
X149196035Y-80884500D01*
X149263074Y-80904185D01*
X149283716Y-80920819D01*
X149963181Y-81600284D01*
X149996666Y-81661607D01*
X149999500Y-81687965D01*
X149999500Y-83128846D01*
X150030261Y-83283489D01*
X150030264Y-83283501D01*
X150090602Y-83429172D01*
X150090609Y-83429185D01*
X150178210Y-83560288D01*
X150178213Y-83560292D01*
X151563181Y-84945259D01*
X151596666Y-85006582D01*
X151599500Y-85032940D01*
X151599500Y-86254258D01*
X151602354Y-86284698D01*
X151602354Y-86284699D01*
X151647206Y-86412881D01*
X151662421Y-86433497D01*
X151727850Y-86522150D01*
X151837118Y-86602793D01*
X151965302Y-86647646D01*
X151965301Y-86647646D01*
X151969271Y-86648018D01*
X151995735Y-86650500D01*
X154004264Y-86650499D01*
X154034698Y-86647646D01*
X154162882Y-86602793D01*
X154272150Y-86522150D01*
X154352793Y-86412882D01*
X154397646Y-86284698D01*
X154400500Y-86254265D01*
X154400499Y-84245736D01*
X154397646Y-84215302D01*
X154352793Y-84087118D01*
X154272150Y-83977850D01*
X154162882Y-83897207D01*
X154162881Y-83897206D01*
X154034695Y-83852353D01*
X154034698Y-83852353D01*
X154004269Y-83849500D01*
X154004265Y-83849500D01*
X152782940Y-83849500D01*
X152715901Y-83829815D01*
X152695259Y-83813181D01*
X151636819Y-82754741D01*
X151603334Y-82693418D01*
X151600500Y-82667060D01*
X151600500Y-79166038D01*
X151620185Y-79098999D01*
X151672989Y-79053244D01*
X151700305Y-79044421D01*
X151728231Y-79038867D01*
X151794552Y-78994552D01*
X151838867Y-78928231D01*
X151838867Y-78928229D01*
X151838868Y-78928229D01*
X151850499Y-78869752D01*
X151850500Y-78869750D01*
X151850500Y-77896579D01*
X152290000Y-77896579D01*
X152290000Y-78103420D01*
X152330348Y-78306266D01*
X152330350Y-78306274D01*
X152409500Y-78497358D01*
X152409505Y-78497368D01*
X152512185Y-78651037D01*
X152909270Y-78253952D01*
X152939901Y-78307007D01*
X153032993Y-78400099D01*
X153086046Y-78430729D01*
X152688961Y-78827814D01*
X152842640Y-78930499D01*
X153033725Y-79009649D01*
X153033733Y-79009651D01*
X153236579Y-79049999D01*
X153236583Y-79050000D01*
X153443417Y-79050000D01*
X153443420Y-79049999D01*
X153646266Y-79009651D01*
X153646274Y-79009649D01*
X153837359Y-78930499D01*
X153991038Y-78827814D01*
X153593953Y-78430729D01*
X153647007Y-78400099D01*
X153740099Y-78307007D01*
X153770729Y-78253953D01*
X154167814Y-78651038D01*
X154270499Y-78497359D01*
X154349649Y-78306274D01*
X154349651Y-78306266D01*
X154389999Y-78103420D01*
X154390000Y-78103417D01*
X154390000Y-77896583D01*
X154389999Y-77896579D01*
X154349651Y-77693733D01*
X154349649Y-77693725D01*
X154270499Y-77502640D01*
X154167814Y-77348961D01*
X153770729Y-77746045D01*
X153740099Y-77692993D01*
X153647007Y-77599901D01*
X153593953Y-77569270D01*
X153991037Y-77172185D01*
X153991037Y-77172184D01*
X153837368Y-77069505D01*
X153837358Y-77069500D01*
X153646274Y-76990350D01*
X153646266Y-76990348D01*
X153443420Y-76950000D01*
X153236579Y-76950000D01*
X153033733Y-76990348D01*
X153033725Y-76990350D01*
X152842636Y-77069502D01*
X152842635Y-77069502D01*
X152688961Y-77172183D01*
X152688961Y-77172185D01*
X153086046Y-77569270D01*
X153032993Y-77599901D01*
X152939901Y-77692993D01*
X152909270Y-77746046D01*
X152512185Y-77348961D01*
X152512183Y-77348961D01*
X152409502Y-77502635D01*
X152409502Y-77502636D01*
X152330350Y-77693725D01*
X152330348Y-77693733D01*
X152290000Y-77896579D01*
X151850500Y-77896579D01*
X151850500Y-77130249D01*
X151850499Y-77130247D01*
X151838868Y-77071770D01*
X151838867Y-77071769D01*
X151794552Y-77005447D01*
X151728230Y-76961132D01*
X151728229Y-76961131D01*
X151669752Y-76949500D01*
X151669748Y-76949500D01*
X149930252Y-76949500D01*
X149930247Y-76949500D01*
X149871770Y-76961131D01*
X149871769Y-76961132D01*
X149805447Y-77005447D01*
X149761132Y-77071769D01*
X149761131Y-77071770D01*
X149749500Y-77130247D01*
X149749500Y-78869752D01*
X149761131Y-78928229D01*
X149761132Y-78928230D01*
X149805447Y-78994552D01*
X149849762Y-79024162D01*
X149871769Y-79038867D01*
X149899690Y-79044421D01*
X149961601Y-79076804D01*
X149996176Y-79137519D01*
X149999500Y-79166038D01*
X149999500Y-80063034D01*
X149979815Y-80130073D01*
X149927011Y-80175828D01*
X149857853Y-80185772D01*
X149794297Y-80156747D01*
X149787819Y-80150716D01*
X149767176Y-80130073D01*
X149710614Y-80073511D01*
X149668922Y-80049440D01*
X149607885Y-80014199D01*
X149572757Y-80004788D01*
X149522120Y-79991220D01*
X149493309Y-79983500D01*
X149493308Y-79983500D01*
X145444854Y-79983500D01*
X145377815Y-79963815D01*
X145332060Y-79911011D01*
X145322116Y-79841853D01*
X145351141Y-79778297D01*
X145354954Y-79774095D01*
X145996295Y-79098999D01*
X148607382Y-76350485D01*
X148609522Y-76348290D01*
X149020995Y-75936819D01*
X149082318Y-75903334D01*
X149108676Y-75900500D01*
X155134108Y-75900500D01*
X155190243Y-75900500D01*
X155209640Y-75902027D01*
X155225080Y-75904472D01*
X155273154Y-75912086D01*
X155310046Y-75924073D01*
X155358544Y-75948783D01*
X155389929Y-75971586D01*
X155428413Y-76010070D01*
X155451217Y-76041457D01*
X155475925Y-76089950D01*
X155487913Y-76126845D01*
X155497973Y-76190358D01*
X155499500Y-76209757D01*
X155499500Y-127793038D01*
X155498720Y-127806922D01*
X155498720Y-127806923D01*
X155488540Y-127897264D01*
X155482362Y-127924333D01*
X155454648Y-128003537D01*
X155442600Y-128028555D01*
X155397957Y-128099604D01*
X155380644Y-128121313D01*
X155321313Y-128180644D01*
X155299604Y-128197957D01*
X155228555Y-128242600D01*
X155203537Y-128254648D01*
X155124333Y-128282362D01*
X155097264Y-128288540D01*
X155017075Y-128297576D01*
X155006921Y-128298720D01*
X154993038Y-128299500D01*
X103006962Y-128299500D01*
X102993078Y-128298720D01*
X102980553Y-128297308D01*
X102902735Y-128288540D01*
X102875666Y-128282362D01*
X102796462Y-128254648D01*
X102771444Y-128242600D01*
X102700395Y-128197957D01*
X102678686Y-128180644D01*
X102619355Y-128121313D01*
X102602042Y-128099604D01*
X102557399Y-128028555D01*
X102545351Y-128003537D01*
X102517637Y-127924333D01*
X102511459Y-127897263D01*
X102501280Y-127806922D01*
X102500500Y-127793038D01*
X102500500Y-125618946D01*
X132007166Y-125618946D01*
X132034066Y-125754176D01*
X132034069Y-125754186D01*
X132086831Y-125881566D01*
X132086838Y-125881579D01*
X132163442Y-125996226D01*
X132260940Y-126093724D01*
X132375587Y-126170328D01*
X132375600Y-126170335D01*
X132502981Y-126223097D01*
X132502993Y-126223100D01*
X132582167Y-126238849D01*
X132582167Y-125768821D01*
X132657439Y-125800000D01*
X132756895Y-125800000D01*
X132832167Y-125768821D01*
X132832167Y-126238848D01*
X132911340Y-126223100D01*
X132911352Y-126223097D01*
X133038733Y-126170335D01*
X133038746Y-126170328D01*
X133153393Y-126093724D01*
X133250891Y-125996226D01*
X133327495Y-125881579D01*
X133327502Y-125881566D01*
X133380264Y-125754186D01*
X133380267Y-125754176D01*
X133393717Y-125686559D01*
X137732166Y-125686559D01*
X137756184Y-125807300D01*
X137756187Y-125807310D01*
X137803295Y-125921041D01*
X137803302Y-125921054D01*
X137871697Y-126023413D01*
X137871700Y-126023417D01*
X137958749Y-126110466D01*
X137958753Y-126110469D01*
X138061112Y-126178864D01*
X138061124Y-126178871D01*
X138174859Y-126225980D01*
X138174868Y-126225983D01*
X138232166Y-126237380D01*
X138232167Y-126237379D01*
X138232167Y-125768821D01*
X138307439Y-125800000D01*
X138406895Y-125800000D01*
X138482167Y-125768821D01*
X138482167Y-126237380D01*
X138539465Y-126225983D01*
X138539474Y-126225980D01*
X138653209Y-126178871D01*
X138653221Y-126178864D01*
X138755580Y-126110469D01*
X138755584Y-126110466D01*
X138842633Y-126023417D01*
X138842636Y-126023413D01*
X138911031Y-125921054D01*
X138911038Y-125921041D01*
X138958146Y-125807310D01*
X138958149Y-125807300D01*
X138982167Y-125686559D01*
X138982167Y-125325000D01*
X138607167Y-125325000D01*
X138607167Y-125180247D01*
X144799500Y-125180247D01*
X144799500Y-126919752D01*
X144811131Y-126978229D01*
X144811132Y-126978230D01*
X144855447Y-127044552D01*
X144921769Y-127088867D01*
X144921770Y-127088868D01*
X144980247Y-127100499D01*
X144980250Y-127100500D01*
X144980252Y-127100500D01*
X146719750Y-127100500D01*
X146719751Y-127100499D01*
X146734568Y-127097552D01*
X146778229Y-127088868D01*
X146778229Y-127088867D01*
X146778231Y-127088867D01*
X146844552Y-127044552D01*
X146888867Y-126978231D01*
X146888867Y-126978229D01*
X146888868Y-126978229D01*
X146900499Y-126919752D01*
X146900500Y-126919750D01*
X146900500Y-125946530D01*
X147339500Y-125946530D01*
X147339500Y-126153469D01*
X147379868Y-126356412D01*
X147379870Y-126356420D01*
X147459058Y-126547596D01*
X147574024Y-126719657D01*
X147720342Y-126865975D01*
X147720345Y-126865977D01*
X147892402Y-126980941D01*
X148083580Y-127060130D01*
X148228052Y-127088867D01*
X148286530Y-127100499D01*
X148286534Y-127100500D01*
X148286535Y-127100500D01*
X148493466Y-127100500D01*
X148493467Y-127100499D01*
X148696420Y-127060130D01*
X148887598Y-126980941D01*
X149059655Y-126865977D01*
X149205977Y-126719655D01*
X149320941Y-126547598D01*
X149400130Y-126356420D01*
X149440500Y-126153465D01*
X149440500Y-125946535D01*
X149400130Y-125743580D01*
X149320941Y-125552402D01*
X149205977Y-125380345D01*
X149205975Y-125380342D01*
X149059657Y-125234024D01*
X148891655Y-125121770D01*
X148887598Y-125119059D01*
X148696420Y-125039870D01*
X148696412Y-125039868D01*
X148493469Y-124999500D01*
X148493465Y-124999500D01*
X148286535Y-124999500D01*
X148286530Y-124999500D01*
X148083587Y-125039868D01*
X148083579Y-125039870D01*
X147892403Y-125119058D01*
X147720342Y-125234024D01*
X147574024Y-125380342D01*
X147459058Y-125552403D01*
X147379870Y-125743579D01*
X147379868Y-125743587D01*
X147339500Y-125946530D01*
X146900500Y-125946530D01*
X146900500Y-125180249D01*
X146900499Y-125180247D01*
X146888868Y-125121770D01*
X146888867Y-125121769D01*
X146844552Y-125055447D01*
X146778230Y-125011132D01*
X146778229Y-125011131D01*
X146719752Y-124999500D01*
X146719748Y-124999500D01*
X144980252Y-124999500D01*
X144980247Y-124999500D01*
X144921770Y-125011131D01*
X144921769Y-125011132D01*
X144855447Y-125055447D01*
X144811132Y-125121769D01*
X144811131Y-125121770D01*
X144799500Y-125180247D01*
X138607167Y-125180247D01*
X138607167Y-125075000D01*
X138982167Y-125075000D01*
X138982167Y-124713440D01*
X138958149Y-124592699D01*
X138958146Y-124592689D01*
X138911038Y-124478958D01*
X138911031Y-124478945D01*
X138842636Y-124376586D01*
X138842633Y-124376582D01*
X138755584Y-124289533D01*
X138755580Y-124289530D01*
X138653221Y-124221135D01*
X138653208Y-124221128D01*
X138539475Y-124174019D01*
X138539468Y-124174017D01*
X138482167Y-124162618D01*
X138482167Y-124631178D01*
X138406895Y-124600000D01*
X138307439Y-124600000D01*
X138232167Y-124631178D01*
X138232167Y-124162619D01*
X138232166Y-124162618D01*
X138174865Y-124174017D01*
X138174858Y-124174019D01*
X138061125Y-124221128D01*
X138061112Y-124221135D01*
X137958753Y-124289530D01*
X137958749Y-124289533D01*
X137871700Y-124376582D01*
X137871697Y-124376586D01*
X137803302Y-124478945D01*
X137803295Y-124478958D01*
X137756187Y-124592689D01*
X137756184Y-124592699D01*
X137732167Y-124713440D01*
X137732167Y-125075000D01*
X138107167Y-125075000D01*
X138107167Y-125325000D01*
X137732167Y-125325000D01*
X137732167Y-125686559D01*
X137732166Y-125686559D01*
X133393717Y-125686559D01*
X133407167Y-125618946D01*
X133407167Y-125325000D01*
X132957167Y-125325000D01*
X132957167Y-125075000D01*
X133407167Y-125075000D01*
X133407167Y-124781054D01*
X133397318Y-124731544D01*
X133397318Y-124731542D01*
X133380267Y-124645825D01*
X133380264Y-124645813D01*
X133327502Y-124518433D01*
X133327495Y-124518420D01*
X133250891Y-124403773D01*
X133153393Y-124306275D01*
X133038746Y-124229671D01*
X133038733Y-124229664D01*
X132911351Y-124176901D01*
X132911343Y-124176899D01*
X132832167Y-124161149D01*
X132832167Y-124631178D01*
X132756895Y-124600000D01*
X132657439Y-124600000D01*
X132582167Y-124631178D01*
X132582167Y-124161150D01*
X132582166Y-124161149D01*
X132502990Y-124176899D01*
X132502982Y-124176901D01*
X132375600Y-124229664D01*
X132375587Y-124229671D01*
X132260940Y-124306275D01*
X132163442Y-124403773D01*
X132086838Y-124518420D01*
X132086831Y-124518433D01*
X132034069Y-124645813D01*
X132034066Y-124645823D01*
X132007167Y-124781053D01*
X132007167Y-125075000D01*
X132457167Y-125075000D01*
X132457167Y-125325000D01*
X132007167Y-125325000D01*
X132007167Y-125618946D01*
X132007166Y-125618946D01*
X102500500Y-125618946D01*
X102500500Y-121580794D01*
X119441083Y-121580794D01*
X119441083Y-122460000D01*
X120253411Y-122460000D01*
X120241083Y-122506009D01*
X120241083Y-122663991D01*
X120253411Y-122710000D01*
X119441083Y-122710000D01*
X119441083Y-123589205D01*
X119443933Y-123619599D01*
X119443933Y-123619603D01*
X119488736Y-123747644D01*
X119569291Y-123856791D01*
X119678438Y-123937346D01*
X119806481Y-123982149D01*
X119836877Y-123985000D01*
X120716083Y-123985000D01*
X120716083Y-123172671D01*
X120762092Y-123185000D01*
X120920074Y-123185000D01*
X120966083Y-123172671D01*
X120966083Y-123985000D01*
X121845289Y-123985000D01*
X121875682Y-123982149D01*
X121875686Y-123982149D01*
X122003727Y-123937346D01*
X122112874Y-123856791D01*
X122193429Y-123747644D01*
X122238232Y-123619603D01*
X122238232Y-123619599D01*
X122241083Y-123589205D01*
X122241083Y-122710000D01*
X121428755Y-122710000D01*
X121441083Y-122663991D01*
X121441083Y-122506009D01*
X121428755Y-122460000D01*
X122241083Y-122460000D01*
X122241083Y-121580794D01*
X122238232Y-121550400D01*
X122238232Y-121550396D01*
X122193429Y-121422355D01*
X122112874Y-121313208D01*
X122003727Y-121232653D01*
X121875684Y-121187850D01*
X121845289Y-121185000D01*
X120966083Y-121185000D01*
X120966083Y-121997328D01*
X120920074Y-121985000D01*
X120762092Y-121985000D01*
X120716083Y-121997328D01*
X120716083Y-121185000D01*
X119836877Y-121185000D01*
X119806483Y-121187850D01*
X119806479Y-121187850D01*
X119678438Y-121232653D01*
X119569291Y-121313208D01*
X119488736Y-121422355D01*
X119443933Y-121550396D01*
X119443933Y-121550400D01*
X119441083Y-121580794D01*
X102500500Y-121580794D01*
X102500500Y-119825000D01*
X105704840Y-119825000D01*
X106415856Y-119825000D01*
X106400000Y-119884174D01*
X106400000Y-120015826D01*
X106415856Y-120075000D01*
X105704840Y-120075000D01*
X105729548Y-120231002D01*
X105787914Y-120410637D01*
X105873670Y-120578940D01*
X105984685Y-120731741D01*
X105984689Y-120731746D01*
X106118253Y-120865310D01*
X106118258Y-120865314D01*
X106271059Y-120976329D01*
X106439362Y-121062085D01*
X106618997Y-121120451D01*
X106805553Y-121150000D01*
X107875000Y-121150000D01*
X107875000Y-120450000D01*
X108125000Y-120450000D01*
X108125000Y-121150000D01*
X109194447Y-121150000D01*
X109381002Y-121120451D01*
X109560637Y-121062085D01*
X109728940Y-120976329D01*
X109881741Y-120865314D01*
X109881746Y-120865310D01*
X110015310Y-120731746D01*
X110015314Y-120731741D01*
X110126329Y-120578940D01*
X110212085Y-120410637D01*
X110270451Y-120231002D01*
X110295160Y-120075000D01*
X109584144Y-120075000D01*
X109600000Y-120015826D01*
X109600000Y-119884174D01*
X109584144Y-119825000D01*
X110295160Y-119825000D01*
X110270451Y-119668997D01*
X110212085Y-119489362D01*
X110126329Y-119321059D01*
X110015314Y-119168258D01*
X110015310Y-119168253D01*
X109881746Y-119034689D01*
X109881741Y-119034685D01*
X109728940Y-118923670D01*
X109560637Y-118837914D01*
X109381002Y-118779548D01*
X109194447Y-118750000D01*
X108125000Y-118750000D01*
X108125000Y-119450000D01*
X107875000Y-119450000D01*
X107875000Y-118750000D01*
X106805553Y-118750000D01*
X106618997Y-118779548D01*
X106439362Y-118837914D01*
X106271059Y-118923670D01*
X106118258Y-119034685D01*
X106118253Y-119034689D01*
X105984689Y-119168253D01*
X105984685Y-119168258D01*
X105873670Y-119321059D01*
X105787914Y-119489362D01*
X105729548Y-119668997D01*
X105704840Y-119825000D01*
X102500500Y-119825000D01*
X102500500Y-112630247D01*
X105499500Y-112630247D01*
X105499500Y-114669752D01*
X105511131Y-114728229D01*
X105511132Y-114728230D01*
X105555447Y-114794552D01*
X105621769Y-114838867D01*
X105621770Y-114838868D01*
X105680247Y-114850499D01*
X105680250Y-114850500D01*
X105680252Y-114850500D01*
X110319750Y-114850500D01*
X110319751Y-114850499D01*
X110334568Y-114847552D01*
X110378229Y-114838868D01*
X110378229Y-114838867D01*
X110378231Y-114838867D01*
X110444552Y-114794552D01*
X110488867Y-114728231D01*
X110488867Y-114728229D01*
X110488868Y-114728229D01*
X110500499Y-114669752D01*
X110500500Y-114669750D01*
X110500500Y-114574500D01*
X110520185Y-114507461D01*
X110572989Y-114461706D01*
X110624500Y-114450500D01*
X111803081Y-114450500D01*
X111870120Y-114470185D01*
X111915875Y-114522989D01*
X111925819Y-114592147D01*
X111896794Y-114655703D01*
X111890762Y-114662181D01*
X111884689Y-114668253D01*
X111884685Y-114668258D01*
X111773670Y-114821059D01*
X111687914Y-114989362D01*
X111629548Y-115168997D01*
X111600000Y-115355552D01*
X111600000Y-116425000D01*
X112300000Y-116425000D01*
X112300000Y-116675000D01*
X111600000Y-116675000D01*
X111600000Y-117744447D01*
X111629548Y-117931002D01*
X111687914Y-118110637D01*
X111773670Y-118278940D01*
X111884685Y-118431741D01*
X111884689Y-118431746D01*
X112018253Y-118565310D01*
X112018258Y-118565314D01*
X112171059Y-118676329D01*
X112339362Y-118762085D01*
X112518997Y-118820451D01*
X112675000Y-118845160D01*
X112675000Y-118134144D01*
X112734174Y-118150000D01*
X112865826Y-118150000D01*
X112925000Y-118134144D01*
X112925000Y-118845159D01*
X113081002Y-118820451D01*
X113260637Y-118762085D01*
X113428940Y-118676329D01*
X113581741Y-118565314D01*
X113581746Y-118565310D01*
X113715310Y-118431746D01*
X113715314Y-118431741D01*
X113826329Y-118278940D01*
X113912085Y-118110637D01*
X113970451Y-117931002D01*
X114000000Y-117744447D01*
X114000000Y-116675000D01*
X113300000Y-116675000D01*
X113300000Y-116425000D01*
X114000000Y-116425000D01*
X114000000Y-115355552D01*
X113970451Y-115168997D01*
X113912085Y-114989362D01*
X113826329Y-114821059D01*
X113715314Y-114668258D01*
X113715310Y-114668253D01*
X113709238Y-114662181D01*
X113675753Y-114600858D01*
X113680737Y-114531166D01*
X113722609Y-114475233D01*
X113788073Y-114450816D01*
X113796919Y-114450500D01*
X114028844Y-114450500D01*
X114028845Y-114450499D01*
X114183497Y-114419737D01*
X114329179Y-114359394D01*
X114460289Y-114271789D01*
X114995259Y-113736819D01*
X115056582Y-113703334D01*
X115082940Y-113700500D01*
X117717060Y-113700500D01*
X117784099Y-113720185D01*
X117804741Y-113736819D01*
X123504264Y-119436342D01*
X123537749Y-119497665D01*
X123540583Y-119524023D01*
X123540583Y-121372301D01*
X123520898Y-121439340D01*
X123489470Y-121472618D01*
X123428718Y-121516757D01*
X123272839Y-121672636D01*
X123272835Y-121672641D01*
X123143270Y-121850974D01*
X123043187Y-122047393D01*
X123043186Y-122047396D01*
X122975068Y-122257047D01*
X122940583Y-122474778D01*
X122940583Y-122695221D01*
X122975068Y-122912952D01*
X123043186Y-123122603D01*
X123043187Y-123122606D01*
X123143270Y-123319025D01*
X123272835Y-123497358D01*
X123272839Y-123497363D01*
X123428719Y-123653243D01*
X123428724Y-123653247D01*
X123558652Y-123747644D01*
X123607061Y-123782815D01*
X123735458Y-123848237D01*
X123803476Y-123882895D01*
X123803479Y-123882896D01*
X123908304Y-123916955D01*
X124013132Y-123951015D01*
X124230861Y-123985500D01*
X124230862Y-123985500D01*
X124451304Y-123985500D01*
X124451305Y-123985500D01*
X124669034Y-123951015D01*
X124878689Y-123882895D01*
X125075105Y-123782815D01*
X125253448Y-123653242D01*
X125409325Y-123497365D01*
X125538898Y-123319022D01*
X125638978Y-123122606D01*
X125707098Y-122912951D01*
X125725420Y-122797273D01*
X133131667Y-122797273D01*
X133131667Y-122902727D01*
X133158960Y-123004587D01*
X133211687Y-123095913D01*
X133286254Y-123170480D01*
X133377580Y-123223207D01*
X133479440Y-123250500D01*
X133479442Y-123250500D01*
X133584892Y-123250500D01*
X133584894Y-123250500D01*
X133686754Y-123223207D01*
X133778080Y-123170480D01*
X133852647Y-123095913D01*
X133905374Y-123004587D01*
X133932667Y-122902727D01*
X133932667Y-122797273D01*
X137131667Y-122797273D01*
X137131667Y-122902727D01*
X137158960Y-123004587D01*
X137211687Y-123095913D01*
X137286254Y-123170480D01*
X137377580Y-123223207D01*
X137479440Y-123250500D01*
X137479442Y-123250500D01*
X137584892Y-123250500D01*
X137584894Y-123250500D01*
X137686754Y-123223207D01*
X137778080Y-123170480D01*
X137852647Y-123095913D01*
X137905374Y-123004587D01*
X137932667Y-122902727D01*
X137932667Y-122797273D01*
X137905374Y-122695413D01*
X137852647Y-122604087D01*
X137778080Y-122529520D01*
X137686754Y-122476793D01*
X137584894Y-122449500D01*
X137479440Y-122449500D01*
X137377580Y-122476793D01*
X137377577Y-122476794D01*
X137286252Y-122529521D01*
X137211688Y-122604085D01*
X137158961Y-122695410D01*
X137158960Y-122695413D01*
X137131667Y-122797273D01*
X133932667Y-122797273D01*
X133905374Y-122695413D01*
X133852647Y-122604087D01*
X133778080Y-122529520D01*
X133686754Y-122476793D01*
X133584894Y-122449500D01*
X133479440Y-122449500D01*
X133377580Y-122476793D01*
X133377577Y-122476794D01*
X133286252Y-122529521D01*
X133211688Y-122604085D01*
X133158961Y-122695410D01*
X133158960Y-122695413D01*
X133131667Y-122797273D01*
X125725420Y-122797273D01*
X125741583Y-122695222D01*
X125741583Y-122474778D01*
X125707098Y-122257049D01*
X125673038Y-122152221D01*
X125638979Y-122047396D01*
X125638978Y-122047393D01*
X125604320Y-121979375D01*
X125538898Y-121850978D01*
X125522343Y-121828192D01*
X125409330Y-121672641D01*
X125409326Y-121672636D01*
X125253447Y-121516757D01*
X125192696Y-121472618D01*
X125150031Y-121417287D01*
X125141583Y-121372301D01*
X125141583Y-119062238D01*
X125141582Y-119062236D01*
X125110820Y-118907586D01*
X125074728Y-118820451D01*
X125050480Y-118761910D01*
X125050473Y-118761897D01*
X124962873Y-118630795D01*
X124908692Y-118576614D01*
X124851372Y-118519294D01*
X122272769Y-115940691D01*
X128949500Y-115940691D01*
X128949500Y-116059309D01*
X128966670Y-116123387D01*
X128969341Y-116133358D01*
X128969342Y-116133361D01*
X128980199Y-116173884D01*
X128980201Y-116173887D01*
X129039511Y-116276614D01*
X129123386Y-116360489D01*
X129226113Y-116419799D01*
X129250321Y-116426284D01*
X129250324Y-116426286D01*
X129250325Y-116426286D01*
X129280447Y-116434357D01*
X129340691Y-116450500D01*
X129340693Y-116450500D01*
X129459308Y-116450500D01*
X129459309Y-116450500D01*
X129549673Y-116426286D01*
X129573887Y-116419799D01*
X129676614Y-116360489D01*
X130050285Y-115986819D01*
X130111608Y-115953334D01*
X130137966Y-115950500D01*
X140662035Y-115950500D01*
X140729074Y-115970185D01*
X140749716Y-115986819D01*
X141523386Y-116760489D01*
X141626113Y-116819799D01*
X141650321Y-116826284D01*
X141650324Y-116826286D01*
X141650325Y-116826286D01*
X141680447Y-116834357D01*
X141740691Y-116850500D01*
X143962035Y-116850500D01*
X144029074Y-116870185D01*
X144049716Y-116886819D01*
X147713181Y-120550284D01*
X147746666Y-120611607D01*
X147749500Y-120637965D01*
X147749500Y-123379308D01*
X147773712Y-123469672D01*
X147780200Y-123493885D01*
X147780200Y-123493886D01*
X147782209Y-123497365D01*
X147839511Y-123596614D01*
X147839513Y-123596616D01*
X149884054Y-125641157D01*
X149917539Y-125702480D01*
X149917990Y-125753029D01*
X149879500Y-125946530D01*
X149879500Y-126153469D01*
X149919868Y-126356412D01*
X149919870Y-126356420D01*
X149999058Y-126547596D01*
X150114024Y-126719657D01*
X150260342Y-126865975D01*
X150260345Y-126865977D01*
X150432402Y-126980941D01*
X150623580Y-127060130D01*
X150768052Y-127088867D01*
X150826530Y-127100499D01*
X150826534Y-127100500D01*
X150826535Y-127100500D01*
X151033466Y-127100500D01*
X151033467Y-127100499D01*
X151236420Y-127060130D01*
X151427598Y-126980941D01*
X151599655Y-126865977D01*
X151599658Y-126865974D01*
X151721711Y-126743922D01*
X151745974Y-126719658D01*
X151745975Y-126719657D01*
X151745977Y-126719655D01*
X151860941Y-126547598D01*
X151940130Y-126356420D01*
X151980500Y-126153465D01*
X151980500Y-125946579D01*
X152420000Y-125946579D01*
X152420000Y-126153420D01*
X152460348Y-126356266D01*
X152460350Y-126356274D01*
X152539500Y-126547358D01*
X152539505Y-126547368D01*
X152642185Y-126701037D01*
X153039270Y-126303952D01*
X153069901Y-126357007D01*
X153162993Y-126450099D01*
X153216046Y-126480729D01*
X152818961Y-126877814D01*
X152972640Y-126980499D01*
X153163725Y-127059649D01*
X153163733Y-127059651D01*
X153366579Y-127099999D01*
X153366583Y-127100000D01*
X153573417Y-127100000D01*
X153573420Y-127099999D01*
X153776266Y-127059651D01*
X153776274Y-127059649D01*
X153967359Y-126980499D01*
X154121038Y-126877814D01*
X153723953Y-126480729D01*
X153777007Y-126450099D01*
X153870099Y-126357007D01*
X153900729Y-126303953D01*
X154297814Y-126701038D01*
X154400499Y-126547359D01*
X154479649Y-126356274D01*
X154479651Y-126356266D01*
X154519999Y-126153420D01*
X154520000Y-126153417D01*
X154520000Y-125946583D01*
X154519999Y-125946579D01*
X154479651Y-125743733D01*
X154479649Y-125743725D01*
X154400499Y-125552640D01*
X154297814Y-125398961D01*
X153900729Y-125796045D01*
X153870099Y-125742993D01*
X153777007Y-125649901D01*
X153723953Y-125619270D01*
X154121037Y-125222185D01*
X154121037Y-125222184D01*
X153967368Y-125119505D01*
X153967358Y-125119500D01*
X153776274Y-125040350D01*
X153776266Y-125040348D01*
X153573420Y-125000000D01*
X153366579Y-125000000D01*
X153163733Y-125040348D01*
X153163725Y-125040350D01*
X152972636Y-125119502D01*
X152972635Y-125119502D01*
X152818961Y-125222183D01*
X152818961Y-125222185D01*
X153216046Y-125619270D01*
X153162993Y-125649901D01*
X153069901Y-125742993D01*
X153039270Y-125796046D01*
X152642185Y-125398961D01*
X152642183Y-125398961D01*
X152539502Y-125552635D01*
X152539502Y-125552636D01*
X152460350Y-125743725D01*
X152460348Y-125743733D01*
X152420000Y-125946579D01*
X151980500Y-125946579D01*
X151980500Y-125946535D01*
X151940130Y-125743580D01*
X151860941Y-125552402D01*
X151745977Y-125380345D01*
X151745975Y-125380342D01*
X151599657Y-125234024D01*
X151431655Y-125121770D01*
X151427598Y-125119059D01*
X151236420Y-125039870D01*
X151236412Y-125039868D01*
X151033469Y-124999500D01*
X151033465Y-124999500D01*
X150826535Y-124999500D01*
X150826530Y-124999500D01*
X150633029Y-125037990D01*
X150563437Y-125031763D01*
X150521157Y-125004054D01*
X148686819Y-123169716D01*
X148653334Y-123108393D01*
X148650500Y-123082035D01*
X148650500Y-120340693D01*
X148650500Y-120340691D01*
X148619799Y-120226114D01*
X148619799Y-120226113D01*
X148560489Y-120123386D01*
X144476614Y-116039511D01*
X144385350Y-115986819D01*
X144373888Y-115980201D01*
X144361780Y-115976957D01*
X144349673Y-115973713D01*
X144349670Y-115973712D01*
X144311478Y-115963478D01*
X144259309Y-115949500D01*
X144259308Y-115949500D01*
X142037965Y-115949500D01*
X141970926Y-115929815D01*
X141950284Y-115913181D01*
X141176616Y-115139513D01*
X141176614Y-115139511D01*
X141125250Y-115109856D01*
X141073888Y-115080201D01*
X141061780Y-115076957D01*
X141049673Y-115073713D01*
X141049670Y-115073712D01*
X141011478Y-115063478D01*
X140959309Y-115049500D01*
X140959308Y-115049500D01*
X131286965Y-115049500D01*
X131219926Y-115029815D01*
X131174171Y-114977011D01*
X131164227Y-114907853D01*
X131193252Y-114844297D01*
X131199284Y-114837819D01*
X131765317Y-114271786D01*
X133360489Y-112676614D01*
X133419799Y-112573887D01*
X133429010Y-112539511D01*
X133450500Y-112459309D01*
X133450500Y-109237966D01*
X133470185Y-109170927D01*
X133486819Y-109150284D01*
X133560490Y-109076614D01*
X133619799Y-108973887D01*
X133630549Y-108933767D01*
X133650500Y-108859309D01*
X133650500Y-108740691D01*
X133619799Y-108626114D01*
X133619799Y-108626113D01*
X133619799Y-108626112D01*
X133560492Y-108523389D01*
X133560488Y-108523384D01*
X133476615Y-108439511D01*
X133476607Y-108439505D01*
X133373893Y-108380204D01*
X133373888Y-108380201D01*
X133361780Y-108376957D01*
X133349673Y-108373713D01*
X133349670Y-108373712D01*
X133311478Y-108363478D01*
X133259309Y-108349500D01*
X133140691Y-108349500D01*
X133050325Y-108373713D01*
X133050324Y-108373712D01*
X133026115Y-108380200D01*
X133026106Y-108380204D01*
X132923392Y-108439505D01*
X132923384Y-108439511D01*
X132639513Y-108723383D01*
X132639511Y-108723386D01*
X132580200Y-108826113D01*
X132580199Y-108826116D01*
X132573712Y-108850324D01*
X132573713Y-108850325D01*
X132549500Y-108940691D01*
X132549500Y-112162034D01*
X132529815Y-112229073D01*
X132513181Y-112249715D01*
X129039513Y-115723383D01*
X129039509Y-115723389D01*
X128980201Y-115826112D01*
X128980201Y-115826113D01*
X128980201Y-115826114D01*
X128949500Y-115940691D01*
X122272769Y-115940691D01*
X119894259Y-113562181D01*
X119860774Y-113500858D01*
X119865758Y-113431166D01*
X119907630Y-113375233D01*
X119973094Y-113350816D01*
X119981940Y-113350500D01*
X123759308Y-113350500D01*
X123759309Y-113350500D01*
X123849673Y-113326286D01*
X123873887Y-113319799D01*
X123976614Y-113260489D01*
X136960489Y-100276614D01*
X137019799Y-100173887D01*
X137029781Y-100136632D01*
X137050500Y-100059309D01*
X137050500Y-98995602D01*
X137070185Y-98928563D01*
X137122989Y-98882808D01*
X137192147Y-98872864D01*
X137255703Y-98901889D01*
X137262181Y-98907921D01*
X140272181Y-101917921D01*
X140305666Y-101979244D01*
X140308500Y-102005602D01*
X140308500Y-109721977D01*
X140288815Y-109789016D01*
X140236011Y-109834771D01*
X140166853Y-109844715D01*
X140103297Y-109815690D01*
X140096819Y-109809658D01*
X136926674Y-106639513D01*
X136926672Y-106639511D01*
X136867688Y-106605456D01*
X136823946Y-106580201D01*
X136811838Y-106576957D01*
X136799731Y-106573713D01*
X136799728Y-106573712D01*
X136761536Y-106563478D01*
X136709367Y-106549500D01*
X132940691Y-106549500D01*
X132826114Y-106580201D01*
X132826112Y-106580201D01*
X132826112Y-106580202D01*
X132723387Y-106639511D01*
X132723384Y-106639513D01*
X132639513Y-106723384D01*
X132639511Y-106723387D01*
X132580201Y-106826114D01*
X132549500Y-106940691D01*
X132549500Y-107059309D01*
X132580201Y-107173886D01*
X132639511Y-107276613D01*
X132723387Y-107360489D01*
X132826114Y-107419799D01*
X132940691Y-107450500D01*
X136412093Y-107450500D01*
X136479132Y-107470185D01*
X136499774Y-107486819D01*
X149373444Y-120360489D01*
X149373445Y-120360490D01*
X149373447Y-120360491D01*
X149432751Y-120394729D01*
X149432754Y-120394732D01*
X149460303Y-120410637D01*
X149476172Y-120419799D01*
X149590749Y-120450500D01*
X149590752Y-120450500D01*
X151059308Y-120450500D01*
X151059309Y-120450500D01*
X151149673Y-120426286D01*
X151173887Y-120419799D01*
X151276614Y-120360489D01*
X151610489Y-120026614D01*
X151611677Y-120024555D01*
X151644731Y-119967306D01*
X151669797Y-119923889D01*
X151669799Y-119923886D01*
X151700500Y-119809309D01*
X151700500Y-119690691D01*
X151669799Y-119576114D01*
X151631362Y-119509540D01*
X151610489Y-119473386D01*
X151526614Y-119389511D01*
X151489012Y-119367802D01*
X151423886Y-119330201D01*
X151309309Y-119299500D01*
X151190691Y-119299500D01*
X151121944Y-119317920D01*
X151076112Y-119330201D01*
X151076107Y-119330204D01*
X151032695Y-119355267D01*
X151032696Y-119355268D01*
X150973389Y-119389508D01*
X150973383Y-119389513D01*
X150849716Y-119513181D01*
X150788393Y-119546666D01*
X150762035Y-119549500D01*
X149888023Y-119549500D01*
X149820984Y-119529815D01*
X149800342Y-119513181D01*
X148979102Y-118691941D01*
X148945617Y-118630618D01*
X148950601Y-118560926D01*
X148979101Y-118516580D01*
X149030470Y-118465212D01*
X149076614Y-118385288D01*
X149080350Y-118371346D01*
X149100500Y-118296144D01*
X149100500Y-118203856D01*
X149076614Y-118114712D01*
X149072812Y-118108127D01*
X149064622Y-118093941D01*
X149064620Y-118093939D01*
X149030470Y-118034788D01*
X148557863Y-117562181D01*
X148524378Y-117500858D01*
X148529362Y-117431166D01*
X148571234Y-117375233D01*
X148636698Y-117350816D01*
X148645544Y-117350500D01*
X152296142Y-117350500D01*
X152296144Y-117350500D01*
X152385288Y-117326614D01*
X152465212Y-117280469D01*
X152530469Y-117215212D01*
X152576614Y-117135288D01*
X152600500Y-117046144D01*
X152600500Y-116953856D01*
X152576614Y-116864712D01*
X152568409Y-116850500D01*
X152530473Y-116784794D01*
X152530470Y-116784791D01*
X152530469Y-116784788D01*
X152465212Y-116719531D01*
X152465209Y-116719529D01*
X152465205Y-116719526D01*
X152385293Y-116673388D01*
X152385290Y-116673387D01*
X152385289Y-116673386D01*
X152385288Y-116673386D01*
X152296144Y-116649500D01*
X152296143Y-116649500D01*
X148405063Y-116649500D01*
X148338024Y-116629815D01*
X148317382Y-116613181D01*
X141636819Y-109932617D01*
X141603334Y-109871294D01*
X141600500Y-109844936D01*
X141600500Y-107356544D01*
X141620185Y-107289505D01*
X141636819Y-107268863D01*
X142086072Y-106819610D01*
X142611329Y-106294352D01*
X142672650Y-106260869D01*
X142742341Y-106265853D01*
X142798275Y-106307725D01*
X142822692Y-106373189D01*
X142818783Y-106414127D01*
X142799089Y-106487628D01*
X142799085Y-106487645D01*
X142770000Y-106708575D01*
X142770000Y-106931424D01*
X142799085Y-107152354D01*
X142799088Y-107152367D01*
X142856763Y-107367618D01*
X142942045Y-107573502D01*
X142942054Y-107573520D01*
X143053462Y-107766488D01*
X143180793Y-107932428D01*
X143572301Y-107540920D01*
X143592829Y-107569175D01*
X143720825Y-107697171D01*
X143749077Y-107717697D01*
X143357570Y-108109205D01*
X143523511Y-108236537D01*
X143716479Y-108347945D01*
X143716497Y-108347954D01*
X143922381Y-108433236D01*
X144137632Y-108490911D01*
X144137645Y-108490914D01*
X144358575Y-108520000D01*
X144581425Y-108520000D01*
X144802354Y-108490914D01*
X144802367Y-108490911D01*
X145017618Y-108433236D01*
X145223502Y-108347954D01*
X145223520Y-108347945D01*
X145416491Y-108236535D01*
X145416495Y-108236533D01*
X145582428Y-108109206D01*
X145582428Y-108109205D01*
X145190921Y-107717698D01*
X145219175Y-107697171D01*
X145347171Y-107569175D01*
X145367698Y-107540921D01*
X145759205Y-107932428D01*
X145759206Y-107932428D01*
X145886533Y-107766495D01*
X145886535Y-107766491D01*
X145997945Y-107573520D01*
X145997954Y-107573502D01*
X146083236Y-107367618D01*
X146140911Y-107152367D01*
X146140914Y-107152354D01*
X146170000Y-106931424D01*
X146170000Y-106708575D01*
X146140914Y-106487645D01*
X146140911Y-106487632D01*
X146083236Y-106272381D01*
X145997954Y-106066497D01*
X145997945Y-106066479D01*
X145886537Y-105873511D01*
X145759205Y-105707570D01*
X145367697Y-106099077D01*
X145347171Y-106070825D01*
X145219175Y-105942829D01*
X145190920Y-105922301D01*
X145582428Y-105530793D01*
X145416488Y-105403462D01*
X145223520Y-105292054D01*
X145223502Y-105292045D01*
X145017618Y-105206763D01*
X144802367Y-105149088D01*
X144802354Y-105149085D01*
X144581425Y-105120000D01*
X144358575Y-105120000D01*
X144137645Y-105149085D01*
X144137632Y-105149088D01*
X143922381Y-105206763D01*
X143716497Y-105292045D01*
X143716479Y-105292054D01*
X143523510Y-105403463D01*
X143511128Y-105412964D01*
X143445958Y-105438155D01*
X143377513Y-105424114D01*
X143327525Y-105375299D01*
X143311645Y-105314585D01*
X143311645Y-98777243D01*
X143311645Y-98777241D01*
X143287759Y-98688097D01*
X143266052Y-98650500D01*
X143266052Y-98650498D01*
X143241619Y-98608179D01*
X143241613Y-98608171D01*
X142451973Y-97818531D01*
X142451968Y-97818527D01*
X142365009Y-97768322D01*
X142366116Y-97766402D01*
X142320718Y-97729811D01*
X142298659Y-97663515D01*
X142315944Y-97595817D01*
X142353690Y-97555997D01*
X142374989Y-97541765D01*
X141995653Y-97162428D01*
X142051657Y-97130095D01*
X142140095Y-97041657D01*
X142172428Y-96985652D01*
X142551766Y-97364990D01*
X142646190Y-97223674D01*
X142646191Y-97223673D01*
X142721569Y-97041693D01*
X142721572Y-97041681D01*
X142759999Y-96848495D01*
X142760000Y-96848492D01*
X142760000Y-96651508D01*
X142759999Y-96651504D01*
X142721572Y-96458318D01*
X142721569Y-96458306D01*
X142646191Y-96276326D01*
X142646190Y-96276324D01*
X142551766Y-96135008D01*
X142172428Y-96514346D01*
X142140095Y-96458343D01*
X142051657Y-96369905D01*
X141995652Y-96337570D01*
X142374989Y-95958233D01*
X142374989Y-95958232D01*
X142233683Y-95863814D01*
X142233671Y-95863807D01*
X142051693Y-95788430D01*
X142051681Y-95788427D01*
X141858495Y-95750000D01*
X141661504Y-95750000D01*
X141468318Y-95788427D01*
X141468306Y-95788430D01*
X141286324Y-95863809D01*
X141145009Y-95958233D01*
X141524347Y-96337570D01*
X141468343Y-96369905D01*
X141379905Y-96458343D01*
X141347571Y-96514347D01*
X140968233Y-96135009D01*
X140873809Y-96276324D01*
X140798430Y-96458306D01*
X140798427Y-96458318D01*
X140760000Y-96651504D01*
X140760000Y-96848495D01*
X140798427Y-97041681D01*
X140798430Y-97041693D01*
X140873807Y-97223671D01*
X140873814Y-97223683D01*
X140968233Y-97364989D01*
X141347570Y-96985652D01*
X141379905Y-97041657D01*
X141468343Y-97130095D01*
X141524346Y-97162428D01*
X141145008Y-97541766D01*
X141146807Y-97560024D01*
X141159331Y-97575010D01*
X141168038Y-97644335D01*
X141137884Y-97707363D01*
X141078441Y-97744082D01*
X141045635Y-97748500D01*
X139168709Y-97748500D01*
X139101670Y-97728815D01*
X139081028Y-97712181D01*
X135139354Y-93770507D01*
X134937422Y-93568575D01*
X142770000Y-93568575D01*
X142770000Y-93791424D01*
X142799085Y-94012354D01*
X142799088Y-94012367D01*
X142856763Y-94227618D01*
X142942045Y-94433502D01*
X142942054Y-94433520D01*
X143053462Y-94626488D01*
X143180793Y-94792428D01*
X143572301Y-94400920D01*
X143592829Y-94429175D01*
X143720825Y-94557171D01*
X143749077Y-94577697D01*
X143357570Y-94969205D01*
X143523511Y-95096537D01*
X143716479Y-95207945D01*
X143716497Y-95207954D01*
X143922381Y-95293236D01*
X144137632Y-95350911D01*
X144137645Y-95350914D01*
X144358575Y-95380000D01*
X144581425Y-95380000D01*
X144802354Y-95350914D01*
X144802367Y-95350911D01*
X145017618Y-95293236D01*
X145223502Y-95207954D01*
X145223520Y-95207945D01*
X145416491Y-95096535D01*
X145416495Y-95096533D01*
X145582428Y-94969206D01*
X145582428Y-94969205D01*
X145190921Y-94577698D01*
X145219175Y-94557171D01*
X145347171Y-94429175D01*
X145367698Y-94400921D01*
X145759205Y-94792428D01*
X145759206Y-94792428D01*
X145886533Y-94626495D01*
X145886535Y-94626491D01*
X145997945Y-94433520D01*
X145997954Y-94433502D01*
X146083236Y-94227618D01*
X146140911Y-94012367D01*
X146140914Y-94012354D01*
X146170000Y-93791424D01*
X146170000Y-93568575D01*
X146140914Y-93347645D01*
X146140911Y-93347632D01*
X146083236Y-93132381D01*
X145997954Y-92926497D01*
X145997945Y-92926479D01*
X145886537Y-92733511D01*
X145759205Y-92567570D01*
X145367697Y-92959077D01*
X145347171Y-92930825D01*
X145219175Y-92802829D01*
X145190920Y-92782301D01*
X145582428Y-92390793D01*
X145416488Y-92263462D01*
X145223520Y-92152054D01*
X145223502Y-92152045D01*
X145017618Y-92066763D01*
X144802367Y-92009088D01*
X144802354Y-92009085D01*
X144581425Y-91980000D01*
X144358575Y-91980000D01*
X144137645Y-92009085D01*
X144137632Y-92009088D01*
X143922381Y-92066763D01*
X143716497Y-92152045D01*
X143716479Y-92152054D01*
X143523508Y-92263464D01*
X143523506Y-92263465D01*
X143357570Y-92390792D01*
X143357570Y-92390793D01*
X143749078Y-92782301D01*
X143720825Y-92802829D01*
X143592829Y-92930825D01*
X143572301Y-92959078D01*
X143180793Y-92567570D01*
X143180792Y-92567570D01*
X143053465Y-92733506D01*
X143053464Y-92733508D01*
X142942054Y-92926479D01*
X142942045Y-92926497D01*
X142856763Y-93132381D01*
X142799088Y-93347632D01*
X142799085Y-93347645D01*
X142770000Y-93568575D01*
X134937422Y-93568575D01*
X131035819Y-89666971D01*
X131021115Y-89640043D01*
X131004523Y-89614225D01*
X131003631Y-89608024D01*
X131002334Y-89605648D01*
X130999500Y-89579290D01*
X130999500Y-89393500D01*
X131019185Y-89326461D01*
X131071989Y-89280706D01*
X131141147Y-89270762D01*
X131192391Y-89290398D01*
X131208995Y-89301492D01*
X131220821Y-89309394D01*
X131220823Y-89309395D01*
X131220827Y-89309397D01*
X131366498Y-89369735D01*
X131366503Y-89369737D01*
X131485967Y-89393500D01*
X131521153Y-89400499D01*
X131521156Y-89400500D01*
X131521158Y-89400500D01*
X131678844Y-89400500D01*
X131678845Y-89400499D01*
X131833497Y-89369737D01*
X131979179Y-89309394D01*
X132110289Y-89221789D01*
X132295259Y-89036819D01*
X132356582Y-89003334D01*
X132382940Y-89000500D01*
X140078844Y-89000500D01*
X140078845Y-89000499D01*
X140233497Y-88969737D01*
X140379179Y-88909394D01*
X140510289Y-88821789D01*
X142621789Y-86710289D01*
X142643460Y-86677856D01*
X142709394Y-86579179D01*
X142769737Y-86433497D01*
X142800500Y-86278842D01*
X142800500Y-86121158D01*
X142800500Y-86121155D01*
X142800499Y-86121153D01*
X142773170Y-85983763D01*
X142769737Y-85966503D01*
X142769735Y-85966498D01*
X142709397Y-85820827D01*
X142709390Y-85820814D01*
X142621789Y-85689711D01*
X142621786Y-85689707D01*
X142510291Y-85578212D01*
X142510288Y-85578210D01*
X142379185Y-85490609D01*
X142379172Y-85490602D01*
X142233501Y-85430264D01*
X142233489Y-85430261D01*
X142078845Y-85399500D01*
X142078842Y-85399500D01*
X141921158Y-85399500D01*
X141921155Y-85399500D01*
X141766510Y-85430261D01*
X141766498Y-85430264D01*
X141620827Y-85490602D01*
X141620814Y-85490609D01*
X141489711Y-85578210D01*
X141489709Y-85578212D01*
X139704741Y-87363181D01*
X139643418Y-87396666D01*
X139617060Y-87399500D01*
X131921156Y-87399500D01*
X131889380Y-87405820D01*
X131819788Y-87399591D01*
X131764612Y-87356727D01*
X131741369Y-87290837D01*
X131741191Y-87284202D01*
X131741191Y-87023917D01*
X131741191Y-87023915D01*
X131717305Y-86934771D01*
X131717302Y-86934765D01*
X131671164Y-86854853D01*
X131671161Y-86854850D01*
X131671160Y-86854847D01*
X131605903Y-86789590D01*
X131259844Y-86443530D01*
X131259843Y-86443529D01*
X131259840Y-86443527D01*
X131179922Y-86397387D01*
X131179921Y-86397386D01*
X131179920Y-86397386D01*
X131090776Y-86373500D01*
X131090775Y-86373500D01*
X127688877Y-86373500D01*
X127621838Y-86353815D01*
X127601196Y-86337181D01*
X123531119Y-82267104D01*
X123497634Y-82205781D01*
X123502618Y-82136089D01*
X123504220Y-82132015D01*
X123533463Y-82061420D01*
X123573833Y-81858465D01*
X123573833Y-81651535D01*
X123533463Y-81448580D01*
X123454274Y-81257402D01*
X123339310Y-81085345D01*
X123339308Y-81085342D01*
X123192990Y-80939024D01*
X123082581Y-80865252D01*
X123020931Y-80824059D01*
X122829753Y-80744870D01*
X122829745Y-80744868D01*
X122626802Y-80704500D01*
X122626798Y-80704500D01*
X122419868Y-80704500D01*
X122419863Y-80704500D01*
X122216920Y-80744868D01*
X122216912Y-80744870D01*
X122025736Y-80824058D01*
X121853675Y-80939024D01*
X121707357Y-81085342D01*
X121592391Y-81257403D01*
X121513203Y-81448579D01*
X121513201Y-81448587D01*
X121472833Y-81651530D01*
X121472833Y-81827847D01*
X121453148Y-81894886D01*
X121400344Y-81940641D01*
X121331186Y-81950585D01*
X121267630Y-81921560D01*
X121261152Y-81915528D01*
X121069212Y-81723588D01*
X121035727Y-81662265D01*
X121034816Y-81656476D01*
X121000408Y-81483497D01*
X120993463Y-81448580D01*
X120914274Y-81257402D01*
X120799310Y-81085345D01*
X120799308Y-81085342D01*
X120652990Y-80939024D01*
X120542581Y-80865252D01*
X120480931Y-80824059D01*
X120289753Y-80744870D01*
X120289745Y-80744868D01*
X120086802Y-80704500D01*
X120086798Y-80704500D01*
X119879868Y-80704500D01*
X119879863Y-80704500D01*
X119676920Y-80744868D01*
X119676912Y-80744870D01*
X119485736Y-80824058D01*
X119313675Y-80939024D01*
X119167357Y-81085342D01*
X119052391Y-81257403D01*
X118973203Y-81448579D01*
X118973201Y-81448587D01*
X118932833Y-81651530D01*
X118932833Y-81858469D01*
X118973201Y-82061412D01*
X118973203Y-82061420D01*
X119052391Y-82252596D01*
X119167357Y-82424657D01*
X119313675Y-82570975D01*
X119313678Y-82570977D01*
X119485735Y-82685941D01*
X119676913Y-82765130D01*
X119821385Y-82793867D01*
X119879863Y-82805499D01*
X119879867Y-82805500D01*
X119879868Y-82805500D01*
X120086799Y-82805500D01*
X120086800Y-82805499D01*
X120289753Y-82765130D01*
X120480931Y-82685941D01*
X120652988Y-82570977D01*
X120701432Y-82522532D01*
X120762752Y-82489048D01*
X120832443Y-82494031D01*
X120876793Y-82522533D01*
X135980534Y-97626274D01*
X136014019Y-97687597D01*
X136009035Y-97757289D01*
X135967163Y-97813222D01*
X135954856Y-97821340D01*
X135923392Y-97839506D01*
X135923383Y-97839513D01*
X135839513Y-97923383D01*
X135839509Y-97923389D01*
X135780201Y-98026112D01*
X135780200Y-98026117D01*
X135749500Y-98140691D01*
X135749500Y-98259309D01*
X135766670Y-98323388D01*
X135766670Y-98323389D01*
X135780199Y-98373884D01*
X135780201Y-98373887D01*
X135839511Y-98476614D01*
X135839513Y-98476616D01*
X136113181Y-98750284D01*
X136146666Y-98811607D01*
X136149500Y-98837965D01*
X136149500Y-99762035D01*
X136129815Y-99829074D01*
X136113181Y-99849716D01*
X130331449Y-105631447D01*
X130270126Y-105664932D01*
X130200434Y-105659948D01*
X130144501Y-105618076D01*
X130120084Y-105552612D01*
X130134936Y-105484339D01*
X130136336Y-105481843D01*
X130150577Y-105457179D01*
X130169799Y-105423886D01*
X130200500Y-105309309D01*
X130200500Y-105190691D01*
X130169799Y-105076114D01*
X130131362Y-105009540D01*
X130110489Y-104973386D01*
X117930152Y-92793049D01*
X117896667Y-92731726D01*
X117893833Y-92705368D01*
X117893833Y-82929500D01*
X117913518Y-82862461D01*
X117966322Y-82816706D01*
X118017833Y-82805500D01*
X118313083Y-82805500D01*
X118313084Y-82805499D01*
X118327901Y-82802552D01*
X118371562Y-82793868D01*
X118371562Y-82793867D01*
X118371564Y-82793867D01*
X118437885Y-82749552D01*
X118482200Y-82683231D01*
X118482200Y-82683229D01*
X118482201Y-82683229D01*
X118493832Y-82624752D01*
X118493833Y-82624750D01*
X118493833Y-80885249D01*
X118493832Y-80885247D01*
X118482201Y-80826770D01*
X118482200Y-80826769D01*
X118437885Y-80760447D01*
X118371563Y-80716132D01*
X118371562Y-80716131D01*
X118313085Y-80704500D01*
X118313081Y-80704500D01*
X116573585Y-80704500D01*
X116573580Y-80704500D01*
X116515103Y-80716131D01*
X116515102Y-80716132D01*
X116448780Y-80760447D01*
X116404465Y-80826769D01*
X116404464Y-80826770D01*
X116392833Y-80885247D01*
X116392833Y-82624752D01*
X116404464Y-82683229D01*
X116404465Y-82683230D01*
X116448780Y-82749552D01*
X116515102Y-82793867D01*
X116515103Y-82793868D01*
X116573580Y-82805499D01*
X116573583Y-82805500D01*
X116573585Y-82805500D01*
X116868833Y-82805500D01*
X116935872Y-82825185D01*
X116981627Y-82877989D01*
X116992833Y-82929500D01*
X116992833Y-93002641D01*
X117017045Y-93093005D01*
X117023533Y-93117218D01*
X117023533Y-93117219D01*
X117023534Y-93117220D01*
X117082844Y-93219947D01*
X129473386Y-105610489D01*
X129510127Y-105631701D01*
X129576114Y-105669799D01*
X129690691Y-105700500D01*
X129690694Y-105700500D01*
X129809306Y-105700500D01*
X129809309Y-105700500D01*
X129923886Y-105669799D01*
X129981766Y-105636381D01*
X130049664Y-105619908D01*
X130115691Y-105642759D01*
X130158883Y-105697680D01*
X130165526Y-105767233D01*
X130133511Y-105829336D01*
X130131447Y-105831449D01*
X123549716Y-112413181D01*
X123488393Y-112446666D01*
X123462035Y-112449500D01*
X118832940Y-112449500D01*
X118765901Y-112429815D01*
X118745263Y-112413185D01*
X118610289Y-112278211D01*
X118610288Y-112278210D01*
X118610287Y-112278209D01*
X118479185Y-112190609D01*
X118479172Y-112190602D01*
X118333501Y-112130264D01*
X118333489Y-112130261D01*
X118178845Y-112099500D01*
X118178842Y-112099500D01*
X116707703Y-112099500D01*
X116640664Y-112079815D01*
X116594909Y-112027011D01*
X116584965Y-111957853D01*
X116586086Y-111951309D01*
X116600499Y-111878846D01*
X116600500Y-111878844D01*
X116600500Y-111721155D01*
X116600499Y-111721153D01*
X116569738Y-111566510D01*
X116569737Y-111566503D01*
X116569735Y-111566498D01*
X116509397Y-111420827D01*
X116509390Y-111420814D01*
X116421789Y-111289711D01*
X116421786Y-111289707D01*
X116310292Y-111178213D01*
X116310288Y-111178210D01*
X116179185Y-111090609D01*
X116179172Y-111090602D01*
X116033501Y-111030264D01*
X116033489Y-111030261D01*
X115878845Y-110999500D01*
X115878842Y-110999500D01*
X115721158Y-110999500D01*
X115721155Y-110999500D01*
X115566510Y-111030261D01*
X115566498Y-111030264D01*
X115420827Y-111090602D01*
X115420814Y-111090609D01*
X115289711Y-111178210D01*
X115289707Y-111178213D01*
X114189711Y-112278211D01*
X113654741Y-112813181D01*
X113593418Y-112846666D01*
X113567060Y-112849500D01*
X110624500Y-112849500D01*
X110557461Y-112829815D01*
X110511706Y-112777011D01*
X110500500Y-112725500D01*
X110500500Y-112630249D01*
X110500499Y-112630247D01*
X110488868Y-112571770D01*
X110488867Y-112571769D01*
X110444552Y-112505447D01*
X110378230Y-112461132D01*
X110378229Y-112461131D01*
X110319752Y-112449500D01*
X110319748Y-112449500D01*
X105680252Y-112449500D01*
X105680247Y-112449500D01*
X105621770Y-112461131D01*
X105621769Y-112461132D01*
X105555447Y-112505447D01*
X105511132Y-112571769D01*
X105511131Y-112571770D01*
X105499500Y-112630247D01*
X102500500Y-112630247D01*
X102500500Y-108742133D01*
X112629500Y-108742133D01*
X112629500Y-108957866D01*
X112663245Y-109170922D01*
X112663246Y-109170926D01*
X112729908Y-109376089D01*
X112827843Y-109568299D01*
X112954641Y-109742821D01*
X113107179Y-109895359D01*
X113281701Y-110022157D01*
X113473911Y-110120092D01*
X113679074Y-110186754D01*
X113758973Y-110199408D01*
X113892134Y-110220500D01*
X113892139Y-110220500D01*
X114107866Y-110220500D01*
X114226230Y-110201752D01*
X114320926Y-110186754D01*
X114526089Y-110120092D01*
X114718299Y-110022157D01*
X114892821Y-109895359D01*
X115045359Y-109742821D01*
X115172157Y-109568299D01*
X115270092Y-109376089D01*
X115336754Y-109170926D01*
X115367961Y-108973893D01*
X115370500Y-108957866D01*
X115370500Y-108742133D01*
X115336754Y-108529077D01*
X115336754Y-108529074D01*
X115270092Y-108323911D01*
X115172157Y-108131701D01*
X115045359Y-107957179D01*
X114892821Y-107804641D01*
X114718299Y-107677843D01*
X114526089Y-107579908D01*
X114320926Y-107513246D01*
X114320924Y-107513245D01*
X114320922Y-107513245D01*
X114107866Y-107479500D01*
X114107861Y-107479500D01*
X113892139Y-107479500D01*
X113892134Y-107479500D01*
X113679077Y-107513245D01*
X113679074Y-107513246D01*
X113493627Y-107573502D01*
X113473908Y-107579909D01*
X113281700Y-107677843D01*
X113182129Y-107750186D01*
X113107179Y-107804641D01*
X113107177Y-107804643D01*
X113107176Y-107804643D01*
X112954643Y-107957176D01*
X112954643Y-107957177D01*
X112954641Y-107957179D01*
X112945326Y-107970000D01*
X112827843Y-108131700D01*
X112729909Y-108323908D01*
X112663245Y-108529077D01*
X112629500Y-108742133D01*
X102500500Y-108742133D01*
X102500500Y-106942348D01*
X102520185Y-106875309D01*
X102572989Y-106829554D01*
X102642147Y-106819610D01*
X102705703Y-106848635D01*
X102734985Y-106886054D01*
X102827841Y-107068297D01*
X102843095Y-107089292D01*
X102954641Y-107242821D01*
X103107179Y-107395359D01*
X103281701Y-107522157D01*
X103473911Y-107620092D01*
X103679074Y-107686754D01*
X103744845Y-107697171D01*
X103892134Y-107720500D01*
X103892139Y-107720500D01*
X104107866Y-107720500D01*
X104226230Y-107701752D01*
X104320926Y-107686754D01*
X104526089Y-107620092D01*
X104718299Y-107522157D01*
X104892821Y-107395359D01*
X105045359Y-107242821D01*
X105172157Y-107068299D01*
X105270092Y-106876089D01*
X105336754Y-106670926D01*
X105365785Y-106487632D01*
X105370500Y-106457866D01*
X105370500Y-106242142D01*
X105370500Y-106242139D01*
X105362531Y-106191829D01*
X105371485Y-106122540D01*
X105397320Y-106084756D01*
X106145259Y-105336819D01*
X106206582Y-105303334D01*
X106232940Y-105300500D01*
X114978844Y-105300500D01*
X114978845Y-105300499D01*
X115133497Y-105269737D01*
X115279179Y-105209394D01*
X115410289Y-105121789D01*
X118021789Y-102510289D01*
X118109394Y-102379179D01*
X118169737Y-102233497D01*
X118200500Y-102078842D01*
X118200500Y-101921158D01*
X118200500Y-101921155D01*
X118200499Y-101921153D01*
X118188432Y-101860488D01*
X118169737Y-101766503D01*
X118169735Y-101766498D01*
X118109397Y-101620827D01*
X118109390Y-101620814D01*
X118021789Y-101489711D01*
X118021786Y-101489707D01*
X117910292Y-101378213D01*
X117910288Y-101378210D01*
X117779185Y-101290609D01*
X117779172Y-101290602D01*
X117633501Y-101230264D01*
X117633489Y-101230261D01*
X117478845Y-101199500D01*
X117478842Y-101199500D01*
X117321158Y-101199500D01*
X117321155Y-101199500D01*
X117166510Y-101230261D01*
X117166498Y-101230264D01*
X117020827Y-101290602D01*
X117020814Y-101290609D01*
X116889711Y-101378210D01*
X116889707Y-101378213D01*
X115259695Y-103008225D01*
X115198372Y-103041710D01*
X115128680Y-103036726D01*
X115072747Y-102994854D01*
X115071734Y-102993481D01*
X115045359Y-102957179D01*
X114892821Y-102804641D01*
X114718299Y-102677843D01*
X114526089Y-102579908D01*
X114320926Y-102513246D01*
X114320924Y-102513245D01*
X114320922Y-102513245D01*
X114107866Y-102479500D01*
X114107861Y-102479500D01*
X113892139Y-102479500D01*
X113892134Y-102479500D01*
X113679077Y-102513245D01*
X113473908Y-102579909D01*
X113281700Y-102677843D01*
X113183074Y-102749500D01*
X113107179Y-102804641D01*
X113107177Y-102804643D01*
X113107176Y-102804643D01*
X112954643Y-102957176D01*
X112954643Y-102957177D01*
X112954641Y-102957179D01*
X112917554Y-103008225D01*
X112827843Y-103131700D01*
X112729909Y-103323908D01*
X112663245Y-103529077D01*
X112652820Y-103594898D01*
X112622890Y-103658033D01*
X112563579Y-103694964D01*
X112530347Y-103699500D01*
X105771155Y-103699500D01*
X105616510Y-103730261D01*
X105616498Y-103730264D01*
X105470827Y-103790602D01*
X105470814Y-103790609D01*
X105339711Y-103878210D01*
X105339707Y-103878213D01*
X104265245Y-104952675D01*
X104203922Y-104986160D01*
X104158165Y-104987467D01*
X104107865Y-104979500D01*
X104107861Y-104979500D01*
X103892139Y-104979500D01*
X103892134Y-104979500D01*
X103679077Y-105013245D01*
X103473908Y-105079909D01*
X103281700Y-105177843D01*
X103182129Y-105250186D01*
X103107179Y-105304641D01*
X103107177Y-105304643D01*
X103107176Y-105304643D01*
X102954643Y-105457176D01*
X102954643Y-105457177D01*
X102954641Y-105457179D01*
X102936777Y-105481767D01*
X102827843Y-105631700D01*
X102734985Y-105813946D01*
X102687011Y-105864742D01*
X102619190Y-105881537D01*
X102553055Y-105859000D01*
X102509603Y-105804285D01*
X102500500Y-105757651D01*
X102500500Y-101440691D01*
X109299500Y-101440691D01*
X109299500Y-101559309D01*
X109330201Y-101673886D01*
X109389511Y-101776613D01*
X109473387Y-101860489D01*
X109576114Y-101919799D01*
X109690691Y-101950500D01*
X109690694Y-101950500D01*
X110809307Y-101950500D01*
X110809309Y-101950500D01*
X110902610Y-101925500D01*
X110923887Y-101919799D01*
X111026614Y-101860489D01*
X114360489Y-98526614D01*
X114419799Y-98423887D01*
X114450499Y-98309309D01*
X114450499Y-98190691D01*
X114437102Y-98140691D01*
X114419800Y-98076114D01*
X114402179Y-98045595D01*
X114360489Y-97973386D01*
X114276614Y-97889511D01*
X114234922Y-97865440D01*
X114173885Y-97830199D01*
X114059310Y-97799501D01*
X114059309Y-97799501D01*
X113940691Y-97799501D01*
X113940689Y-97799501D01*
X113826114Y-97830199D01*
X113723386Y-97889511D01*
X113723383Y-97889513D01*
X110599716Y-101013181D01*
X110538393Y-101046666D01*
X110512035Y-101049500D01*
X109690691Y-101049500D01*
X109576114Y-101080201D01*
X109576112Y-101080201D01*
X109576112Y-101080202D01*
X109473387Y-101139511D01*
X109473384Y-101139513D01*
X109389513Y-101223384D01*
X109389511Y-101223387D01*
X109330201Y-101326114D01*
X109299500Y-101440691D01*
X102500500Y-101440691D01*
X102500500Y-85139818D01*
X103850000Y-85139818D01*
X103850000Y-85360181D01*
X103884473Y-85577835D01*
X103952567Y-85787410D01*
X104052615Y-85983763D01*
X104173320Y-86149900D01*
X104173321Y-86149901D01*
X104746064Y-85577157D01*
X104769881Y-85618408D01*
X104881592Y-85730119D01*
X104922840Y-85753934D01*
X104350097Y-86326677D01*
X104350098Y-86326679D01*
X104516236Y-86447384D01*
X104712589Y-86547432D01*
X104922164Y-86615526D01*
X105139819Y-86650000D01*
X105360181Y-86650000D01*
X105577835Y-86615526D01*
X105787410Y-86547432D01*
X105983760Y-86447386D01*
X106149900Y-86326677D01*
X106149901Y-86326676D01*
X105577159Y-85753934D01*
X105618408Y-85730119D01*
X105730119Y-85618408D01*
X105753934Y-85577158D01*
X106326676Y-86149901D01*
X106326677Y-86149900D01*
X106447386Y-85983760D01*
X106547432Y-85787410D01*
X106615526Y-85577835D01*
X106650000Y-85360181D01*
X106650000Y-85139818D01*
X106615526Y-84922164D01*
X106547432Y-84712589D01*
X106447384Y-84516236D01*
X106326679Y-84350098D01*
X106326677Y-84350097D01*
X105753934Y-84922840D01*
X105730119Y-84881592D01*
X105618408Y-84769881D01*
X105577158Y-84746065D01*
X106149901Y-84173321D01*
X106149900Y-84173320D01*
X105983763Y-84052615D01*
X105787410Y-83952567D01*
X105577835Y-83884473D01*
X105360181Y-83850000D01*
X105139819Y-83850000D01*
X104922164Y-83884473D01*
X104712589Y-83952567D01*
X104516236Y-84052615D01*
X104350098Y-84173320D01*
X104350098Y-84173322D01*
X104922841Y-84746065D01*
X104881592Y-84769881D01*
X104769881Y-84881592D01*
X104746065Y-84922841D01*
X104173322Y-84350098D01*
X104173320Y-84350098D01*
X104052615Y-84516236D01*
X103952567Y-84712589D01*
X103884473Y-84922164D01*
X103850000Y-85139818D01*
X102500500Y-85139818D01*
X102500500Y-77130247D01*
X103699500Y-77130247D01*
X103699500Y-78869752D01*
X103711131Y-78928229D01*
X103711132Y-78928230D01*
X103755447Y-78994552D01*
X103799762Y-79024162D01*
X103821769Y-79038867D01*
X103849690Y-79044421D01*
X103911601Y-79076804D01*
X103946176Y-79137519D01*
X103949500Y-79166038D01*
X103949500Y-81328846D01*
X103980261Y-81483489D01*
X103980264Y-81483501D01*
X104040602Y-81629172D01*
X104040609Y-81629185D01*
X104128210Y-81760288D01*
X104128213Y-81760292D01*
X107313181Y-84945259D01*
X107346666Y-85006582D01*
X107349500Y-85032940D01*
X107349500Y-86254258D01*
X107352354Y-86284698D01*
X107352354Y-86284699D01*
X107397206Y-86412881D01*
X107412421Y-86433497D01*
X107477850Y-86522150D01*
X107587118Y-86602793D01*
X107715302Y-86647646D01*
X107715301Y-86647646D01*
X107719271Y-86648018D01*
X107745735Y-86650500D01*
X109754264Y-86650499D01*
X109784698Y-86647646D01*
X109912882Y-86602793D01*
X110022150Y-86522150D01*
X110102793Y-86412882D01*
X110147646Y-86284698D01*
X110150500Y-86254265D01*
X110150499Y-84245736D01*
X110147646Y-84215302D01*
X110102793Y-84087118D01*
X110022150Y-83977850D01*
X109912882Y-83897207D01*
X109912881Y-83897206D01*
X109784695Y-83852353D01*
X109784698Y-83852353D01*
X109754269Y-83849500D01*
X109754265Y-83849500D01*
X108532940Y-83849500D01*
X108465901Y-83829815D01*
X108445259Y-83813181D01*
X105586819Y-80954741D01*
X105553334Y-80893418D01*
X105550500Y-80867060D01*
X105550500Y-79166038D01*
X105570185Y-79098999D01*
X105622989Y-79053244D01*
X105650305Y-79044421D01*
X105678231Y-79038867D01*
X105744552Y-78994552D01*
X105788867Y-78928231D01*
X105788867Y-78928229D01*
X105788868Y-78928229D01*
X105800499Y-78869752D01*
X105800500Y-78869750D01*
X105800500Y-77896579D01*
X106240000Y-77896579D01*
X106240000Y-78103420D01*
X106280348Y-78306266D01*
X106280350Y-78306274D01*
X106359500Y-78497358D01*
X106359505Y-78497368D01*
X106462185Y-78651037D01*
X106859270Y-78253952D01*
X106889901Y-78307007D01*
X106982993Y-78400099D01*
X107036046Y-78430729D01*
X106638961Y-78827814D01*
X106792640Y-78930499D01*
X106983725Y-79009649D01*
X106983733Y-79009651D01*
X107186579Y-79049999D01*
X107186583Y-79050000D01*
X107393417Y-79050000D01*
X107393420Y-79049999D01*
X107596266Y-79009651D01*
X107596274Y-79009649D01*
X107787359Y-78930499D01*
X107941038Y-78827814D01*
X107543953Y-78430729D01*
X107597007Y-78400099D01*
X107690099Y-78307007D01*
X107720729Y-78253953D01*
X108117814Y-78651038D01*
X108220499Y-78497359D01*
X108299649Y-78306274D01*
X108299651Y-78306266D01*
X108339999Y-78103420D01*
X108340000Y-78103417D01*
X108340000Y-77896583D01*
X108339999Y-77896579D01*
X108299651Y-77693733D01*
X108299649Y-77693725D01*
X108220499Y-77502640D01*
X108117814Y-77348961D01*
X107720729Y-77746045D01*
X107690099Y-77692993D01*
X107597007Y-77599901D01*
X107543953Y-77569270D01*
X107941037Y-77172185D01*
X107941037Y-77172184D01*
X107787368Y-77069505D01*
X107787358Y-77069500D01*
X107596274Y-76990350D01*
X107596266Y-76990348D01*
X107393420Y-76950000D01*
X107186579Y-76950000D01*
X106983733Y-76990348D01*
X106983725Y-76990350D01*
X106792636Y-77069502D01*
X106792635Y-77069502D01*
X106638961Y-77172183D01*
X106638961Y-77172185D01*
X107036046Y-77569270D01*
X106982993Y-77599901D01*
X106889901Y-77692993D01*
X106859270Y-77746046D01*
X106462185Y-77348961D01*
X106462183Y-77348961D01*
X106359502Y-77502635D01*
X106359502Y-77502636D01*
X106280350Y-77693725D01*
X106280348Y-77693733D01*
X106240000Y-77896579D01*
X105800500Y-77896579D01*
X105800500Y-77130249D01*
X105800499Y-77130247D01*
X105788868Y-77071770D01*
X105788867Y-77071769D01*
X105744552Y-77005447D01*
X105678230Y-76961132D01*
X105678229Y-76961131D01*
X105619752Y-76949500D01*
X105619748Y-76949500D01*
X103880252Y-76949500D01*
X103880247Y-76949500D01*
X103821770Y-76961131D01*
X103821769Y-76961132D01*
X103755447Y-77005447D01*
X103711132Y-77071769D01*
X103711131Y-77071770D01*
X103699500Y-77130247D01*
X102500500Y-77130247D01*
X102500500Y-76206961D01*
X102501280Y-76193077D01*
X102501586Y-76190358D01*
X102511459Y-76102731D01*
X102517635Y-76075670D01*
X102545353Y-75996456D01*
X102557396Y-75971450D01*
X102602046Y-75900389D01*
X102619351Y-75878690D01*
X102678690Y-75819351D01*
X102700389Y-75802046D01*
X102771450Y-75757396D01*
X102796456Y-75745353D01*
X102875670Y-75717635D01*
X102902733Y-75711459D01*
X102965419Y-75704396D01*
X102993079Y-75701280D01*
X103006962Y-75700500D01*
X103065892Y-75700500D01*
X108934108Y-75700500D01*
X108962750Y-75700500D01*
X108967077Y-75701770D01*
G37*
%TD.AperFunction*%
%TD*%
M02*
